<?xml version="1.0" encoding="UTF-8" standalone="no"?>
<!DOCTYPE svg PUBLIC "-//W3C//DTD SVG 1.1//EN"
 "http://www.w3.org/Graphics/SVG/1.1/DTD/svg11.dtd">
<!-- Generated by graphviz version 2.49.1 (20210923.0004)
 -->
<!-- Pages: 1 -->
<svg width="836pt" height="1988pt"
 viewBox="0.00 0.00 836.00 1988.00" xmlns="http://www.w3.org/2000/svg" xmlns:xlink="http://www.w3.org/1999/xlink">
<g id="graph0" class="graph" transform="scale(1 1) rotate(0) translate(4 1984)">
<polygon fill="white" stroke="transparent" points="-4,4 -4,-1984 832,-1984 832,4 -4,4"/>
<!-- E0_922511709 -->
<g id="node1" class="node">
<title>E0_922511709</title>
<ellipse fill="none" stroke="black" cx="765" cy="-1962" rx="27" ry="18"/>
<text text-anchor="middle" x="765" y="-1958.3" font-family="Times,serif" font-size="14.00">E0</text>
</g>
<!-- E_678433396 -->
<g id="node2" class="node">
<title>E_678433396</title>
<ellipse fill="none" stroke="black" cx="765" cy="-1890" rx="27" ry="18"/>
<text text-anchor="middle" x="765" y="-1886.3" font-family="Times,serif" font-size="14.00">E</text>
</g>
<!-- E0_922511709&#45;&#45;E_678433396 -->
<g id="edge1" class="edge">
<title>E0_922511709&#45;&#45;E_678433396</title>
<path fill="none" stroke="black" d="M765,-1943.7C765,-1932.85 765,-1918.92 765,-1908.1"/>
</g>
<!-- T_331994761 -->
<g id="node3" class="node">
<title>T_331994761</title>
<ellipse fill="none" stroke="black" cx="729" cy="-1818" rx="27" ry="18"/>
<text text-anchor="middle" x="729" y="-1814.3" font-family="Times,serif" font-size="14.00">T</text>
</g>
<!-- E_678433396&#45;&#45;T_331994761 -->
<g id="edge2" class="edge">
<title>E_678433396&#45;&#45;T_331994761</title>
<path fill="none" stroke="black" d="M756.65,-1872.76C750.83,-1861.46 743.11,-1846.44 737.3,-1835.15"/>
</g>
<!-- E1_428566321 -->
<g id="node89" class="node">
<title>E1_428566321</title>
<ellipse fill="none" stroke="black" cx="801" cy="-1818" rx="27" ry="18"/>
<text text-anchor="middle" x="801" y="-1814.3" font-family="Times,serif" font-size="14.00">E1</text>
</g>
<!-- E_678433396&#45;&#45;E1_428566321 -->
<g id="edge88" class="edge">
<title>E_678433396&#45;&#45;E1_428566321</title>
<path fill="none" stroke="black" d="M773.35,-1872.76C779.17,-1861.46 786.89,-1846.44 792.7,-1835.15"/>
</g>
<!-- F_928294079 -->
<g id="node4" class="node">
<title>F_928294079</title>
<ellipse fill="none" stroke="black" cx="657" cy="-1746" rx="27" ry="18"/>
<text text-anchor="middle" x="657" y="-1742.3" font-family="Times,serif" font-size="14.00">F</text>
</g>
<!-- T_331994761&#45;&#45;F_928294079 -->
<g id="edge3" class="edge">
<title>T_331994761&#45;&#45;F_928294079</title>
<path fill="none" stroke="black" d="M714.43,-1802.83C702.02,-1790.77 684.27,-1773.51 671.8,-1761.38"/>
</g>
<!-- T1_1217467887 -->
<g id="node87" class="node">
<title>T1_1217467887</title>
<ellipse fill="none" stroke="black" cx="729" cy="-1746" rx="27" ry="18"/>
<text text-anchor="middle" x="729" y="-1742.3" font-family="Times,serif" font-size="14.00">T1</text>
</g>
<!-- T_331994761&#45;&#45;T1_1217467887 -->
<g id="edge86" class="edge">
<title>T_331994761&#45;&#45;T1_1217467887</title>
<path fill="none" stroke="black" d="M729,-1799.7C729,-1788.85 729,-1774.92 729,-1764.1"/>
</g>
<!-- G_1647809929 -->
<g id="node5" class="node">
<title>G_1647809929</title>
<ellipse fill="none" stroke="black" cx="585" cy="-1674" rx="27" ry="18"/>
<text text-anchor="middle" x="585" y="-1670.3" font-family="Times,serif" font-size="14.00">G</text>
</g>
<!-- F_928294079&#45;&#45;G_1647809929 -->
<g id="edge4" class="edge">
<title>F_928294079&#45;&#45;G_1647809929</title>
<path fill="none" stroke="black" d="M642.43,-1730.83C630.02,-1718.77 612.27,-1701.51 599.8,-1689.38"/>
</g>
<!-- F1_442987331 -->
<g id="node85" class="node">
<title>F1_442987331</title>
<ellipse fill="none" stroke="black" cx="657" cy="-1674" rx="27" ry="18"/>
<text text-anchor="middle" x="657" y="-1670.3" font-family="Times,serif" font-size="14.00">F1</text>
</g>
<!-- F_928294079&#45;&#45;F1_442987331 -->
<g id="edge84" class="edge">
<title>F_928294079&#45;&#45;F1_442987331</title>
<path fill="none" stroke="black" d="M657,-1727.7C657,-1716.85 657,-1702.92 657,-1692.1"/>
</g>
<!-- H_1258084361 -->
<g id="node6" class="node">
<title>H_1258084361</title>
<ellipse fill="none" stroke="black" cx="585" cy="-1602" rx="27" ry="18"/>
<text text-anchor="middle" x="585" y="-1598.3" font-family="Times,serif" font-size="14.00">H</text>
</g>
<!-- G_1647809929&#45;&#45;H_1258084361 -->
<g id="edge5" class="edge">
<title>G_1647809929&#45;&#45;H_1258084361</title>
<path fill="none" stroke="black" d="M585,-1655.7C585,-1644.85 585,-1630.92 585,-1620.1"/>
</g>
<!-- v_391914049 -->
<g id="node7" class="node">
<title>v_391914049</title>
<ellipse fill="none" stroke="black" cx="549" cy="-1530" rx="27" ry="18"/>
<text text-anchor="middle" x="549" y="-1526.3" font-family="Times,serif" font-size="14.00">v</text>
</g>
<!-- H_1258084361&#45;&#45;v_391914049 -->
<g id="edge6" class="edge">
<title>H_1258084361&#45;&#45;v_391914049</title>
<path fill="none" stroke="black" d="M576.65,-1584.76C570.83,-1573.46 563.11,-1558.44 557.3,-1547.15"/>
</g>
<!-- E_96406857 -->
<g id="node8" class="node">
<title>E_96406857</title>
<ellipse fill="none" stroke="black" cx="621" cy="-1530" rx="27" ry="18"/>
<text text-anchor="middle" x="621" y="-1526.3" font-family="Times,serif" font-size="14.00">E</text>
</g>
<!-- H_1258084361&#45;&#45;E_96406857 -->
<g id="edge7" class="edge">
<title>H_1258084361&#45;&#45;E_96406857</title>
<path fill="none" stroke="black" d="M593.35,-1584.76C599.17,-1573.46 606.89,-1558.44 612.7,-1547.15"/>
</g>
<!-- T_1534745514 -->
<g id="node9" class="node">
<title>T_1534745514</title>
<ellipse fill="none" stroke="black" cx="585" cy="-1458" rx="27" ry="18"/>
<text text-anchor="middle" x="585" y="-1454.3" font-family="Times,serif" font-size="14.00">T</text>
</g>
<!-- E_96406857&#45;&#45;T_1534745514 -->
<g id="edge8" class="edge">
<title>E_96406857&#45;&#45;T_1534745514</title>
<path fill="none" stroke="black" d="M612.65,-1512.76C606.83,-1501.46 599.11,-1486.44 593.3,-1475.15"/>
</g>
<!-- E1_1961176822 -->
<g id="node83" class="node">
<title>E1_1961176822</title>
<ellipse fill="none" stroke="black" cx="657" cy="-1458" rx="27" ry="18"/>
<text text-anchor="middle" x="657" y="-1454.3" font-family="Times,serif" font-size="14.00">E1</text>
</g>
<!-- E_96406857&#45;&#45;E1_1961176822 -->
<g id="edge82" class="edge">
<title>E_96406857&#45;&#45;E1_1961176822</title>
<path fill="none" stroke="black" d="M629.35,-1512.76C635.17,-1501.46 642.89,-1486.44 648.7,-1475.15"/>
</g>
<!-- F_2003496028 -->
<g id="node10" class="node">
<title>F_2003496028</title>
<ellipse fill="none" stroke="black" cx="513" cy="-1386" rx="27" ry="18"/>
<text text-anchor="middle" x="513" y="-1382.3" font-family="Times,serif" font-size="14.00">F</text>
</g>
<!-- T_1534745514&#45;&#45;F_2003496028 -->
<g id="edge9" class="edge">
<title>T_1534745514&#45;&#45;F_2003496028</title>
<path fill="none" stroke="black" d="M570.43,-1442.83C558.02,-1430.77 540.27,-1413.51 527.8,-1401.38"/>
</g>
<!-- T1_1092004553 -->
<g id="node81" class="node">
<title>T1_1092004553</title>
<ellipse fill="none" stroke="black" cx="585" cy="-1386" rx="27" ry="18"/>
<text text-anchor="middle" x="585" y="-1382.3" font-family="Times,serif" font-size="14.00">T1</text>
</g>
<!-- T_1534745514&#45;&#45;T1_1092004553 -->
<g id="edge80" class="edge">
<title>T_1534745514&#45;&#45;T1_1092004553</title>
<path fill="none" stroke="black" d="M585,-1439.7C585,-1428.85 585,-1414.92 585,-1404.1"/>
</g>
<!-- G_30578394 -->
<g id="node11" class="node">
<title>G_30578394</title>
<ellipse fill="none" stroke="black" cx="405" cy="-1314" rx="27" ry="18"/>
<text text-anchor="middle" x="405" y="-1310.3" font-family="Times,serif" font-size="14.00">G</text>
</g>
<!-- F_2003496028&#45;&#45;G_30578394 -->
<g id="edge10" class="edge">
<title>F_2003496028&#45;&#45;G_30578394</title>
<path fill="none" stroke="black" d="M494.19,-1372.81C474.37,-1359.96 443.34,-1339.85 423.6,-1327.05"/>
</g>
<!-- F1_1434234664 -->
<g id="node14" class="node">
<title>F1_1434234664</title>
<ellipse fill="none" stroke="black" cx="513" cy="-1314" rx="27" ry="18"/>
<text text-anchor="middle" x="513" y="-1310.3" font-family="Times,serif" font-size="14.00">F1</text>
</g>
<!-- F_2003496028&#45;&#45;F1_1434234664 -->
<g id="edge13" class="edge">
<title>F_2003496028&#45;&#45;F1_1434234664</title>
<path fill="none" stroke="black" d="M513,-1367.7C513,-1356.85 513,-1342.92 513,-1332.1"/>
</g>
<!-- H_2088371948 -->
<g id="node12" class="node">
<title>H_2088371948</title>
<ellipse fill="none" stroke="black" cx="405" cy="-1242" rx="27" ry="18"/>
<text text-anchor="middle" x="405" y="-1238.3" font-family="Times,serif" font-size="14.00">H</text>
</g>
<!-- G_30578394&#45;&#45;H_2088371948 -->
<g id="edge11" class="edge">
<title>G_30578394&#45;&#45;H_2088371948</title>
<path fill="none" stroke="black" d="M405,-1295.7C405,-1284.85 405,-1270.92 405,-1260.1"/>
</g>
<!-- eps_1976870338 -->
<g id="node13" class="node">
<title>eps_1976870338</title>
<ellipse fill="none" stroke="black" cx="405" cy="-1170" rx="27" ry="18"/>
<text text-anchor="middle" x="405" y="-1166.3" font-family="Times,serif" font-size="14.00">eps</text>
</g>
<!-- H_2088371948&#45;&#45;eps_1976870338 -->
<g id="edge12" class="edge">
<title>H_2088371948&#45;&#45;eps_1976870338</title>
<path fill="none" stroke="black" d="M405,-1223.7C405,-1212.85 405,-1198.92 405,-1188.1"/>
</g>
<!-- &amp;_1083021083 -->
<g id="node15" class="node">
<title>&amp;_1083021083</title>
<ellipse fill="none" stroke="black" cx="477" cy="-1242" rx="27" ry="18"/>
<text text-anchor="middle" x="477" y="-1238.3" font-family="Times,serif" font-size="14.00">&amp;</text>
</g>
<!-- F1_1434234664&#45;&#45;&amp;_1083021083 -->
<g id="edge14" class="edge">
<title>F1_1434234664&#45;&#45;&amp;_1083021083</title>
<path fill="none" stroke="black" d="M504.65,-1296.76C498.83,-1285.46 491.11,-1270.44 485.3,-1259.15"/>
</g>
<!-- G_1819063424 -->
<g id="node16" class="node">
<title>G_1819063424</title>
<ellipse fill="none" stroke="black" cx="549" cy="-1242" rx="27" ry="18"/>
<text text-anchor="middle" x="549" y="-1238.3" font-family="Times,serif" font-size="14.00">G</text>
</g>
<!-- F1_1434234664&#45;&#45;G_1819063424 -->
<g id="edge15" class="edge">
<title>F1_1434234664&#45;&#45;G_1819063424</title>
<path fill="none" stroke="black" d="M521.35,-1296.76C527.17,-1285.46 534.89,-1270.44 540.7,-1259.15"/>
</g>
<!-- F1_530653666 -->
<g id="node79" class="node">
<title>F1_530653666</title>
<ellipse fill="none" stroke="black" cx="621" cy="-1242" rx="27" ry="18"/>
<text text-anchor="middle" x="621" y="-1238.3" font-family="Times,serif" font-size="14.00">F1</text>
</g>
<!-- F1_1434234664&#45;&#45;F1_530653666 -->
<g id="edge78" class="edge">
<title>F1_1434234664&#45;&#45;F1_530653666</title>
<path fill="none" stroke="black" d="M531.81,-1300.81C551.63,-1287.96 582.66,-1267.85 602.4,-1255.05"/>
</g>
<!-- H_1011279482 -->
<g id="node17" class="node">
<title>H_1011279482</title>
<ellipse fill="none" stroke="black" cx="549" cy="-1170" rx="27" ry="18"/>
<text text-anchor="middle" x="549" y="-1166.3" font-family="Times,serif" font-size="14.00">H</text>
</g>
<!-- G_1819063424&#45;&#45;H_1011279482 -->
<g id="edge16" class="edge">
<title>G_1819063424&#45;&#45;H_1011279482</title>
<path fill="none" stroke="black" d="M549,-1223.7C549,-1212.85 549,-1198.92 549,-1188.1"/>
</g>
<!-- (_208866101 -->
<g id="node18" class="node">
<title>(_208866101</title>
<ellipse fill="none" stroke="black" cx="477" cy="-1098" rx="27" ry="18"/>
<text text-anchor="middle" x="477" y="-1094.3" font-family="Times,serif" font-size="14.00">(</text>
</g>
<!-- H_1011279482&#45;&#45;(_208866101 -->
<g id="edge17" class="edge">
<title>H_1011279482&#45;&#45;(_208866101</title>
<path fill="none" stroke="black" d="M534.43,-1154.83C522.02,-1142.77 504.27,-1125.51 491.8,-1113.38"/>
</g>
<!-- E_543846639 -->
<g id="node19" class="node">
<title>E_543846639</title>
<ellipse fill="none" stroke="black" cx="549" cy="-1098" rx="27" ry="18"/>
<text text-anchor="middle" x="549" y="-1094.3" font-family="Times,serif" font-size="14.00">E</text>
</g>
<!-- H_1011279482&#45;&#45;E_543846639 -->
<g id="edge18" class="edge">
<title>H_1011279482&#45;&#45;E_543846639</title>
<path fill="none" stroke="black" d="M549,-1151.7C549,-1140.85 549,-1126.92 549,-1116.1"/>
</g>
<!-- )_1020520290 -->
<g id="node78" class="node">
<title>)_1020520290</title>
<ellipse fill="none" stroke="black" cx="621" cy="-1098" rx="27" ry="18"/>
<text text-anchor="middle" x="621" y="-1094.3" font-family="Times,serif" font-size="14.00">)</text>
</g>
<!-- H_1011279482&#45;&#45;)_1020520290 -->
<g id="edge77" class="edge">
<title>H_1011279482&#45;&#45;)_1020520290</title>
<path fill="none" stroke="black" d="M563.57,-1154.83C575.98,-1142.77 593.73,-1125.51 606.2,-1113.38"/>
</g>
<!-- T_690686166 -->
<g id="node20" class="node">
<title>T_690686166</title>
<ellipse fill="none" stroke="black" cx="513" cy="-1026" rx="27" ry="18"/>
<text text-anchor="middle" x="513" y="-1022.3" font-family="Times,serif" font-size="14.00">T</text>
</g>
<!-- E_543846639&#45;&#45;T_690686166 -->
<g id="edge19" class="edge">
<title>E_543846639&#45;&#45;T_690686166</title>
<path fill="none" stroke="black" d="M540.65,-1080.76C534.83,-1069.46 527.11,-1054.44 521.3,-1043.15"/>
</g>
<!-- E1_396283472 -->
<g id="node76" class="node">
<title>E1_396283472</title>
<ellipse fill="none" stroke="black" cx="585" cy="-1026" rx="27" ry="18"/>
<text text-anchor="middle" x="585" y="-1022.3" font-family="Times,serif" font-size="14.00">E1</text>
</g>
<!-- E_543846639&#45;&#45;E1_396283472 -->
<g id="edge75" class="edge">
<title>E_543846639&#45;&#45;E1_396283472</title>
<path fill="none" stroke="black" d="M557.35,-1080.76C563.17,-1069.46 570.89,-1054.44 576.7,-1043.15"/>
</g>
<!-- F_576020159 -->
<g id="node21" class="node">
<title>F_576020159</title>
<ellipse fill="none" stroke="black" cx="405" cy="-954" rx="27" ry="18"/>
<text text-anchor="middle" x="405" y="-950.3" font-family="Times,serif" font-size="14.00">F</text>
</g>
<!-- T_690686166&#45;&#45;F_576020159 -->
<g id="edge20" class="edge">
<title>T_690686166&#45;&#45;F_576020159</title>
<path fill="none" stroke="black" d="M494.19,-1012.81C474.37,-999.96 443.34,-979.85 423.6,-967.05"/>
</g>
<!-- T1_1521083627 -->
<g id="node54" class="node">
<title>T1_1521083627</title>
<ellipse fill="none" stroke="black" cx="513" cy="-954" rx="27" ry="18"/>
<text text-anchor="middle" x="513" y="-950.3" font-family="Times,serif" font-size="14.00">T1</text>
</g>
<!-- T_690686166&#45;&#45;T1_1521083627 -->
<g id="edge53" class="edge">
<title>T_690686166&#45;&#45;T1_1521083627</title>
<path fill="none" stroke="black" d="M513,-1007.7C513,-996.85 513,-982.92 513,-972.1"/>
</g>
<!-- G_921420643 -->
<g id="node22" class="node">
<title>G_921420643</title>
<ellipse fill="none" stroke="black" cx="333" cy="-882" rx="27" ry="18"/>
<text text-anchor="middle" x="333" y="-878.3" font-family="Times,serif" font-size="14.00">G</text>
</g>
<!-- F_576020159&#45;&#45;G_921420643 -->
<g id="edge21" class="edge">
<title>F_576020159&#45;&#45;G_921420643</title>
<path fill="none" stroke="black" d="M390.43,-938.83C378.02,-926.77 360.27,-909.51 347.8,-897.38"/>
</g>
<!-- F1_275266973 -->
<g id="node52" class="node">
<title>F1_275266973</title>
<ellipse fill="none" stroke="black" cx="405" cy="-882" rx="27" ry="18"/>
<text text-anchor="middle" x="405" y="-878.3" font-family="Times,serif" font-size="14.00">F1</text>
</g>
<!-- F_576020159&#45;&#45;F1_275266973 -->
<g id="edge51" class="edge">
<title>F_576020159&#45;&#45;F1_275266973</title>
<path fill="none" stroke="black" d="M405,-935.7C405,-924.85 405,-910.92 405,-900.1"/>
</g>
<!-- !_1165303897 -->
<g id="node23" class="node">
<title>!_1165303897</title>
<ellipse fill="none" stroke="black" cx="261" cy="-810" rx="27" ry="18"/>
<text text-anchor="middle" x="261" y="-806.3" font-family="Times,serif" font-size="14.00">!</text>
</g>
<!-- G_921420643&#45;&#45;!_1165303897 -->
<g id="edge22" class="edge">
<title>G_921420643&#45;&#45;!_1165303897</title>
<path fill="none" stroke="black" d="M318.43,-866.83C306.02,-854.77 288.27,-837.51 275.8,-825.38"/>
</g>
<!-- H_887750041 -->
<g id="node24" class="node">
<title>H_887750041</title>
<ellipse fill="none" stroke="black" cx="333" cy="-810" rx="27" ry="18"/>
<text text-anchor="middle" x="333" y="-806.3" font-family="Times,serif" font-size="14.00">H</text>
</g>
<!-- G_921420643&#45;&#45;H_887750041 -->
<g id="edge23" class="edge">
<title>G_921420643&#45;&#45;H_887750041</title>
<path fill="none" stroke="black" d="M333,-863.7C333,-852.85 333,-838.92 333,-828.1"/>
</g>
<!-- (_1010953501 -->
<g id="node25" class="node">
<title>(_1010953501</title>
<ellipse fill="none" stroke="black" cx="261" cy="-738" rx="27" ry="18"/>
<text text-anchor="middle" x="261" y="-734.3" font-family="Times,serif" font-size="14.00">(</text>
</g>
<!-- H_887750041&#45;&#45;(_1010953501 -->
<g id="edge24" class="edge">
<title>H_887750041&#45;&#45;(_1010953501</title>
<path fill="none" stroke="black" d="M318.43,-794.83C306.02,-782.77 288.27,-765.51 275.8,-753.38"/>
</g>
<!-- E_1423561005 -->
<g id="node26" class="node">
<title>E_1423561005</title>
<ellipse fill="none" stroke="black" cx="333" cy="-738" rx="27" ry="18"/>
<text text-anchor="middle" x="333" y="-734.3" font-family="Times,serif" font-size="14.00">E</text>
</g>
<!-- H_887750041&#45;&#45;E_1423561005 -->
<g id="edge25" class="edge">
<title>H_887750041&#45;&#45;E_1423561005</title>
<path fill="none" stroke="black" d="M333,-791.7C333,-780.85 333,-766.92 333,-756.1"/>
</g>
<!-- )_522553046 -->
<g id="node51" class="node">
<title>)_522553046</title>
<ellipse fill="none" stroke="black" cx="405" cy="-738" rx="27" ry="18"/>
<text text-anchor="middle" x="405" y="-734.3" font-family="Times,serif" font-size="14.00">)</text>
</g>
<!-- H_887750041&#45;&#45;)_522553046 -->
<g id="edge50" class="edge">
<title>H_887750041&#45;&#45;)_522553046</title>
<path fill="none" stroke="black" d="M347.57,-794.83C359.98,-782.77 377.73,-765.51 390.2,-753.38"/>
</g>
<!-- T_943870983 -->
<g id="node27" class="node">
<title>T_943870983</title>
<ellipse fill="none" stroke="black" cx="297" cy="-666" rx="27" ry="18"/>
<text text-anchor="middle" x="297" y="-662.3" font-family="Times,serif" font-size="14.00">T</text>
</g>
<!-- E_1423561005&#45;&#45;T_943870983 -->
<g id="edge26" class="edge">
<title>E_1423561005&#45;&#45;T_943870983</title>
<path fill="none" stroke="black" d="M324.65,-720.76C318.83,-709.46 311.11,-694.44 305.3,-683.15"/>
</g>
<!-- E1_1786294176 -->
<g id="node49" class="node">
<title>E1_1786294176</title>
<ellipse fill="none" stroke="black" cx="369" cy="-666" rx="27" ry="18"/>
<text text-anchor="middle" x="369" y="-662.3" font-family="Times,serif" font-size="14.00">E1</text>
</g>
<!-- E_1423561005&#45;&#45;E1_1786294176 -->
<g id="edge48" class="edge">
<title>E_1423561005&#45;&#45;E1_1786294176</title>
<path fill="none" stroke="black" d="M341.35,-720.76C347.17,-709.46 354.89,-694.44 360.7,-683.15"/>
</g>
<!-- F_1136419747 -->
<g id="node28" class="node">
<title>F_1136419747</title>
<ellipse fill="none" stroke="black" cx="225" cy="-594" rx="27" ry="18"/>
<text text-anchor="middle" x="225" y="-590.3" font-family="Times,serif" font-size="14.00">F</text>
</g>
<!-- T_943870983&#45;&#45;F_1136419747 -->
<g id="edge27" class="edge">
<title>T_943870983&#45;&#45;F_1136419747</title>
<path fill="none" stroke="black" d="M282.43,-650.83C270.02,-638.77 252.27,-621.51 239.8,-609.38"/>
</g>
<!-- T1_132577100 -->
<g id="node47" class="node">
<title>T1_132577100</title>
<ellipse fill="none" stroke="black" cx="297" cy="-594" rx="27" ry="18"/>
<text text-anchor="middle" x="297" y="-590.3" font-family="Times,serif" font-size="14.00">T1</text>
</g>
<!-- T_943870983&#45;&#45;T1_132577100 -->
<g id="edge46" class="edge">
<title>T_943870983&#45;&#45;T1_132577100</title>
<path fill="none" stroke="black" d="M297,-647.7C297,-636.85 297,-622.92 297,-612.1"/>
</g>
<!-- G_1881561036 -->
<g id="node29" class="node">
<title>G_1881561036</title>
<ellipse fill="none" stroke="black" cx="153" cy="-522" rx="27" ry="18"/>
<text text-anchor="middle" x="153" y="-518.3" font-family="Times,serif" font-size="14.00">G</text>
</g>
<!-- F_1136419747&#45;&#45;G_1881561036 -->
<g id="edge28" class="edge">
<title>F_1136419747&#45;&#45;G_1881561036</title>
<path fill="none" stroke="black" d="M210.43,-578.83C198.02,-566.77 180.27,-549.51 167.8,-537.38"/>
</g>
<!-- F1_1632682988 -->
<g id="node45" class="node">
<title>F1_1632682988</title>
<ellipse fill="none" stroke="black" cx="225" cy="-522" rx="27" ry="18"/>
<text text-anchor="middle" x="225" y="-518.3" font-family="Times,serif" font-size="14.00">F1</text>
</g>
<!-- F_1136419747&#45;&#45;F1_1632682988 -->
<g id="edge44" class="edge">
<title>F_1136419747&#45;&#45;F1_1632682988</title>
<path fill="none" stroke="black" d="M225,-575.7C225,-564.85 225,-550.92 225,-540.1"/>
</g>
<!-- !_1785507932 -->
<g id="node30" class="node">
<title>!_1785507932</title>
<ellipse fill="none" stroke="black" cx="81" cy="-450" rx="27" ry="18"/>
<text text-anchor="middle" x="81" y="-446.3" font-family="Times,serif" font-size="14.00">!</text>
</g>
<!-- G_1881561036&#45;&#45;!_1785507932 -->
<g id="edge29" class="edge">
<title>G_1881561036&#45;&#45;!_1785507932</title>
<path fill="none" stroke="black" d="M138.43,-506.83C126.02,-494.77 108.27,-477.51 95.8,-465.38"/>
</g>
<!-- H_1084502906 -->
<g id="node31" class="node">
<title>H_1084502906</title>
<ellipse fill="none" stroke="black" cx="153" cy="-450" rx="27" ry="18"/>
<text text-anchor="middle" x="153" y="-446.3" font-family="Times,serif" font-size="14.00">H</text>
</g>
<!-- G_1881561036&#45;&#45;H_1084502906 -->
<g id="edge30" class="edge">
<title>G_1881561036&#45;&#45;H_1084502906</title>
<path fill="none" stroke="black" d="M153,-503.7C153,-492.85 153,-478.92 153,-468.1"/>
</g>
<!-- v_1613095350 -->
<g id="node32" class="node">
<title>v_1613095350</title>
<ellipse fill="none" stroke="black" cx="153" cy="-378" rx="27" ry="18"/>
<text text-anchor="middle" x="153" y="-374.3" font-family="Times,serif" font-size="14.00">v</text>
</g>
<!-- H_1084502906&#45;&#45;v_1613095350 -->
<g id="edge31" class="edge">
<title>H_1084502906&#45;&#45;v_1613095350</title>
<path fill="none" stroke="black" d="M153,-431.7C153,-420.85 153,-406.92 153,-396.1"/>
</g>
<!-- E_587153993 -->
<g id="node33" class="node">
<title>E_587153993</title>
<ellipse fill="none" stroke="black" cx="225" cy="-378" rx="27" ry="18"/>
<text text-anchor="middle" x="225" y="-374.3" font-family="Times,serif" font-size="14.00">E</text>
</g>
<!-- H_1084502906&#45;&#45;E_587153993 -->
<g id="edge32" class="edge">
<title>H_1084502906&#45;&#45;E_587153993</title>
<path fill="none" stroke="black" d="M167.57,-434.83C179.98,-422.77 197.73,-405.51 210.2,-393.38"/>
</g>
<!-- T_757004314 -->
<g id="node34" class="node">
<title>T_757004314</title>
<ellipse fill="none" stroke="black" cx="171" cy="-306" rx="27" ry="18"/>
<text text-anchor="middle" x="171" y="-302.3" font-family="Times,serif" font-size="14.00">T</text>
</g>
<!-- E_587153993&#45;&#45;T_757004314 -->
<g id="edge33" class="edge">
<title>E_587153993&#45;&#45;T_757004314</title>
<path fill="none" stroke="black" d="M213.02,-361.46C204.07,-349.86 191.89,-334.08 182.95,-322.49"/>
</g>
<!-- E1_1430439149 -->
<g id="node43" class="node">
<title>E1_1430439149</title>
<ellipse fill="none" stroke="black" cx="243" cy="-306" rx="27" ry="18"/>
<text text-anchor="middle" x="243" y="-302.3" font-family="Times,serif" font-size="14.00">E1</text>
</g>
<!-- E_587153993&#45;&#45;E1_1430439149 -->
<g id="edge42" class="edge">
<title>E_587153993&#45;&#45;E1_1430439149</title>
<path fill="none" stroke="black" d="M229.36,-360.05C232.19,-349.05 235.86,-334.76 238.68,-323.79"/>
</g>
<!-- F_1279271200 -->
<g id="node35" class="node">
<title>F_1279271200</title>
<ellipse fill="none" stroke="black" cx="99" cy="-234" rx="27" ry="18"/>
<text text-anchor="middle" x="99" y="-230.3" font-family="Times,serif" font-size="14.00">F</text>
</g>
<!-- T_757004314&#45;&#45;F_1279271200 -->
<g id="edge34" class="edge">
<title>T_757004314&#45;&#45;F_1279271200</title>
<path fill="none" stroke="black" d="M156.43,-290.83C144.02,-278.77 126.27,-261.51 113.8,-249.38"/>
</g>
<!-- T1_996796369 -->
<g id="node41" class="node">
<title>T1_996796369</title>
<ellipse fill="none" stroke="black" cx="171" cy="-234" rx="27" ry="18"/>
<text text-anchor="middle" x="171" y="-230.3" font-family="Times,serif" font-size="14.00">T1</text>
</g>
<!-- T_757004314&#45;&#45;T1_996796369 -->
<g id="edge40" class="edge">
<title>T_757004314&#45;&#45;T1_996796369</title>
<path fill="none" stroke="black" d="M171,-287.7C171,-276.85 171,-262.92 171,-252.1"/>
</g>
<!-- G_52908367 -->
<g id="node36" class="node">
<title>G_52908367</title>
<ellipse fill="none" stroke="black" cx="27" cy="-162" rx="27" ry="18"/>
<text text-anchor="middle" x="27" y="-158.3" font-family="Times,serif" font-size="14.00">G</text>
</g>
<!-- F_1279271200&#45;&#45;G_52908367 -->
<g id="edge35" class="edge">
<title>F_1279271200&#45;&#45;G_52908367</title>
<path fill="none" stroke="black" d="M84.43,-218.83C72.02,-206.77 54.27,-189.51 41.8,-177.38"/>
</g>
<!-- F1_1276261147 -->
<g id="node39" class="node">
<title>F1_1276261147</title>
<ellipse fill="none" stroke="black" cx="99" cy="-162" rx="27" ry="18"/>
<text text-anchor="middle" x="99" y="-158.3" font-family="Times,serif" font-size="14.00">F1</text>
</g>
<!-- F_1279271200&#45;&#45;F1_1276261147 -->
<g id="edge38" class="edge">
<title>F_1279271200&#45;&#45;F1_1276261147</title>
<path fill="none" stroke="black" d="M99,-215.7C99,-204.85 99,-190.92 99,-180.1"/>
</g>
<!-- H_1527953000 -->
<g id="node37" class="node">
<title>H_1527953000</title>
<ellipse fill="none" stroke="black" cx="27" cy="-90" rx="27" ry="18"/>
<text text-anchor="middle" x="27" y="-86.3" font-family="Times,serif" font-size="14.00">H</text>
</g>
<!-- G_52908367&#45;&#45;H_1527953000 -->
<g id="edge36" class="edge">
<title>G_52908367&#45;&#45;H_1527953000</title>
<path fill="none" stroke="black" d="M27,-143.7C27,-132.85 27,-118.92 27,-108.1"/>
</g>
<!-- eps_18242360 -->
<g id="node38" class="node">
<title>eps_18242360</title>
<ellipse fill="none" stroke="black" cx="27" cy="-18" rx="27" ry="18"/>
<text text-anchor="middle" x="27" y="-14.3" font-family="Times,serif" font-size="14.00">eps</text>
</g>
<!-- H_1527953000&#45;&#45;eps_18242360 -->
<g id="edge37" class="edge">
<title>H_1527953000&#45;&#45;eps_18242360</title>
<path fill="none" stroke="black" d="M27,-71.7C27,-60.85 27,-46.92 27,-36.1"/>
</g>
<!-- eps_1971764991 -->
<g id="node40" class="node">
<title>eps_1971764991</title>
<ellipse fill="none" stroke="black" cx="99" cy="-90" rx="27" ry="18"/>
<text text-anchor="middle" x="99" y="-86.3" font-family="Times,serif" font-size="14.00">eps</text>
</g>
<!-- F1_1276261147&#45;&#45;eps_1971764991 -->
<g id="edge39" class="edge">
<title>F1_1276261147&#45;&#45;eps_1971764991</title>
<path fill="none" stroke="black" d="M99,-143.7C99,-132.85 99,-118.92 99,-108.1"/>
</g>
<!-- eps_135640095 -->
<g id="node42" class="node">
<title>eps_135640095</title>
<ellipse fill="none" stroke="black" cx="171" cy="-162" rx="27" ry="18"/>
<text text-anchor="middle" x="171" y="-158.3" font-family="Times,serif" font-size="14.00">eps</text>
</g>
<!-- T1_996796369&#45;&#45;eps_135640095 -->
<g id="edge41" class="edge">
<title>T1_996796369&#45;&#45;eps_135640095</title>
<path fill="none" stroke="black" d="M171,-215.7C171,-204.85 171,-190.92 171,-180.1"/>
</g>
<!-- eps_359922172 -->
<g id="node44" class="node">
<title>eps_359922172</title>
<ellipse fill="none" stroke="black" cx="243" cy="-234" rx="27" ry="18"/>
<text text-anchor="middle" x="243" y="-230.3" font-family="Times,serif" font-size="14.00">eps</text>
</g>
<!-- E1_1430439149&#45;&#45;eps_359922172 -->
<g id="edge43" class="edge">
<title>E1_1430439149&#45;&#45;eps_359922172</title>
<path fill="none" stroke="black" d="M243,-287.7C243,-276.85 243,-262.92 243,-252.1"/>
</g>
<!-- eps_1153447573 -->
<g id="node46" class="node">
<title>eps_1153447573</title>
<ellipse fill="none" stroke="black" cx="225" cy="-450" rx="27" ry="18"/>
<text text-anchor="middle" x="225" y="-446.3" font-family="Times,serif" font-size="14.00">eps</text>
</g>
<!-- F1_1632682988&#45;&#45;eps_1153447573 -->
<g id="edge45" class="edge">
<title>F1_1632682988&#45;&#45;eps_1153447573</title>
<path fill="none" stroke="black" d="M225,-503.7C225,-492.85 225,-478.92 225,-468.1"/>
</g>
<!-- eps_231756373 -->
<g id="node48" class="node">
<title>eps_231756373</title>
<ellipse fill="none" stroke="black" cx="297" cy="-522" rx="27" ry="18"/>
<text text-anchor="middle" x="297" y="-518.3" font-family="Times,serif" font-size="14.00">eps</text>
</g>
<!-- T1_132577100&#45;&#45;eps_231756373 -->
<g id="edge47" class="edge">
<title>T1_132577100&#45;&#45;eps_231756373</title>
<path fill="none" stroke="black" d="M297,-575.7C297,-564.85 297,-550.92 297,-540.1"/>
</g>
<!-- eps_793331940 -->
<g id="node50" class="node">
<title>eps_793331940</title>
<ellipse fill="none" stroke="black" cx="369" cy="-594" rx="27" ry="18"/>
<text text-anchor="middle" x="369" y="-590.3" font-family="Times,serif" font-size="14.00">eps</text>
</g>
<!-- E1_1786294176&#45;&#45;eps_793331940 -->
<g id="edge49" class="edge">
<title>E1_1786294176&#45;&#45;eps_793331940</title>
<path fill="none" stroke="black" d="M369,-647.7C369,-636.85 369,-622.92 369,-612.1"/>
</g>
<!-- eps_1069716895 -->
<g id="node53" class="node">
<title>eps_1069716895</title>
<ellipse fill="none" stroke="black" cx="405" cy="-810" rx="27" ry="18"/>
<text text-anchor="middle" x="405" y="-806.3" font-family="Times,serif" font-size="14.00">eps</text>
</g>
<!-- F1_275266973&#45;&#45;eps_1069716895 -->
<g id="edge52" class="edge">
<title>F1_275266973&#45;&#45;eps_1069716895</title>
<path fill="none" stroke="black" d="M405,-863.7C405,-852.85 405,-838.92 405,-828.1"/>
</g>
<!-- ^_1770642014 -->
<g id="node55" class="node">
<title>^_1770642014</title>
<ellipse fill="none" stroke="black" cx="477" cy="-882" rx="27" ry="18"/>
<text text-anchor="middle" x="477" y="-878.3" font-family="Times,serif" font-size="14.00">^</text>
</g>
<!-- T1_1521083627&#45;&#45;^_1770642014 -->
<g id="edge54" class="edge">
<title>T1_1521083627&#45;&#45;^_1770642014</title>
<path fill="none" stroke="black" d="M504.65,-936.76C498.83,-925.46 491.11,-910.44 485.3,-899.15"/>
</g>
<!-- F_945591847 -->
<g id="node56" class="node">
<title>F_945591847</title>
<ellipse fill="none" stroke="black" cx="549" cy="-882" rx="27" ry="18"/>
<text text-anchor="middle" x="549" y="-878.3" font-family="Times,serif" font-size="14.00">F</text>
</g>
<!-- T1_1521083627&#45;&#45;F_945591847 -->
<g id="edge55" class="edge">
<title>T1_1521083627&#45;&#45;F_945591847</title>
<path fill="none" stroke="black" d="M521.35,-936.76C527.17,-925.46 534.89,-910.44 540.7,-899.15"/>
</g>
<!-- T1_116405378 -->
<g id="node74" class="node">
<title>T1_116405378</title>
<ellipse fill="none" stroke="black" cx="621" cy="-882" rx="27" ry="18"/>
<text text-anchor="middle" x="621" y="-878.3" font-family="Times,serif" font-size="14.00">T1</text>
</g>
<!-- T1_1521083627&#45;&#45;T1_116405378 -->
<g id="edge73" class="edge">
<title>T1_1521083627&#45;&#45;T1_116405378</title>
<path fill="none" stroke="black" d="M531.81,-940.81C551.63,-927.96 582.66,-907.85 602.4,-895.05"/>
</g>
<!-- G_328827614 -->
<g id="node57" class="node">
<title>G_328827614</title>
<ellipse fill="none" stroke="black" cx="477" cy="-810" rx="27" ry="18"/>
<text text-anchor="middle" x="477" y="-806.3" font-family="Times,serif" font-size="14.00">G</text>
</g>
<!-- F_945591847&#45;&#45;G_328827614 -->
<g id="edge56" class="edge">
<title>F_945591847&#45;&#45;G_328827614</title>
<path fill="none" stroke="black" d="M534.43,-866.83C522.02,-854.77 504.27,-837.51 491.8,-825.38"/>
</g>
<!-- F1_511707818 -->
<g id="node72" class="node">
<title>F1_511707818</title>
<ellipse fill="none" stroke="black" cx="549" cy="-810" rx="27" ry="18"/>
<text text-anchor="middle" x="549" y="-806.3" font-family="Times,serif" font-size="14.00">F1</text>
</g>
<!-- F_945591847&#45;&#45;F1_511707818 -->
<g id="edge71" class="edge">
<title>F_945591847&#45;&#45;F1_511707818</title>
<path fill="none" stroke="black" d="M549,-863.7C549,-852.85 549,-838.92 549,-828.1"/>
</g>
<!-- H_109228794 -->
<g id="node58" class="node">
<title>H_109228794</title>
<ellipse fill="none" stroke="black" cx="477" cy="-738" rx="27" ry="18"/>
<text text-anchor="middle" x="477" y="-734.3" font-family="Times,serif" font-size="14.00">H</text>
</g>
<!-- G_328827614&#45;&#45;H_109228794 -->
<g id="edge57" class="edge">
<title>G_328827614&#45;&#45;H_109228794</title>
<path fill="none" stroke="black" d="M477,-791.7C477,-780.85 477,-766.92 477,-756.1"/>
</g>
<!-- v_561959774 -->
<g id="node59" class="node">
<title>v_561959774</title>
<ellipse fill="none" stroke="black" cx="441" cy="-666" rx="27" ry="18"/>
<text text-anchor="middle" x="441" y="-662.3" font-family="Times,serif" font-size="14.00">v</text>
</g>
<!-- H_109228794&#45;&#45;v_561959774 -->
<g id="edge58" class="edge">
<title>H_109228794&#45;&#45;v_561959774</title>
<path fill="none" stroke="black" d="M468.65,-720.76C462.83,-709.46 455.11,-694.44 449.3,-683.15"/>
</g>
<!-- E_2110756088 -->
<g id="node60" class="node">
<title>E_2110756088</title>
<ellipse fill="none" stroke="black" cx="513" cy="-666" rx="27" ry="18"/>
<text text-anchor="middle" x="513" y="-662.3" font-family="Times,serif" font-size="14.00">E</text>
</g>
<!-- H_109228794&#45;&#45;E_2110756088 -->
<g id="edge59" class="edge">
<title>H_109228794&#45;&#45;E_2110756088</title>
<path fill="none" stroke="black" d="M485.35,-720.76C491.17,-709.46 498.89,-694.44 504.7,-683.15"/>
</g>
<!-- T_580871917 -->
<g id="node61" class="node">
<title>T_580871917</title>
<ellipse fill="none" stroke="black" cx="495" cy="-594" rx="27" ry="18"/>
<text text-anchor="middle" x="495" y="-590.3" font-family="Times,serif" font-size="14.00">T</text>
</g>
<!-- E_2110756088&#45;&#45;T_580871917 -->
<g id="edge60" class="edge">
<title>E_2110756088&#45;&#45;T_580871917</title>
<path fill="none" stroke="black" d="M508.64,-648.05C505.81,-637.05 502.14,-622.76 499.32,-611.79"/>
</g>
<!-- E1_1052195003 -->
<g id="node70" class="node">
<title>E1_1052195003</title>
<ellipse fill="none" stroke="black" cx="567" cy="-594" rx="27" ry="18"/>
<text text-anchor="middle" x="567" y="-590.3" font-family="Times,serif" font-size="14.00">E1</text>
</g>
<!-- E_2110756088&#45;&#45;E1_1052195003 -->
<g id="edge69" class="edge">
<title>E_2110756088&#45;&#45;E1_1052195003</title>
<path fill="none" stroke="black" d="M524.98,-649.46C533.93,-637.86 546.11,-622.08 555.05,-610.49"/>
</g>
<!-- F_823723302 -->
<g id="node62" class="node">
<title>F_823723302</title>
<ellipse fill="none" stroke="black" cx="423" cy="-522" rx="27" ry="18"/>
<text text-anchor="middle" x="423" y="-518.3" font-family="Times,serif" font-size="14.00">F</text>
</g>
<!-- T_580871917&#45;&#45;F_823723302 -->
<g id="edge61" class="edge">
<title>T_580871917&#45;&#45;F_823723302</title>
<path fill="none" stroke="black" d="M480.43,-578.83C468.02,-566.77 450.27,-549.51 437.8,-537.38"/>
</g>
<!-- T1_257513673 -->
<g id="node68" class="node">
<title>T1_257513673</title>
<ellipse fill="none" stroke="black" cx="495" cy="-522" rx="27" ry="18"/>
<text text-anchor="middle" x="495" y="-518.3" font-family="Times,serif" font-size="14.00">T1</text>
</g>
<!-- T_580871917&#45;&#45;T1_257513673 -->
<g id="edge67" class="edge">
<title>T_580871917&#45;&#45;T1_257513673</title>
<path fill="none" stroke="black" d="M495,-575.7C495,-564.85 495,-550.92 495,-540.1"/>
</g>
<!-- G_1714078840 -->
<g id="node63" class="node">
<title>G_1714078840</title>
<ellipse fill="none" stroke="black" cx="351" cy="-450" rx="27" ry="18"/>
<text text-anchor="middle" x="351" y="-446.3" font-family="Times,serif" font-size="14.00">G</text>
</g>
<!-- F_823723302&#45;&#45;G_1714078840 -->
<g id="edge62" class="edge">
<title>F_823723302&#45;&#45;G_1714078840</title>
<path fill="none" stroke="black" d="M408.43,-506.83C396.02,-494.77 378.27,-477.51 365.8,-465.38"/>
</g>
<!-- F1_1199262943 -->
<g id="node66" class="node">
<title>F1_1199262943</title>
<ellipse fill="none" stroke="black" cx="423" cy="-450" rx="27" ry="18"/>
<text text-anchor="middle" x="423" y="-446.3" font-family="Times,serif" font-size="14.00">F1</text>
</g>
<!-- F_823723302&#45;&#45;F1_1199262943 -->
<g id="edge65" class="edge">
<title>F_823723302&#45;&#45;F1_1199262943</title>
<path fill="none" stroke="black" d="M423,-503.7C423,-492.85 423,-478.92 423,-468.1"/>
</g>
<!-- H_1732502545 -->
<g id="node64" class="node">
<title>H_1732502545</title>
<ellipse fill="none" stroke="black" cx="351" cy="-378" rx="27" ry="18"/>
<text text-anchor="middle" x="351" y="-374.3" font-family="Times,serif" font-size="14.00">H</text>
</g>
<!-- G_1714078840&#45;&#45;H_1732502545 -->
<g id="edge63" class="edge">
<title>G_1714078840&#45;&#45;H_1732502545</title>
<path fill="none" stroke="black" d="M351,-431.7C351,-420.85 351,-406.92 351,-396.1"/>
</g>
<!-- eps_1051876890 -->
<g id="node65" class="node">
<title>eps_1051876890</title>
<ellipse fill="none" stroke="black" cx="351" cy="-306" rx="27" ry="18"/>
<text text-anchor="middle" x="351" y="-302.3" font-family="Times,serif" font-size="14.00">eps</text>
</g>
<!-- H_1732502545&#45;&#45;eps_1051876890 -->
<g id="edge64" class="edge">
<title>H_1732502545&#45;&#45;eps_1051876890</title>
<path fill="none" stroke="black" d="M351,-359.7C351,-348.85 351,-334.92 351,-324.1"/>
</g>
<!-- eps_2009221452 -->
<g id="node67" class="node">
<title>eps_2009221452</title>
<ellipse fill="none" stroke="black" cx="423" cy="-378" rx="27" ry="18"/>
<text text-anchor="middle" x="423" y="-374.3" font-family="Times,serif" font-size="14.00">eps</text>
</g>
<!-- F1_1199262943&#45;&#45;eps_2009221452 -->
<g id="edge66" class="edge">
<title>F1_1199262943&#45;&#45;eps_2009221452</title>
<path fill="none" stroke="black" d="M423,-431.7C423,-420.85 423,-406.92 423,-396.1"/>
</g>
<!-- eps_590845366 -->
<g id="node69" class="node">
<title>eps_590845366</title>
<ellipse fill="none" stroke="black" cx="495" cy="-450" rx="27" ry="18"/>
<text text-anchor="middle" x="495" y="-446.3" font-family="Times,serif" font-size="14.00">eps</text>
</g>
<!-- T1_257513673&#45;&#45;eps_590845366 -->
<g id="edge68" class="edge">
<title>T1_257513673&#45;&#45;eps_590845366</title>
<path fill="none" stroke="black" d="M495,-503.7C495,-492.85 495,-478.92 495,-468.1"/>
</g>
<!-- eps_1541049864 -->
<g id="node71" class="node">
<title>eps_1541049864</title>
<ellipse fill="none" stroke="black" cx="567" cy="-522" rx="27" ry="18"/>
<text text-anchor="middle" x="567" y="-518.3" font-family="Times,serif" font-size="14.00">eps</text>
</g>
<!-- E1_1052195003&#45;&#45;eps_1541049864 -->
<g id="edge70" class="edge">
<title>E1_1052195003&#45;&#45;eps_1541049864</title>
<path fill="none" stroke="black" d="M567,-575.7C567,-564.85 567,-550.92 567,-540.1"/>
</g>
<!-- eps_25536233 -->
<g id="node73" class="node">
<title>eps_25536233</title>
<ellipse fill="none" stroke="black" cx="549" cy="-738" rx="27" ry="18"/>
<text text-anchor="middle" x="549" y="-734.3" font-family="Times,serif" font-size="14.00">eps</text>
</g>
<!-- F1_511707818&#45;&#45;eps_25536233 -->
<g id="edge72" class="edge">
<title>F1_511707818&#45;&#45;eps_25536233</title>
<path fill="none" stroke="black" d="M549,-791.7C549,-780.85 549,-766.92 549,-756.1"/>
</g>
<!-- eps_164974746 -->
<g id="node75" class="node">
<title>eps_164974746</title>
<ellipse fill="none" stroke="black" cx="621" cy="-810" rx="27" ry="18"/>
<text text-anchor="middle" x="621" y="-806.3" font-family="Times,serif" font-size="14.00">eps</text>
</g>
<!-- T1_116405378&#45;&#45;eps_164974746 -->
<g id="edge74" class="edge">
<title>T1_116405378&#45;&#45;eps_164974746</title>
<path fill="none" stroke="black" d="M621,-863.7C621,-852.85 621,-838.92 621,-828.1"/>
</g>
<!-- eps_989892772 -->
<g id="node77" class="node">
<title>eps_989892772</title>
<ellipse fill="none" stroke="black" cx="585" cy="-954" rx="27" ry="18"/>
<text text-anchor="middle" x="585" y="-950.3" font-family="Times,serif" font-size="14.00">eps</text>
</g>
<!-- E1_396283472&#45;&#45;eps_989892772 -->
<g id="edge76" class="edge">
<title>E1_396283472&#45;&#45;eps_989892772</title>
<path fill="none" stroke="black" d="M585,-1007.7C585,-996.85 585,-982.92 585,-972.1"/>
</g>
<!-- eps_2125238280 -->
<g id="node80" class="node">
<title>eps_2125238280</title>
<ellipse fill="none" stroke="black" cx="621" cy="-1170" rx="27" ry="18"/>
<text text-anchor="middle" x="621" y="-1166.3" font-family="Times,serif" font-size="14.00">eps</text>
</g>
<!-- F1_530653666&#45;&#45;eps_2125238280 -->
<g id="edge79" class="edge">
<title>F1_530653666&#45;&#45;eps_2125238280</title>
<path fill="none" stroke="black" d="M621,-1223.7C621,-1212.85 621,-1198.92 621,-1188.1"/>
</g>
<!-- eps_1658699134 -->
<g id="node82" class="node">
<title>eps_1658699134</title>
<ellipse fill="none" stroke="black" cx="585" cy="-1314" rx="27" ry="18"/>
<text text-anchor="middle" x="585" y="-1310.3" font-family="Times,serif" font-size="14.00">eps</text>
</g>
<!-- T1_1092004553&#45;&#45;eps_1658699134 -->
<g id="edge81" class="edge">
<title>T1_1092004553&#45;&#45;eps_1658699134</title>
<path fill="none" stroke="black" d="M585,-1367.7C585,-1356.85 585,-1342.92 585,-1332.1"/>
</g>
<!-- eps_1859374258 -->
<g id="node84" class="node">
<title>eps_1859374258</title>
<ellipse fill="none" stroke="black" cx="657" cy="-1386" rx="27" ry="18"/>
<text text-anchor="middle" x="657" y="-1382.3" font-family="Times,serif" font-size="14.00">eps</text>
</g>
<!-- E1_1961176822&#45;&#45;eps_1859374258 -->
<g id="edge83" class="edge">
<title>E1_1961176822&#45;&#45;eps_1859374258</title>
<path fill="none" stroke="black" d="M657,-1439.7C657,-1428.85 657,-1414.92 657,-1404.1"/>
</g>
<!-- eps_366873404 -->
<g id="node86" class="node">
<title>eps_366873404</title>
<ellipse fill="none" stroke="black" cx="657" cy="-1602" rx="27" ry="18"/>
<text text-anchor="middle" x="657" y="-1598.3" font-family="Times,serif" font-size="14.00">eps</text>
</g>
<!-- F1_442987331&#45;&#45;eps_366873404 -->
<g id="edge85" class="edge">
<title>F1_442987331&#45;&#45;eps_366873404</title>
<path fill="none" stroke="black" d="M657,-1655.7C657,-1644.85 657,-1630.92 657,-1620.1"/>
</g>
<!-- eps_945288723 -->
<g id="node88" class="node">
<title>eps_945288723</title>
<ellipse fill="none" stroke="black" cx="729" cy="-1674" rx="27" ry="18"/>
<text text-anchor="middle" x="729" y="-1670.3" font-family="Times,serif" font-size="14.00">eps</text>
</g>
<!-- T1_1217467887&#45;&#45;eps_945288723 -->
<g id="edge87" class="edge">
<title>T1_1217467887&#45;&#45;eps_945288723</title>
<path fill="none" stroke="black" d="M729,-1727.7C729,-1716.85 729,-1702.92 729,-1692.1"/>
</g>
<!-- eps_2087258327 -->
<g id="node90" class="node">
<title>eps_2087258327</title>
<ellipse fill="none" stroke="black" cx="801" cy="-1746" rx="27" ry="18"/>
<text text-anchor="middle" x="801" y="-1742.3" font-family="Times,serif" font-size="14.00">eps</text>
</g>
<!-- E1_428566321&#45;&#45;eps_2087258327 -->
<g id="edge89" class="edge">
<title>E1_428566321&#45;&#45;eps_2087258327</title>
<path fill="none" stroke="black" d="M801,-1799.7C801,-1788.85 801,-1774.92 801,-1764.1"/>
</g>
</g>
</svg>
