<?xml version="1.0" encoding="UTF-8" standalone="no"?>
<!DOCTYPE svg PUBLIC "-//W3C//DTD SVG 1.1//EN"
 "http://www.w3.org/Graphics/SVG/1.1/DTD/svg11.dtd">
<!-- Generated by graphviz version 2.49.1 (20210923.0004)
 -->
<!-- Pages: 1 -->
<svg width="494pt" height="1772pt"
 viewBox="0.00 0.00 494.00 1772.00" xmlns="http://www.w3.org/2000/svg" xmlns:xlink="http://www.w3.org/1999/xlink">
<g id="graph0" class="graph" transform="scale(1 1) rotate(0) translate(4 1768)">
<polygon fill="white" stroke="transparent" points="-4,4 -4,-1768 490,-1768 490,4 -4,4"/>
<!-- E0_1016550616 -->
<g id="node1" class="node">
<title>E0_1016550616</title>
<ellipse fill="none" stroke="black" cx="423" cy="-1746" rx="27" ry="18"/>
<text text-anchor="middle" x="423" y="-1742.3" font-family="Times,serif" font-size="14.00">E0</text>
</g>
<!-- E_1006094903 -->
<g id="node2" class="node">
<title>E_1006094903</title>
<ellipse fill="none" stroke="black" cx="423" cy="-1674" rx="27" ry="18"/>
<text text-anchor="middle" x="423" y="-1670.3" font-family="Times,serif" font-size="14.00">E</text>
</g>
<!-- E0_1016550616&#45;&#45;E_1006094903 -->
<g id="edge1" class="edge">
<title>E0_1016550616&#45;&#45;E_1006094903</title>
<path fill="none" stroke="black" d="M423,-1727.7C423,-1716.85 423,-1702.92 423,-1692.1"/>
</g>
<!-- T_2030538903 -->
<g id="node3" class="node">
<title>T_2030538903</title>
<ellipse fill="none" stroke="black" cx="387" cy="-1602" rx="27" ry="18"/>
<text text-anchor="middle" x="387" y="-1598.3" font-family="Times,serif" font-size="14.00">T</text>
</g>
<!-- E_1006094903&#45;&#45;T_2030538903 -->
<g id="edge2" class="edge">
<title>E_1006094903&#45;&#45;T_2030538903</title>
<path fill="none" stroke="black" d="M414.65,-1656.76C408.83,-1645.46 401.11,-1630.44 395.3,-1619.15"/>
</g>
<!-- E1_1867139015 -->
<g id="node68" class="node">
<title>E1_1867139015</title>
<ellipse fill="none" stroke="black" cx="459" cy="-1602" rx="27" ry="18"/>
<text text-anchor="middle" x="459" y="-1598.3" font-family="Times,serif" font-size="14.00">E1</text>
</g>
<!-- E_1006094903&#45;&#45;E1_1867139015 -->
<g id="edge67" class="edge">
<title>E_1006094903&#45;&#45;E1_1867139015</title>
<path fill="none" stroke="black" d="M431.35,-1656.76C437.17,-1645.46 444.89,-1630.44 450.7,-1619.15"/>
</g>
<!-- F_1293680848 -->
<g id="node4" class="node">
<title>F_1293680848</title>
<ellipse fill="none" stroke="black" cx="315" cy="-1530" rx="27" ry="18"/>
<text text-anchor="middle" x="315" y="-1526.3" font-family="Times,serif" font-size="14.00">F</text>
</g>
<!-- T_2030538903&#45;&#45;F_1293680848 -->
<g id="edge3" class="edge">
<title>T_2030538903&#45;&#45;F_1293680848</title>
<path fill="none" stroke="black" d="M372.43,-1586.83C360.02,-1574.77 342.27,-1557.51 329.8,-1545.38"/>
</g>
<!-- T1_537066525 -->
<g id="node66" class="node">
<title>T1_537066525</title>
<ellipse fill="none" stroke="black" cx="387" cy="-1530" rx="27" ry="18"/>
<text text-anchor="middle" x="387" y="-1526.3" font-family="Times,serif" font-size="14.00">T1</text>
</g>
<!-- T_2030538903&#45;&#45;T1_537066525 -->
<g id="edge65" class="edge">
<title>T_2030538903&#45;&#45;T1_537066525</title>
<path fill="none" stroke="black" d="M387,-1583.7C387,-1572.85 387,-1558.92 387,-1548.1"/>
</g>
<!-- G_1261153343 -->
<g id="node5" class="node">
<title>G_1261153343</title>
<ellipse fill="none" stroke="black" cx="243" cy="-1458" rx="27" ry="18"/>
<text text-anchor="middle" x="243" y="-1454.3" font-family="Times,serif" font-size="14.00">G</text>
</g>
<!-- F_1293680848&#45;&#45;G_1261153343 -->
<g id="edge4" class="edge">
<title>F_1293680848&#45;&#45;G_1261153343</title>
<path fill="none" stroke="black" d="M300.43,-1514.83C288.02,-1502.77 270.27,-1485.51 257.8,-1473.38"/>
</g>
<!-- F1_2151717 -->
<g id="node64" class="node">
<title>F1_2151717</title>
<ellipse fill="none" stroke="black" cx="315" cy="-1458" rx="27" ry="18"/>
<text text-anchor="middle" x="315" y="-1454.3" font-family="Times,serif" font-size="14.00">F1</text>
</g>
<!-- F_1293680848&#45;&#45;F1_2151717 -->
<g id="edge63" class="edge">
<title>F_1293680848&#45;&#45;F1_2151717</title>
<path fill="none" stroke="black" d="M315,-1511.7C315,-1500.85 315,-1486.92 315,-1476.1"/>
</g>
<!-- H_1309176095 -->
<g id="node6" class="node">
<title>H_1309176095</title>
<ellipse fill="none" stroke="black" cx="243" cy="-1386" rx="27" ry="18"/>
<text text-anchor="middle" x="243" y="-1382.3" font-family="Times,serif" font-size="14.00">H</text>
</g>
<!-- G_1261153343&#45;&#45;H_1309176095 -->
<g id="edge5" class="edge">
<title>G_1261153343&#45;&#45;H_1309176095</title>
<path fill="none" stroke="black" d="M243,-1439.7C243,-1428.85 243,-1414.92 243,-1404.1"/>
</g>
<!-- v_198099809 -->
<g id="node7" class="node">
<title>v_198099809</title>
<ellipse fill="none" stroke="black" cx="207" cy="-1314" rx="27" ry="18"/>
<text text-anchor="middle" x="207" y="-1310.3" font-family="Times,serif" font-size="14.00">v</text>
</g>
<!-- H_1309176095&#45;&#45;v_198099809 -->
<g id="edge6" class="edge">
<title>H_1309176095&#45;&#45;v_198099809</title>
<path fill="none" stroke="black" d="M234.65,-1368.76C228.83,-1357.46 221.11,-1342.44 215.3,-1331.15"/>
</g>
<!-- E_645482568 -->
<g id="node8" class="node">
<title>E_645482568</title>
<ellipse fill="none" stroke="black" cx="279" cy="-1314" rx="27" ry="18"/>
<text text-anchor="middle" x="279" y="-1310.3" font-family="Times,serif" font-size="14.00">E</text>
</g>
<!-- H_1309176095&#45;&#45;E_645482568 -->
<g id="edge7" class="edge">
<title>H_1309176095&#45;&#45;E_645482568</title>
<path fill="none" stroke="black" d="M251.35,-1368.76C257.17,-1357.46 264.89,-1342.44 270.7,-1331.15"/>
</g>
<!-- T_807752428 -->
<g id="node9" class="node">
<title>T_807752428</title>
<ellipse fill="none" stroke="black" cx="243" cy="-1242" rx="27" ry="18"/>
<text text-anchor="middle" x="243" y="-1238.3" font-family="Times,serif" font-size="14.00">T</text>
</g>
<!-- E_645482568&#45;&#45;T_807752428 -->
<g id="edge8" class="edge">
<title>E_645482568&#45;&#45;T_807752428</title>
<path fill="none" stroke="black" d="M270.65,-1296.76C264.83,-1285.46 257.11,-1270.44 251.3,-1259.15"/>
</g>
<!-- E1_16503286 -->
<g id="node18" class="node">
<title>E1_16503286</title>
<ellipse fill="none" stroke="black" cx="315" cy="-1242" rx="27" ry="18"/>
<text text-anchor="middle" x="315" y="-1238.3" font-family="Times,serif" font-size="14.00">E1</text>
</g>
<!-- E_645482568&#45;&#45;E1_16503286 -->
<g id="edge17" class="edge">
<title>E_645482568&#45;&#45;E1_16503286</title>
<path fill="none" stroke="black" d="M287.35,-1296.76C293.17,-1285.46 300.89,-1270.44 306.7,-1259.15"/>
</g>
<!-- F_1026055550 -->
<g id="node10" class="node">
<title>F_1026055550</title>
<ellipse fill="none" stroke="black" cx="171" cy="-1170" rx="27" ry="18"/>
<text text-anchor="middle" x="171" y="-1166.3" font-family="Times,serif" font-size="14.00">F</text>
</g>
<!-- T_807752428&#45;&#45;F_1026055550 -->
<g id="edge9" class="edge">
<title>T_807752428&#45;&#45;F_1026055550</title>
<path fill="none" stroke="black" d="M228.43,-1226.83C216.02,-1214.77 198.27,-1197.51 185.8,-1185.38"/>
</g>
<!-- T1_471579726 -->
<g id="node16" class="node">
<title>T1_471579726</title>
<ellipse fill="none" stroke="black" cx="243" cy="-1170" rx="27" ry="18"/>
<text text-anchor="middle" x="243" y="-1166.3" font-family="Times,serif" font-size="14.00">T1</text>
</g>
<!-- T_807752428&#45;&#45;T1_471579726 -->
<g id="edge15" class="edge">
<title>T_807752428&#45;&#45;T1_471579726</title>
<path fill="none" stroke="black" d="M243,-1223.7C243,-1212.85 243,-1198.92 243,-1188.1"/>
</g>
<!-- G_1073763441 -->
<g id="node11" class="node">
<title>G_1073763441</title>
<ellipse fill="none" stroke="black" cx="99" cy="-1098" rx="27" ry="18"/>
<text text-anchor="middle" x="99" y="-1094.3" font-family="Times,serif" font-size="14.00">G</text>
</g>
<!-- F_1026055550&#45;&#45;G_1073763441 -->
<g id="edge10" class="edge">
<title>F_1026055550&#45;&#45;G_1073763441</title>
<path fill="none" stroke="black" d="M156.43,-1154.83C144.02,-1142.77 126.27,-1125.51 113.8,-1113.38"/>
</g>
<!-- F1_1229161065 -->
<g id="node14" class="node">
<title>F1_1229161065</title>
<ellipse fill="none" stroke="black" cx="171" cy="-1098" rx="27" ry="18"/>
<text text-anchor="middle" x="171" y="-1094.3" font-family="Times,serif" font-size="14.00">F1</text>
</g>
<!-- F_1026055550&#45;&#45;F1_1229161065 -->
<g id="edge13" class="edge">
<title>F_1026055550&#45;&#45;F1_1229161065</title>
<path fill="none" stroke="black" d="M171,-1151.7C171,-1140.85 171,-1126.92 171,-1116.1"/>
</g>
<!-- H_752316209 -->
<g id="node12" class="node">
<title>H_752316209</title>
<ellipse fill="none" stroke="black" cx="99" cy="-1026" rx="27" ry="18"/>
<text text-anchor="middle" x="99" y="-1022.3" font-family="Times,serif" font-size="14.00">H</text>
</g>
<!-- G_1073763441&#45;&#45;H_752316209 -->
<g id="edge11" class="edge">
<title>G_1073763441&#45;&#45;H_752316209</title>
<path fill="none" stroke="black" d="M99,-1079.7C99,-1068.85 99,-1054.92 99,-1044.1"/>
</g>
<!-- eps_914356853 -->
<g id="node13" class="node">
<title>eps_914356853</title>
<ellipse fill="none" stroke="black" cx="99" cy="-954" rx="27" ry="18"/>
<text text-anchor="middle" x="99" y="-950.3" font-family="Times,serif" font-size="14.00">eps</text>
</g>
<!-- H_752316209&#45;&#45;eps_914356853 -->
<g id="edge12" class="edge">
<title>H_752316209&#45;&#45;eps_914356853</title>
<path fill="none" stroke="black" d="M99,-1007.7C99,-996.85 99,-982.92 99,-972.1"/>
</g>
<!-- eps_195228908 -->
<g id="node15" class="node">
<title>eps_195228908</title>
<ellipse fill="none" stroke="black" cx="171" cy="-1026" rx="27" ry="18"/>
<text text-anchor="middle" x="171" y="-1022.3" font-family="Times,serif" font-size="14.00">eps</text>
</g>
<!-- F1_1229161065&#45;&#45;eps_195228908 -->
<g id="edge14" class="edge">
<title>F1_1229161065&#45;&#45;eps_195228908</title>
<path fill="none" stroke="black" d="M171,-1079.7C171,-1068.85 171,-1054.92 171,-1044.1"/>
</g>
<!-- eps_1442726378 -->
<g id="node17" class="node">
<title>eps_1442726378</title>
<ellipse fill="none" stroke="black" cx="243" cy="-1098" rx="27" ry="18"/>
<text text-anchor="middle" x="243" y="-1094.3" font-family="Times,serif" font-size="14.00">eps</text>
</g>
<!-- T1_471579726&#45;&#45;eps_1442726378 -->
<g id="edge16" class="edge">
<title>T1_471579726&#45;&#45;eps_1442726378</title>
<path fill="none" stroke="black" d="M243,-1151.7C243,-1140.85 243,-1126.92 243,-1116.1"/>
</g>
<!-- |_484589713 -->
<g id="node19" class="node">
<title>|_484589713</title>
<ellipse fill="none" stroke="black" cx="315" cy="-1170" rx="27" ry="18"/>
<text text-anchor="middle" x="315" y="-1166.3" font-family="Times,serif" font-size="14.00">|</text>
</g>
<!-- E1_16503286&#45;&#45;|_484589713 -->
<g id="edge18" class="edge">
<title>E1_16503286&#45;&#45;|_484589713</title>
<path fill="none" stroke="black" d="M315,-1223.7C315,-1212.85 315,-1198.92 315,-1188.1"/>
</g>
<!-- E_1574598287 -->
<g id="node20" class="node">
<title>E_1574598287</title>
<ellipse fill="none" stroke="black" cx="387" cy="-1170" rx="27" ry="18"/>
<text text-anchor="middle" x="387" y="-1166.3" font-family="Times,serif" font-size="14.00">E</text>
</g>
<!-- E1_16503286&#45;&#45;E_1574598287 -->
<g id="edge19" class="edge">
<title>E1_16503286&#45;&#45;E_1574598287</title>
<path fill="none" stroke="black" d="M329.57,-1226.83C341.98,-1214.77 359.73,-1197.51 372.2,-1185.38"/>
</g>
<!-- T_2056031695 -->
<g id="node21" class="node">
<title>T_2056031695</title>
<ellipse fill="none" stroke="black" cx="351" cy="-1098" rx="27" ry="18"/>
<text text-anchor="middle" x="351" y="-1094.3" font-family="Times,serif" font-size="14.00">T</text>
</g>
<!-- E_1574598287&#45;&#45;T_2056031695 -->
<g id="edge20" class="edge">
<title>E_1574598287&#45;&#45;T_2056031695</title>
<path fill="none" stroke="black" d="M378.65,-1152.76C372.83,-1141.46 365.11,-1126.44 359.3,-1115.15"/>
</g>
<!-- E1_936292831 -->
<g id="node62" class="node">
<title>E1_936292831</title>
<ellipse fill="none" stroke="black" cx="423" cy="-1098" rx="27" ry="18"/>
<text text-anchor="middle" x="423" y="-1094.3" font-family="Times,serif" font-size="14.00">E1</text>
</g>
<!-- E_1574598287&#45;&#45;E1_936292831 -->
<g id="edge61" class="edge">
<title>E_1574598287&#45;&#45;E1_936292831</title>
<path fill="none" stroke="black" d="M395.35,-1152.76C401.17,-1141.46 408.89,-1126.44 414.7,-1115.15"/>
</g>
<!-- F_606508809 -->
<g id="node22" class="node">
<title>F_606508809</title>
<ellipse fill="none" stroke="black" cx="279" cy="-1026" rx="27" ry="18"/>
<text text-anchor="middle" x="279" y="-1022.3" font-family="Times,serif" font-size="14.00">F</text>
</g>
<!-- T_2056031695&#45;&#45;F_606508809 -->
<g id="edge21" class="edge">
<title>T_2056031695&#45;&#45;F_606508809</title>
<path fill="none" stroke="black" d="M336.43,-1082.83C324.02,-1070.77 306.27,-1053.51 293.8,-1041.38"/>
</g>
<!-- T1_590646109 -->
<g id="node60" class="node">
<title>T1_590646109</title>
<ellipse fill="none" stroke="black" cx="351" cy="-1026" rx="27" ry="18"/>
<text text-anchor="middle" x="351" y="-1022.3" font-family="Times,serif" font-size="14.00">T1</text>
</g>
<!-- T_2056031695&#45;&#45;T1_590646109 -->
<g id="edge59" class="edge">
<title>T_2056031695&#45;&#45;T1_590646109</title>
<path fill="none" stroke="black" d="M351,-1079.7C351,-1068.85 351,-1054.92 351,-1044.1"/>
</g>
<!-- G_718187988 -->
<g id="node23" class="node">
<title>G_718187988</title>
<ellipse fill="none" stroke="black" cx="207" cy="-954" rx="27" ry="18"/>
<text text-anchor="middle" x="207" y="-950.3" font-family="Times,serif" font-size="14.00">G</text>
</g>
<!-- F_606508809&#45;&#45;G_718187988 -->
<g id="edge22" class="edge">
<title>F_606508809&#45;&#45;G_718187988</title>
<path fill="none" stroke="black" d="M264.43,-1010.83C252.02,-998.77 234.27,-981.51 221.8,-969.38"/>
</g>
<!-- F1_951050903 -->
<g id="node58" class="node">
<title>F1_951050903</title>
<ellipse fill="none" stroke="black" cx="279" cy="-954" rx="27" ry="18"/>
<text text-anchor="middle" x="279" y="-950.3" font-family="Times,serif" font-size="14.00">F1</text>
</g>
<!-- F_606508809&#45;&#45;F1_951050903 -->
<g id="edge57" class="edge">
<title>F_606508809&#45;&#45;F1_951050903</title>
<path fill="none" stroke="black" d="M279,-1007.7C279,-996.85 279,-982.92 279,-972.1"/>
</g>
<!-- H_615438348 -->
<g id="node24" class="node">
<title>H_615438348</title>
<ellipse fill="none" stroke="black" cx="207" cy="-882" rx="27" ry="18"/>
<text text-anchor="middle" x="207" y="-878.3" font-family="Times,serif" font-size="14.00">H</text>
</g>
<!-- G_718187988&#45;&#45;H_615438348 -->
<g id="edge23" class="edge">
<title>G_718187988&#45;&#45;H_615438348</title>
<path fill="none" stroke="black" d="M207,-935.7C207,-924.85 207,-910.92 207,-900.1"/>
</g>
<!-- v_978508707 -->
<g id="node25" class="node">
<title>v_978508707</title>
<ellipse fill="none" stroke="black" cx="171" cy="-810" rx="27" ry="18"/>
<text text-anchor="middle" x="171" y="-806.3" font-family="Times,serif" font-size="14.00">v</text>
</g>
<!-- H_615438348&#45;&#45;v_978508707 -->
<g id="edge24" class="edge">
<title>H_615438348&#45;&#45;v_978508707</title>
<path fill="none" stroke="black" d="M198.65,-864.76C192.83,-853.46 185.11,-838.44 179.3,-827.15"/>
</g>
<!-- E_710708543 -->
<g id="node26" class="node">
<title>E_710708543</title>
<ellipse fill="none" stroke="black" cx="243" cy="-810" rx="27" ry="18"/>
<text text-anchor="middle" x="243" y="-806.3" font-family="Times,serif" font-size="14.00">E</text>
</g>
<!-- H_615438348&#45;&#45;E_710708543 -->
<g id="edge25" class="edge">
<title>H_615438348&#45;&#45;E_710708543</title>
<path fill="none" stroke="black" d="M215.35,-864.76C221.17,-853.46 228.89,-838.44 234.7,-827.15"/>
</g>
<!-- T_1965237677 -->
<g id="node27" class="node">
<title>T_1965237677</title>
<ellipse fill="none" stroke="black" cx="207" cy="-738" rx="27" ry="18"/>
<text text-anchor="middle" x="207" y="-734.3" font-family="Times,serif" font-size="14.00">T</text>
</g>
<!-- E_710708543&#45;&#45;T_1965237677 -->
<g id="edge26" class="edge">
<title>E_710708543&#45;&#45;T_1965237677</title>
<path fill="none" stroke="black" d="M234.65,-792.76C228.83,-781.46 221.11,-766.44 215.3,-755.15"/>
</g>
<!-- E1_20049680 -->
<g id="node56" class="node">
<title>E1_20049680</title>
<ellipse fill="none" stroke="black" cx="279" cy="-738" rx="27" ry="18"/>
<text text-anchor="middle" x="279" y="-734.3" font-family="Times,serif" font-size="14.00">E1</text>
</g>
<!-- E_710708543&#45;&#45;E1_20049680 -->
<g id="edge55" class="edge">
<title>E_710708543&#45;&#45;E1_20049680</title>
<path fill="none" stroke="black" d="M251.35,-792.76C257.17,-781.46 264.89,-766.44 270.7,-755.15"/>
</g>
<!-- F_664792509 -->
<g id="node28" class="node">
<title>F_664792509</title>
<ellipse fill="none" stroke="black" cx="99" cy="-666" rx="27" ry="18"/>
<text text-anchor="middle" x="99" y="-662.3" font-family="Times,serif" font-size="14.00">F</text>
</g>
<!-- T_1965237677&#45;&#45;F_664792509 -->
<g id="edge27" class="edge">
<title>T_1965237677&#45;&#45;F_664792509</title>
<path fill="none" stroke="black" d="M188.19,-724.81C168.37,-711.96 137.34,-691.85 117.6,-679.05"/>
</g>
<!-- T1_1709804316 -->
<g id="node34" class="node">
<title>T1_1709804316</title>
<ellipse fill="none" stroke="black" cx="207" cy="-666" rx="27" ry="18"/>
<text text-anchor="middle" x="207" y="-662.3" font-family="Times,serif" font-size="14.00">T1</text>
</g>
<!-- T_1965237677&#45;&#45;T1_1709804316 -->
<g id="edge33" class="edge">
<title>T_1965237677&#45;&#45;T1_1709804316</title>
<path fill="none" stroke="black" d="M207,-719.7C207,-708.85 207,-694.92 207,-684.1"/>
</g>
<!-- G_188523822 -->
<g id="node29" class="node">
<title>G_188523822</title>
<ellipse fill="none" stroke="black" cx="27" cy="-594" rx="27" ry="18"/>
<text text-anchor="middle" x="27" y="-590.3" font-family="Times,serif" font-size="14.00">G</text>
</g>
<!-- F_664792509&#45;&#45;G_188523822 -->
<g id="edge28" class="edge">
<title>F_664792509&#45;&#45;G_188523822</title>
<path fill="none" stroke="black" d="M84.43,-650.83C72.02,-638.77 54.27,-621.51 41.8,-609.38"/>
</g>
<!-- F1_1896828359 -->
<g id="node32" class="node">
<title>F1_1896828359</title>
<ellipse fill="none" stroke="black" cx="99" cy="-594" rx="27" ry="18"/>
<text text-anchor="middle" x="99" y="-590.3" font-family="Times,serif" font-size="14.00">F1</text>
</g>
<!-- F_664792509&#45;&#45;F1_1896828359 -->
<g id="edge31" class="edge">
<title>F_664792509&#45;&#45;F1_1896828359</title>
<path fill="none" stroke="black" d="M99,-647.7C99,-636.85 99,-622.92 99,-612.1"/>
</g>
<!-- H_1170727939 -->
<g id="node30" class="node">
<title>H_1170727939</title>
<ellipse fill="none" stroke="black" cx="27" cy="-522" rx="27" ry="18"/>
<text text-anchor="middle" x="27" y="-518.3" font-family="Times,serif" font-size="14.00">H</text>
</g>
<!-- G_188523822&#45;&#45;H_1170727939 -->
<g id="edge29" class="edge">
<title>G_188523822&#45;&#45;H_1170727939</title>
<path fill="none" stroke="black" d="M27,-575.7C27,-564.85 27,-550.92 27,-540.1"/>
</g>
<!-- eps_690339675 -->
<g id="node31" class="node">
<title>eps_690339675</title>
<ellipse fill="none" stroke="black" cx="27" cy="-450" rx="27" ry="18"/>
<text text-anchor="middle" x="27" y="-446.3" font-family="Times,serif" font-size="14.00">eps</text>
</g>
<!-- H_1170727939&#45;&#45;eps_690339675 -->
<g id="edge30" class="edge">
<title>H_1170727939&#45;&#45;eps_690339675</title>
<path fill="none" stroke="black" d="M27,-503.7C27,-492.85 27,-478.92 27,-468.1"/>
</g>
<!-- eps_536122141 -->
<g id="node33" class="node">
<title>eps_536122141</title>
<ellipse fill="none" stroke="black" cx="99" cy="-522" rx="27" ry="18"/>
<text text-anchor="middle" x="99" y="-518.3" font-family="Times,serif" font-size="14.00">eps</text>
</g>
<!-- F1_1896828359&#45;&#45;eps_536122141 -->
<g id="edge32" class="edge">
<title>F1_1896828359&#45;&#45;eps_536122141</title>
<path fill="none" stroke="black" d="M99,-575.7C99,-564.85 99,-550.92 99,-540.1"/>
</g>
<!-- ^_1630678941 -->
<g id="node35" class="node">
<title>^_1630678941</title>
<ellipse fill="none" stroke="black" cx="171" cy="-594" rx="27" ry="18"/>
<text text-anchor="middle" x="171" y="-590.3" font-family="Times,serif" font-size="14.00">^</text>
</g>
<!-- T1_1709804316&#45;&#45;^_1630678941 -->
<g id="edge34" class="edge">
<title>T1_1709804316&#45;&#45;^_1630678941</title>
<path fill="none" stroke="black" d="M198.65,-648.76C192.83,-637.46 185.11,-622.44 179.3,-611.15"/>
</g>
<!-- F_1792550665 -->
<g id="node36" class="node">
<title>F_1792550665</title>
<ellipse fill="none" stroke="black" cx="243" cy="-594" rx="27" ry="18"/>
<text text-anchor="middle" x="243" y="-590.3" font-family="Times,serif" font-size="14.00">F</text>
</g>
<!-- T1_1709804316&#45;&#45;F_1792550665 -->
<g id="edge35" class="edge">
<title>T1_1709804316&#45;&#45;F_1792550665</title>
<path fill="none" stroke="black" d="M215.35,-648.76C221.17,-637.46 228.89,-622.44 234.7,-611.15"/>
</g>
<!-- T1_1816147548 -->
<g id="node54" class="node">
<title>T1_1816147548</title>
<ellipse fill="none" stroke="black" cx="315" cy="-594" rx="27" ry="18"/>
<text text-anchor="middle" x="315" y="-590.3" font-family="Times,serif" font-size="14.00">T1</text>
</g>
<!-- T1_1709804316&#45;&#45;T1_1816147548 -->
<g id="edge53" class="edge">
<title>T1_1709804316&#45;&#45;T1_1816147548</title>
<path fill="none" stroke="black" d="M225.81,-652.81C245.63,-639.96 276.66,-619.85 296.4,-607.05"/>
</g>
<!-- G_1359953204 -->
<g id="node37" class="node">
<title>G_1359953204</title>
<ellipse fill="none" stroke="black" cx="171" cy="-522" rx="27" ry="18"/>
<text text-anchor="middle" x="171" y="-518.3" font-family="Times,serif" font-size="14.00">G</text>
</g>
<!-- F_1792550665&#45;&#45;G_1359953204 -->
<g id="edge36" class="edge">
<title>F_1792550665&#45;&#45;G_1359953204</title>
<path fill="none" stroke="black" d="M228.43,-578.83C216.02,-566.77 198.27,-549.51 185.8,-537.38"/>
</g>
<!-- F1_2012330741 -->
<g id="node52" class="node">
<title>F1_2012330741</title>
<ellipse fill="none" stroke="black" cx="243" cy="-522" rx="27" ry="18"/>
<text text-anchor="middle" x="243" y="-518.3" font-family="Times,serif" font-size="14.00">F1</text>
</g>
<!-- F_1792550665&#45;&#45;F1_2012330741 -->
<g id="edge51" class="edge">
<title>F_1792550665&#45;&#45;F1_2012330741</title>
<path fill="none" stroke="black" d="M243,-575.7C243,-564.85 243,-550.92 243,-540.1"/>
</g>
<!-- H_2014838114 -->
<g id="node38" class="node">
<title>H_2014838114</title>
<ellipse fill="none" stroke="black" cx="171" cy="-450" rx="27" ry="18"/>
<text text-anchor="middle" x="171" y="-446.3" font-family="Times,serif" font-size="14.00">H</text>
</g>
<!-- G_1359953204&#45;&#45;H_2014838114 -->
<g id="edge37" class="edge">
<title>G_1359953204&#45;&#45;H_2014838114</title>
<path fill="none" stroke="black" d="M171,-503.7C171,-492.85 171,-478.92 171,-468.1"/>
</g>
<!-- v_136936250 -->
<g id="node39" class="node">
<title>v_136936250</title>
<ellipse fill="none" stroke="black" cx="135" cy="-378" rx="27" ry="18"/>
<text text-anchor="middle" x="135" y="-374.3" font-family="Times,serif" font-size="14.00">v</text>
</g>
<!-- H_2014838114&#45;&#45;v_136936250 -->
<g id="edge38" class="edge">
<title>H_2014838114&#45;&#45;v_136936250</title>
<path fill="none" stroke="black" d="M162.65,-432.76C156.83,-421.46 149.11,-406.44 143.3,-395.15"/>
</g>
<!-- E_593687897 -->
<g id="node40" class="node">
<title>E_593687897</title>
<ellipse fill="none" stroke="black" cx="207" cy="-378" rx="27" ry="18"/>
<text text-anchor="middle" x="207" y="-374.3" font-family="Times,serif" font-size="14.00">E</text>
</g>
<!-- H_2014838114&#45;&#45;E_593687897 -->
<g id="edge39" class="edge">
<title>H_2014838114&#45;&#45;E_593687897</title>
<path fill="none" stroke="black" d="M179.35,-432.76C185.17,-421.46 192.89,-406.44 198.7,-395.15"/>
</g>
<!-- T_187472540 -->
<g id="node41" class="node">
<title>T_187472540</title>
<ellipse fill="none" stroke="black" cx="171" cy="-306" rx="27" ry="18"/>
<text text-anchor="middle" x="171" y="-302.3" font-family="Times,serif" font-size="14.00">T</text>
</g>
<!-- E_593687897&#45;&#45;T_187472540 -->
<g id="edge40" class="edge">
<title>E_593687897&#45;&#45;T_187472540</title>
<path fill="none" stroke="black" d="M198.65,-360.76C192.83,-349.46 185.11,-334.44 179.3,-323.15"/>
</g>
<!-- E1_607207372 -->
<g id="node50" class="node">
<title>E1_607207372</title>
<ellipse fill="none" stroke="black" cx="243" cy="-306" rx="27" ry="18"/>
<text text-anchor="middle" x="243" y="-302.3" font-family="Times,serif" font-size="14.00">E1</text>
</g>
<!-- E_593687897&#45;&#45;E1_607207372 -->
<g id="edge49" class="edge">
<title>E_593687897&#45;&#45;E1_607207372</title>
<path fill="none" stroke="black" d="M215.35,-360.76C221.17,-349.46 228.89,-334.44 234.7,-323.15"/>
</g>
<!-- F_1276611190 -->
<g id="node42" class="node">
<title>F_1276611190</title>
<ellipse fill="none" stroke="black" cx="99" cy="-234" rx="27" ry="18"/>
<text text-anchor="middle" x="99" y="-230.3" font-family="Times,serif" font-size="14.00">F</text>
</g>
<!-- T_187472540&#45;&#45;F_1276611190 -->
<g id="edge41" class="edge">
<title>T_187472540&#45;&#45;F_1276611190</title>
<path fill="none" stroke="black" d="M156.43,-290.83C144.02,-278.77 126.27,-261.51 113.8,-249.38"/>
</g>
<!-- T1_2003891312 -->
<g id="node48" class="node">
<title>T1_2003891312</title>
<ellipse fill="none" stroke="black" cx="171" cy="-234" rx="27" ry="18"/>
<text text-anchor="middle" x="171" y="-230.3" font-family="Times,serif" font-size="14.00">T1</text>
</g>
<!-- T_187472540&#45;&#45;T1_2003891312 -->
<g id="edge47" class="edge">
<title>T_187472540&#45;&#45;T1_2003891312</title>
<path fill="none" stroke="black" d="M171,-287.7C171,-276.85 171,-262.92 171,-252.1"/>
</g>
<!-- G_262457445 -->
<g id="node43" class="node">
<title>G_262457445</title>
<ellipse fill="none" stroke="black" cx="27" cy="-162" rx="27" ry="18"/>
<text text-anchor="middle" x="27" y="-158.3" font-family="Times,serif" font-size="14.00">G</text>
</g>
<!-- F_1276611190&#45;&#45;G_262457445 -->
<g id="edge42" class="edge">
<title>F_1276611190&#45;&#45;G_262457445</title>
<path fill="none" stroke="black" d="M84.43,-218.83C72.02,-206.77 54.27,-189.51 41.8,-177.38"/>
</g>
<!-- F1_612097453 -->
<g id="node46" class="node">
<title>F1_612097453</title>
<ellipse fill="none" stroke="black" cx="99" cy="-162" rx="27" ry="18"/>
<text text-anchor="middle" x="99" y="-158.3" font-family="Times,serif" font-size="14.00">F1</text>
</g>
<!-- F_1276611190&#45;&#45;F1_612097453 -->
<g id="edge45" class="edge">
<title>F_1276611190&#45;&#45;F1_612097453</title>
<path fill="none" stroke="black" d="M99,-215.7C99,-204.85 99,-190.92 99,-180.1"/>
</g>
<!-- H_1004023029 -->
<g id="node44" class="node">
<title>H_1004023029</title>
<ellipse fill="none" stroke="black" cx="27" cy="-90" rx="27" ry="18"/>
<text text-anchor="middle" x="27" y="-86.3" font-family="Times,serif" font-size="14.00">H</text>
</g>
<!-- G_262457445&#45;&#45;H_1004023029 -->
<g id="edge43" class="edge">
<title>G_262457445&#45;&#45;H_1004023029</title>
<path fill="none" stroke="black" d="M27,-143.7C27,-132.85 27,-118.92 27,-108.1"/>
</g>
<!-- eps_1414506856 -->
<g id="node45" class="node">
<title>eps_1414506856</title>
<ellipse fill="none" stroke="black" cx="27" cy="-18" rx="27" ry="18"/>
<text text-anchor="middle" x="27" y="-14.3" font-family="Times,serif" font-size="14.00">eps</text>
</g>
<!-- H_1004023029&#45;&#45;eps_1414506856 -->
<g id="edge44" class="edge">
<title>H_1004023029&#45;&#45;eps_1414506856</title>
<path fill="none" stroke="black" d="M27,-71.7C27,-60.85 27,-46.92 27,-36.1"/>
</g>
<!-- eps_221634215 -->
<g id="node47" class="node">
<title>eps_221634215</title>
<ellipse fill="none" stroke="black" cx="99" cy="-90" rx="27" ry="18"/>
<text text-anchor="middle" x="99" y="-86.3" font-family="Times,serif" font-size="14.00">eps</text>
</g>
<!-- F1_612097453&#45;&#45;eps_221634215 -->
<g id="edge46" class="edge">
<title>F1_612097453&#45;&#45;eps_221634215</title>
<path fill="none" stroke="black" d="M99,-143.7C99,-132.85 99,-118.92 99,-108.1"/>
</g>
<!-- eps_1583159071 -->
<g id="node49" class="node">
<title>eps_1583159071</title>
<ellipse fill="none" stroke="black" cx="171" cy="-162" rx="27" ry="18"/>
<text text-anchor="middle" x="171" y="-158.3" font-family="Times,serif" font-size="14.00">eps</text>
</g>
<!-- T1_2003891312&#45;&#45;eps_1583159071 -->
<g id="edge48" class="edge">
<title>T1_2003891312&#45;&#45;eps_1583159071</title>
<path fill="none" stroke="black" d="M171,-215.7C171,-204.85 171,-190.92 171,-180.1"/>
</g>
<!-- eps_131206411 -->
<g id="node51" class="node">
<title>eps_131206411</title>
<ellipse fill="none" stroke="black" cx="243" cy="-234" rx="27" ry="18"/>
<text text-anchor="middle" x="243" y="-230.3" font-family="Times,serif" font-size="14.00">eps</text>
</g>
<!-- E1_607207372&#45;&#45;eps_131206411 -->
<g id="edge50" class="edge">
<title>E1_607207372&#45;&#45;eps_131206411</title>
<path fill="none" stroke="black" d="M243,-287.7C243,-276.85 243,-262.92 243,-252.1"/>
</g>
<!-- eps_1101184763 -->
<g id="node53" class="node">
<title>eps_1101184763</title>
<ellipse fill="none" stroke="black" cx="243" cy="-450" rx="27" ry="18"/>
<text text-anchor="middle" x="243" y="-446.3" font-family="Times,serif" font-size="14.00">eps</text>
</g>
<!-- F1_2012330741&#45;&#45;eps_1101184763 -->
<g id="edge52" class="edge">
<title>F1_2012330741&#45;&#45;eps_1101184763</title>
<path fill="none" stroke="black" d="M243,-503.7C243,-492.85 243,-478.92 243,-468.1"/>
</g>
<!-- eps_2079179914 -->
<g id="node55" class="node">
<title>eps_2079179914</title>
<ellipse fill="none" stroke="black" cx="315" cy="-522" rx="27" ry="18"/>
<text text-anchor="middle" x="315" y="-518.3" font-family="Times,serif" font-size="14.00">eps</text>
</g>
<!-- T1_1816147548&#45;&#45;eps_2079179914 -->
<g id="edge54" class="edge">
<title>T1_1816147548&#45;&#45;eps_2079179914</title>
<path fill="none" stroke="black" d="M315,-575.7C315,-564.85 315,-550.92 315,-540.1"/>
</g>
<!-- eps_1437654187 -->
<g id="node57" class="node">
<title>eps_1437654187</title>
<ellipse fill="none" stroke="black" cx="279" cy="-666" rx="27" ry="18"/>
<text text-anchor="middle" x="279" y="-662.3" font-family="Times,serif" font-size="14.00">eps</text>
</g>
<!-- E1_20049680&#45;&#45;eps_1437654187 -->
<g id="edge56" class="edge">
<title>E1_20049680&#45;&#45;eps_1437654187</title>
<path fill="none" stroke="black" d="M279,-719.7C279,-708.85 279,-694.92 279,-684.1"/>
</g>
<!-- eps_770947228 -->
<g id="node59" class="node">
<title>eps_770947228</title>
<ellipse fill="none" stroke="black" cx="279" cy="-882" rx="27" ry="18"/>
<text text-anchor="middle" x="279" y="-878.3" font-family="Times,serif" font-size="14.00">eps</text>
</g>
<!-- F1_951050903&#45;&#45;eps_770947228 -->
<g id="edge58" class="edge">
<title>F1_951050903&#45;&#45;eps_770947228</title>
<path fill="none" stroke="black" d="M279,-935.7C279,-924.85 279,-910.92 279,-900.1"/>
</g>
<!-- eps_1882349076 -->
<g id="node61" class="node">
<title>eps_1882349076</title>
<ellipse fill="none" stroke="black" cx="351" cy="-954" rx="27" ry="18"/>
<text text-anchor="middle" x="351" y="-950.3" font-family="Times,serif" font-size="14.00">eps</text>
</g>
<!-- T1_590646109&#45;&#45;eps_1882349076 -->
<g id="edge60" class="edge">
<title>T1_590646109&#45;&#45;eps_1882349076</title>
<path fill="none" stroke="black" d="M351,-1007.7C351,-996.85 351,-982.92 351,-972.1"/>
</g>
<!-- eps_130668770 -->
<g id="node63" class="node">
<title>eps_130668770</title>
<ellipse fill="none" stroke="black" cx="423" cy="-1026" rx="27" ry="18"/>
<text text-anchor="middle" x="423" y="-1022.3" font-family="Times,serif" font-size="14.00">eps</text>
</g>
<!-- E1_936292831&#45;&#45;eps_130668770 -->
<g id="edge62" class="edge">
<title>E1_936292831&#45;&#45;eps_130668770</title>
<path fill="none" stroke="black" d="M423,-1079.7C423,-1068.85 423,-1054.92 423,-1044.1"/>
</g>
<!-- eps_1644231115 -->
<g id="node65" class="node">
<title>eps_1644231115</title>
<ellipse fill="none" stroke="black" cx="315" cy="-1386" rx="27" ry="18"/>
<text text-anchor="middle" x="315" y="-1382.3" font-family="Times,serif" font-size="14.00">eps</text>
</g>
<!-- F1_2151717&#45;&#45;eps_1644231115 -->
<g id="edge64" class="edge">
<title>F1_2151717&#45;&#45;eps_1644231115</title>
<path fill="none" stroke="black" d="M315,-1439.7C315,-1428.85 315,-1414.92 315,-1404.1"/>
</g>
<!-- eps_1766145591 -->
<g id="node67" class="node">
<title>eps_1766145591</title>
<ellipse fill="none" stroke="black" cx="387" cy="-1458" rx="27" ry="18"/>
<text text-anchor="middle" x="387" y="-1454.3" font-family="Times,serif" font-size="14.00">eps</text>
</g>
<!-- T1_537066525&#45;&#45;eps_1766145591 -->
<g id="edge66" class="edge">
<title>T1_537066525&#45;&#45;eps_1766145591</title>
<path fill="none" stroke="black" d="M387,-1511.7C387,-1500.85 387,-1486.92 387,-1476.1"/>
</g>
<!-- eps_182531396 -->
<g id="node69" class="node">
<title>eps_182531396</title>
<ellipse fill="none" stroke="black" cx="459" cy="-1530" rx="27" ry="18"/>
<text text-anchor="middle" x="459" y="-1526.3" font-family="Times,serif" font-size="14.00">eps</text>
</g>
<!-- E1_1867139015&#45;&#45;eps_182531396 -->
<g id="edge68" class="edge">
<title>E1_1867139015&#45;&#45;eps_182531396</title>
<path fill="none" stroke="black" d="M459,-1583.7C459,-1572.85 459,-1558.92 459,-1548.1"/>
</g>
</g>
</svg>
