<?xml version="1.0" encoding="UTF-8" standalone="no"?>
<!DOCTYPE svg PUBLIC "-//W3C//DTD SVG 1.1//EN"
 "http://www.w3.org/Graphics/SVG/1.1/DTD/svg11.dtd">
<!-- Generated by graphviz version 2.49.1 (20210923.0004)
 -->
<!-- Pages: 1 -->
<svg width="494pt" height="1772pt"
 viewBox="0.00 0.00 494.00 1772.00" xmlns="http://www.w3.org/2000/svg" xmlns:xlink="http://www.w3.org/1999/xlink">
<g id="graph0" class="graph" transform="scale(1 1) rotate(0) translate(4 1768)">
<polygon fill="white" stroke="transparent" points="-4,4 -4,-1768 490,-1768 490,4 -4,4"/>
<!-- E0_403147759 -->
<g id="node1" class="node">
<title>E0_403147759</title>
<ellipse fill="none" stroke="black" cx="423" cy="-1746" rx="27" ry="18"/>
<text text-anchor="middle" x="423" y="-1742.3" font-family="Times,serif" font-size="14.00">E0</text>
</g>
<!-- E_2040467681 -->
<g id="node2" class="node">
<title>E_2040467681</title>
<ellipse fill="none" stroke="black" cx="423" cy="-1674" rx="27" ry="18"/>
<text text-anchor="middle" x="423" y="-1670.3" font-family="Times,serif" font-size="14.00">E</text>
</g>
<!-- E0_403147759&#45;&#45;E_2040467681 -->
<g id="edge1" class="edge">
<title>E0_403147759&#45;&#45;E_2040467681</title>
<path fill="none" stroke="black" d="M423,-1727.7C423,-1716.85 423,-1702.92 423,-1692.1"/>
</g>
<!-- T_1278677872 -->
<g id="node3" class="node">
<title>T_1278677872</title>
<ellipse fill="none" stroke="black" cx="387" cy="-1602" rx="27" ry="18"/>
<text text-anchor="middle" x="387" y="-1598.3" font-family="Times,serif" font-size="14.00">T</text>
</g>
<!-- E_2040467681&#45;&#45;T_1278677872 -->
<g id="edge2" class="edge">
<title>E_2040467681&#45;&#45;T_1278677872</title>
<path fill="none" stroke="black" d="M414.65,-1656.76C408.83,-1645.46 401.11,-1630.44 395.3,-1619.15"/>
</g>
<!-- E1_1092572064 -->
<g id="node65" class="node">
<title>E1_1092572064</title>
<ellipse fill="none" stroke="black" cx="459" cy="-1602" rx="27" ry="18"/>
<text text-anchor="middle" x="459" y="-1598.3" font-family="Times,serif" font-size="14.00">E1</text>
</g>
<!-- E_2040467681&#45;&#45;E1_1092572064 -->
<g id="edge64" class="edge">
<title>E_2040467681&#45;&#45;E1_1092572064</title>
<path fill="none" stroke="black" d="M431.35,-1656.76C437.17,-1645.46 444.89,-1630.44 450.7,-1619.15"/>
</g>
<!-- F_341796579 -->
<g id="node4" class="node">
<title>F_341796579</title>
<ellipse fill="none" stroke="black" cx="315" cy="-1530" rx="27" ry="18"/>
<text text-anchor="middle" x="315" y="-1526.3" font-family="Times,serif" font-size="14.00">F</text>
</g>
<!-- T_1278677872&#45;&#45;F_341796579 -->
<g id="edge3" class="edge">
<title>T_1278677872&#45;&#45;F_341796579</title>
<path fill="none" stroke="black" d="M372.43,-1586.83C360.02,-1574.77 342.27,-1557.51 329.8,-1545.38"/>
</g>
<!-- T1_1362728240 -->
<g id="node63" class="node">
<title>T1_1362728240</title>
<ellipse fill="none" stroke="black" cx="387" cy="-1530" rx="27" ry="18"/>
<text text-anchor="middle" x="387" y="-1526.3" font-family="Times,serif" font-size="14.00">T1</text>
</g>
<!-- T_1278677872&#45;&#45;T1_1362728240 -->
<g id="edge62" class="edge">
<title>T_1278677872&#45;&#45;T1_1362728240</title>
<path fill="none" stroke="black" d="M387,-1583.7C387,-1572.85 387,-1558.92 387,-1548.1"/>
</g>
<!-- G_807657332 -->
<g id="node5" class="node">
<title>G_807657332</title>
<ellipse fill="none" stroke="black" cx="243" cy="-1458" rx="27" ry="18"/>
<text text-anchor="middle" x="243" y="-1454.3" font-family="Times,serif" font-size="14.00">G</text>
</g>
<!-- F_341796579&#45;&#45;G_807657332 -->
<g id="edge4" class="edge">
<title>F_341796579&#45;&#45;G_807657332</title>
<path fill="none" stroke="black" d="M300.43,-1514.83C288.02,-1502.77 270.27,-1485.51 257.8,-1473.38"/>
</g>
<!-- F1_1578009262 -->
<g id="node61" class="node">
<title>F1_1578009262</title>
<ellipse fill="none" stroke="black" cx="315" cy="-1458" rx="27" ry="18"/>
<text text-anchor="middle" x="315" y="-1454.3" font-family="Times,serif" font-size="14.00">F1</text>
</g>
<!-- F_341796579&#45;&#45;F1_1578009262 -->
<g id="edge60" class="edge">
<title>F_341796579&#45;&#45;F1_1578009262</title>
<path fill="none" stroke="black" d="M315,-1511.7C315,-1500.85 315,-1486.92 315,-1476.1"/>
</g>
<!-- H_825936265 -->
<g id="node6" class="node">
<title>H_825936265</title>
<ellipse fill="none" stroke="black" cx="243" cy="-1386" rx="27" ry="18"/>
<text text-anchor="middle" x="243" y="-1382.3" font-family="Times,serif" font-size="14.00">H</text>
</g>
<!-- G_807657332&#45;&#45;H_825936265 -->
<g id="edge5" class="edge">
<title>G_807657332&#45;&#45;H_825936265</title>
<path fill="none" stroke="black" d="M243,-1439.7C243,-1428.85 243,-1414.92 243,-1404.1"/>
</g>
<!-- v_1164107853 -->
<g id="node7" class="node">
<title>v_1164107853</title>
<ellipse fill="none" stroke="black" cx="207" cy="-1314" rx="27" ry="18"/>
<text text-anchor="middle" x="207" y="-1310.3" font-family="Times,serif" font-size="14.00">v</text>
</g>
<!-- H_825936265&#45;&#45;v_1164107853 -->
<g id="edge6" class="edge">
<title>H_825936265&#45;&#45;v_1164107853</title>
<path fill="none" stroke="black" d="M234.65,-1368.76C228.83,-1357.46 221.11,-1342.44 215.3,-1331.15"/>
</g>
<!-- E_711327356 -->
<g id="node8" class="node">
<title>E_711327356</title>
<ellipse fill="none" stroke="black" cx="279" cy="-1314" rx="27" ry="18"/>
<text text-anchor="middle" x="279" y="-1310.3" font-family="Times,serif" font-size="14.00">E</text>
</g>
<!-- H_825936265&#45;&#45;E_711327356 -->
<g id="edge7" class="edge">
<title>H_825936265&#45;&#45;E_711327356</title>
<path fill="none" stroke="black" d="M251.35,-1368.76C257.17,-1357.46 264.89,-1342.44 270.7,-1331.15"/>
</g>
<!-- T_68377659 -->
<g id="node9" class="node">
<title>T_68377659</title>
<ellipse fill="none" stroke="black" cx="243" cy="-1242" rx="27" ry="18"/>
<text text-anchor="middle" x="243" y="-1238.3" font-family="Times,serif" font-size="14.00">T</text>
</g>
<!-- E_711327356&#45;&#45;T_68377659 -->
<g id="edge8" class="edge">
<title>E_711327356&#45;&#45;T_68377659</title>
<path fill="none" stroke="black" d="M270.65,-1296.76C264.83,-1285.46 257.11,-1270.44 251.3,-1259.15"/>
</g>
<!-- E1_2093010349 -->
<g id="node18" class="node">
<title>E1_2093010349</title>
<ellipse fill="none" stroke="black" cx="315" cy="-1242" rx="27" ry="18"/>
<text text-anchor="middle" x="315" y="-1238.3" font-family="Times,serif" font-size="14.00">E1</text>
</g>
<!-- E_711327356&#45;&#45;E1_2093010349 -->
<g id="edge17" class="edge">
<title>E_711327356&#45;&#45;E1_2093010349</title>
<path fill="none" stroke="black" d="M287.35,-1296.76C293.17,-1285.46 300.89,-1270.44 306.7,-1259.15"/>
</g>
<!-- F_1661123505 -->
<g id="node10" class="node">
<title>F_1661123505</title>
<ellipse fill="none" stroke="black" cx="171" cy="-1170" rx="27" ry="18"/>
<text text-anchor="middle" x="171" y="-1166.3" font-family="Times,serif" font-size="14.00">F</text>
</g>
<!-- T_68377659&#45;&#45;F_1661123505 -->
<g id="edge9" class="edge">
<title>T_68377659&#45;&#45;F_1661123505</title>
<path fill="none" stroke="black" d="M228.43,-1226.83C216.02,-1214.77 198.27,-1197.51 185.8,-1185.38"/>
</g>
<!-- T1_1168019749 -->
<g id="node16" class="node">
<title>T1_1168019749</title>
<ellipse fill="none" stroke="black" cx="243" cy="-1170" rx="27" ry="18"/>
<text text-anchor="middle" x="243" y="-1166.3" font-family="Times,serif" font-size="14.00">T1</text>
</g>
<!-- T_68377659&#45;&#45;T1_1168019749 -->
<g id="edge15" class="edge">
<title>T_68377659&#45;&#45;T1_1168019749</title>
<path fill="none" stroke="black" d="M243,-1223.7C243,-1212.85 243,-1198.92 243,-1188.1"/>
</g>
<!-- G_825249556 -->
<g id="node11" class="node">
<title>G_825249556</title>
<ellipse fill="none" stroke="black" cx="99" cy="-1098" rx="27" ry="18"/>
<text text-anchor="middle" x="99" y="-1094.3" font-family="Times,serif" font-size="14.00">G</text>
</g>
<!-- F_1661123505&#45;&#45;G_825249556 -->
<g id="edge10" class="edge">
<title>F_1661123505&#45;&#45;G_825249556</title>
<path fill="none" stroke="black" d="M156.43,-1154.83C144.02,-1142.77 126.27,-1125.51 113.8,-1113.38"/>
</g>
<!-- F1_1550207152 -->
<g id="node14" class="node">
<title>F1_1550207152</title>
<ellipse fill="none" stroke="black" cx="171" cy="-1098" rx="27" ry="18"/>
<text text-anchor="middle" x="171" y="-1094.3" font-family="Times,serif" font-size="14.00">F1</text>
</g>
<!-- F_1661123505&#45;&#45;F1_1550207152 -->
<g id="edge13" class="edge">
<title>F_1661123505&#45;&#45;F1_1550207152</title>
<path fill="none" stroke="black" d="M171,-1151.7C171,-1140.85 171,-1126.92 171,-1116.1"/>
</g>
<!-- H_883151184 -->
<g id="node12" class="node">
<title>H_883151184</title>
<ellipse fill="none" stroke="black" cx="99" cy="-1026" rx="27" ry="18"/>
<text text-anchor="middle" x="99" y="-1022.3" font-family="Times,serif" font-size="14.00">H</text>
</g>
<!-- G_825249556&#45;&#45;H_883151184 -->
<g id="edge11" class="edge">
<title>G_825249556&#45;&#45;H_883151184</title>
<path fill="none" stroke="black" d="M99,-1079.7C99,-1068.85 99,-1054.92 99,-1044.1"/>
</g>
<!-- eps_709865851 -->
<g id="node13" class="node">
<title>eps_709865851</title>
<ellipse fill="none" stroke="black" cx="99" cy="-954" rx="27" ry="18"/>
<text text-anchor="middle" x="99" y="-950.3" font-family="Times,serif" font-size="14.00">eps</text>
</g>
<!-- H_883151184&#45;&#45;eps_709865851 -->
<g id="edge12" class="edge">
<title>H_883151184&#45;&#45;eps_709865851</title>
<path fill="none" stroke="black" d="M99,-1007.7C99,-996.85 99,-982.92 99,-972.1"/>
</g>
<!-- eps_1864230087 -->
<g id="node15" class="node">
<title>eps_1864230087</title>
<ellipse fill="none" stroke="black" cx="171" cy="-1026" rx="27" ry="18"/>
<text text-anchor="middle" x="171" y="-1022.3" font-family="Times,serif" font-size="14.00">eps</text>
</g>
<!-- F1_1550207152&#45;&#45;eps_1864230087 -->
<g id="edge14" class="edge">
<title>F1_1550207152&#45;&#45;eps_1864230087</title>
<path fill="none" stroke="black" d="M171,-1079.7C171,-1068.85 171,-1054.92 171,-1044.1"/>
</g>
<!-- eps_311239812 -->
<g id="node17" class="node">
<title>eps_311239812</title>
<ellipse fill="none" stroke="black" cx="243" cy="-1098" rx="27" ry="18"/>
<text text-anchor="middle" x="243" y="-1094.3" font-family="Times,serif" font-size="14.00">eps</text>
</g>
<!-- T1_1168019749&#45;&#45;eps_311239812 -->
<g id="edge16" class="edge">
<title>T1_1168019749&#45;&#45;eps_311239812</title>
<path fill="none" stroke="black" d="M243,-1151.7C243,-1140.85 243,-1126.92 243,-1116.1"/>
</g>
<!-- |_2088445230 -->
<g id="node19" class="node">
<title>|_2088445230</title>
<ellipse fill="none" stroke="black" cx="315" cy="-1170" rx="27" ry="18"/>
<text text-anchor="middle" x="315" y="-1166.3" font-family="Times,serif" font-size="14.00">|</text>
</g>
<!-- E1_2093010349&#45;&#45;|_2088445230 -->
<g id="edge18" class="edge">
<title>E1_2093010349&#45;&#45;|_2088445230</title>
<path fill="none" stroke="black" d="M315,-1223.7C315,-1212.85 315,-1198.92 315,-1188.1"/>
</g>
<!-- E_1297978429 -->
<g id="node20" class="node">
<title>E_1297978429</title>
<ellipse fill="none" stroke="black" cx="387" cy="-1170" rx="27" ry="18"/>
<text text-anchor="middle" x="387" y="-1166.3" font-family="Times,serif" font-size="14.00">E</text>
</g>
<!-- E1_2093010349&#45;&#45;E_1297978429 -->
<g id="edge19" class="edge">
<title>E1_2093010349&#45;&#45;E_1297978429</title>
<path fill="none" stroke="black" d="M329.57,-1226.83C341.98,-1214.77 359.73,-1197.51 372.2,-1185.38"/>
</g>
<!-- T_915349526 -->
<g id="node21" class="node">
<title>T_915349526</title>
<ellipse fill="none" stroke="black" cx="351" cy="-1098" rx="27" ry="18"/>
<text text-anchor="middle" x="351" y="-1094.3" font-family="Times,serif" font-size="14.00">T</text>
</g>
<!-- E_1297978429&#45;&#45;T_915349526 -->
<g id="edge20" class="edge">
<title>E_1297978429&#45;&#45;T_915349526</title>
<path fill="none" stroke="black" d="M378.65,-1152.76C372.83,-1141.46 365.11,-1126.44 359.3,-1115.15"/>
</g>
<!-- E1_758348212 -->
<g id="node59" class="node">
<title>E1_758348212</title>
<ellipse fill="none" stroke="black" cx="423" cy="-1098" rx="27" ry="18"/>
<text text-anchor="middle" x="423" y="-1094.3" font-family="Times,serif" font-size="14.00">E1</text>
</g>
<!-- E_1297978429&#45;&#45;E1_758348212 -->
<g id="edge58" class="edge">
<title>E_1297978429&#45;&#45;E1_758348212</title>
<path fill="none" stroke="black" d="M395.35,-1152.76C401.17,-1141.46 408.89,-1126.44 414.7,-1115.15"/>
</g>
<!-- F_1280851663 -->
<g id="node22" class="node">
<title>F_1280851663</title>
<ellipse fill="none" stroke="black" cx="279" cy="-1026" rx="27" ry="18"/>
<text text-anchor="middle" x="279" y="-1022.3" font-family="Times,serif" font-size="14.00">F</text>
</g>
<!-- T_915349526&#45;&#45;F_1280851663 -->
<g id="edge21" class="edge">
<title>T_915349526&#45;&#45;F_1280851663</title>
<path fill="none" stroke="black" d="M336.43,-1082.83C324.02,-1070.77 306.27,-1053.51 293.8,-1041.38"/>
</g>
<!-- T1_1948471365 -->
<g id="node57" class="node">
<title>T1_1948471365</title>
<ellipse fill="none" stroke="black" cx="351" cy="-1026" rx="27" ry="18"/>
<text text-anchor="middle" x="351" y="-1022.3" font-family="Times,serif" font-size="14.00">T1</text>
</g>
<!-- T_915349526&#45;&#45;T1_1948471365 -->
<g id="edge56" class="edge">
<title>T_915349526&#45;&#45;T1_1948471365</title>
<path fill="none" stroke="black" d="M351,-1079.7C351,-1068.85 351,-1054.92 351,-1044.1"/>
</g>
<!-- G_1764696127 -->
<g id="node23" class="node">
<title>G_1764696127</title>
<ellipse fill="none" stroke="black" cx="207" cy="-954" rx="27" ry="18"/>
<text text-anchor="middle" x="207" y="-950.3" font-family="Times,serif" font-size="14.00">G</text>
</g>
<!-- F_1280851663&#45;&#45;G_1764696127 -->
<g id="edge22" class="edge">
<title>F_1280851663&#45;&#45;G_1764696127</title>
<path fill="none" stroke="black" d="M264.43,-1010.83C252.02,-998.77 234.27,-981.51 221.8,-969.38"/>
</g>
<!-- F1_1144068272 -->
<g id="node55" class="node">
<title>F1_1144068272</title>
<ellipse fill="none" stroke="black" cx="279" cy="-954" rx="27" ry="18"/>
<text text-anchor="middle" x="279" y="-950.3" font-family="Times,serif" font-size="14.00">F1</text>
</g>
<!-- F_1280851663&#45;&#45;F1_1144068272 -->
<g id="edge54" class="edge">
<title>F_1280851663&#45;&#45;F1_1144068272</title>
<path fill="none" stroke="black" d="M279,-1007.7C279,-996.85 279,-982.92 279,-972.1"/>
</g>
<!-- H_1223867739 -->
<g id="node24" class="node">
<title>H_1223867739</title>
<ellipse fill="none" stroke="black" cx="207" cy="-882" rx="27" ry="18"/>
<text text-anchor="middle" x="207" y="-878.3" font-family="Times,serif" font-size="14.00">H</text>
</g>
<!-- G_1764696127&#45;&#45;H_1223867739 -->
<g id="edge23" class="edge">
<title>G_1764696127&#45;&#45;H_1223867739</title>
<path fill="none" stroke="black" d="M207,-935.7C207,-924.85 207,-910.92 207,-900.1"/>
</g>
<!-- v_129153987 -->
<g id="node25" class="node">
<title>v_129153987</title>
<ellipse fill="none" stroke="black" cx="171" cy="-810" rx="27" ry="18"/>
<text text-anchor="middle" x="171" y="-806.3" font-family="Times,serif" font-size="14.00">v</text>
</g>
<!-- H_1223867739&#45;&#45;v_129153987 -->
<g id="edge24" class="edge">
<title>H_1223867739&#45;&#45;v_129153987</title>
<path fill="none" stroke="black" d="M198.65,-864.76C192.83,-853.46 185.11,-838.44 179.3,-827.15"/>
</g>
<!-- E_168907708 -->
<g id="node26" class="node">
<title>E_168907708</title>
<ellipse fill="none" stroke="black" cx="243" cy="-810" rx="27" ry="18"/>
<text text-anchor="middle" x="243" y="-806.3" font-family="Times,serif" font-size="14.00">E</text>
</g>
<!-- H_1223867739&#45;&#45;E_168907708 -->
<g id="edge25" class="edge">
<title>H_1223867739&#45;&#45;E_168907708</title>
<path fill="none" stroke="black" d="M215.35,-864.76C221.17,-853.46 228.89,-838.44 234.7,-827.15"/>
</g>
<!-- T_447718425 -->
<g id="node27" class="node">
<title>T_447718425</title>
<ellipse fill="none" stroke="black" cx="207" cy="-738" rx="27" ry="18"/>
<text text-anchor="middle" x="207" y="-734.3" font-family="Times,serif" font-size="14.00">T</text>
</g>
<!-- E_168907708&#45;&#45;T_447718425 -->
<g id="edge26" class="edge">
<title>E_168907708&#45;&#45;T_447718425</title>
<path fill="none" stroke="black" d="M234.65,-792.76C228.83,-781.46 221.11,-766.44 215.3,-755.15"/>
</g>
<!-- E1_1671179293 -->
<g id="node53" class="node">
<title>E1_1671179293</title>
<ellipse fill="none" stroke="black" cx="279" cy="-738" rx="27" ry="18"/>
<text text-anchor="middle" x="279" y="-734.3" font-family="Times,serif" font-size="14.00">E1</text>
</g>
<!-- E_168907708&#45;&#45;E1_1671179293 -->
<g id="edge52" class="edge">
<title>E_168907708&#45;&#45;E1_1671179293</title>
<path fill="none" stroke="black" d="M251.35,-792.76C257.17,-781.46 264.89,-766.44 270.7,-755.15"/>
</g>
<!-- F_1206569586 -->
<g id="node28" class="node">
<title>F_1206569586</title>
<ellipse fill="none" stroke="black" cx="135" cy="-666" rx="27" ry="18"/>
<text text-anchor="middle" x="135" y="-662.3" font-family="Times,serif" font-size="14.00">F</text>
</g>
<!-- T_447718425&#45;&#45;F_1206569586 -->
<g id="edge27" class="edge">
<title>T_447718425&#45;&#45;F_1206569586</title>
<path fill="none" stroke="black" d="M192.43,-722.83C180.02,-710.77 162.27,-693.51 149.8,-681.38"/>
</g>
<!-- T1_869601985 -->
<g id="node51" class="node">
<title>T1_869601985</title>
<ellipse fill="none" stroke="black" cx="207" cy="-666" rx="27" ry="18"/>
<text text-anchor="middle" x="207" y="-662.3" font-family="Times,serif" font-size="14.00">T1</text>
</g>
<!-- T_447718425&#45;&#45;T1_869601985 -->
<g id="edge50" class="edge">
<title>T_447718425&#45;&#45;T1_869601985</title>
<path fill="none" stroke="black" d="M207,-719.7C207,-708.85 207,-694.92 207,-684.1"/>
</g>
<!-- G_1427381743 -->
<g id="node29" class="node">
<title>G_1427381743</title>
<ellipse fill="none" stroke="black" cx="27" cy="-594" rx="27" ry="18"/>
<text text-anchor="middle" x="27" y="-590.3" font-family="Times,serif" font-size="14.00">G</text>
</g>
<!-- F_1206569586&#45;&#45;G_1427381743 -->
<g id="edge28" class="edge">
<title>F_1206569586&#45;&#45;G_1427381743</title>
<path fill="none" stroke="black" d="M116.19,-652.81C96.37,-639.96 65.34,-619.85 45.6,-607.05"/>
</g>
<!-- F1_592983282 -->
<g id="node32" class="node">
<title>F1_592983282</title>
<ellipse fill="none" stroke="black" cx="135" cy="-594" rx="27" ry="18"/>
<text text-anchor="middle" x="135" y="-590.3" font-family="Times,serif" font-size="14.00">F1</text>
</g>
<!-- F_1206569586&#45;&#45;F1_592983282 -->
<g id="edge31" class="edge">
<title>F_1206569586&#45;&#45;F1_592983282</title>
<path fill="none" stroke="black" d="M135,-647.7C135,-636.85 135,-622.92 135,-612.1"/>
</g>
<!-- H_1427646530 -->
<g id="node30" class="node">
<title>H_1427646530</title>
<ellipse fill="none" stroke="black" cx="27" cy="-522" rx="27" ry="18"/>
<text text-anchor="middle" x="27" y="-518.3" font-family="Times,serif" font-size="14.00">H</text>
</g>
<!-- G_1427381743&#45;&#45;H_1427646530 -->
<g id="edge29" class="edge">
<title>G_1427381743&#45;&#45;H_1427646530</title>
<path fill="none" stroke="black" d="M27,-575.7C27,-564.85 27,-550.92 27,-540.1"/>
</g>
<!-- eps_846254484 -->
<g id="node31" class="node">
<title>eps_846254484</title>
<ellipse fill="none" stroke="black" cx="27" cy="-450" rx="27" ry="18"/>
<text text-anchor="middle" x="27" y="-446.3" font-family="Times,serif" font-size="14.00">eps</text>
</g>
<!-- H_1427646530&#45;&#45;eps_846254484 -->
<g id="edge30" class="edge">
<title>H_1427646530&#45;&#45;eps_846254484</title>
<path fill="none" stroke="black" d="M27,-503.7C27,-492.85 27,-478.92 27,-468.1"/>
</g>
<!-- &amp;_1448525331 -->
<g id="node33" class="node">
<title>&amp;_1448525331</title>
<ellipse fill="none" stroke="black" cx="99" cy="-522" rx="27" ry="18"/>
<text text-anchor="middle" x="99" y="-518.3" font-family="Times,serif" font-size="14.00">&amp;</text>
</g>
<!-- F1_592983282&#45;&#45;&amp;_1448525331 -->
<g id="edge32" class="edge">
<title>F1_592983282&#45;&#45;&amp;_1448525331</title>
<path fill="none" stroke="black" d="M126.65,-576.76C120.83,-565.46 113.11,-550.44 107.3,-539.15"/>
</g>
<!-- G_1108924067 -->
<g id="node34" class="node">
<title>G_1108924067</title>
<ellipse fill="none" stroke="black" cx="171" cy="-522" rx="27" ry="18"/>
<text text-anchor="middle" x="171" y="-518.3" font-family="Times,serif" font-size="14.00">G</text>
</g>
<!-- F1_592983282&#45;&#45;G_1108924067 -->
<g id="edge33" class="edge">
<title>F1_592983282&#45;&#45;G_1108924067</title>
<path fill="none" stroke="black" d="M143.35,-576.76C149.17,-565.46 156.89,-550.44 162.7,-539.15"/>
</g>
<!-- F1_898694235 -->
<g id="node49" class="node">
<title>F1_898694235</title>
<ellipse fill="none" stroke="black" cx="243" cy="-522" rx="27" ry="18"/>
<text text-anchor="middle" x="243" y="-518.3" font-family="Times,serif" font-size="14.00">F1</text>
</g>
<!-- F1_592983282&#45;&#45;F1_898694235 -->
<g id="edge48" class="edge">
<title>F1_592983282&#45;&#45;F1_898694235</title>
<path fill="none" stroke="black" d="M153.81,-580.81C173.63,-567.96 204.66,-547.85 224.4,-535.05"/>
</g>
<!-- H_1984975621 -->
<g id="node35" class="node">
<title>H_1984975621</title>
<ellipse fill="none" stroke="black" cx="171" cy="-450" rx="27" ry="18"/>
<text text-anchor="middle" x="171" y="-446.3" font-family="Times,serif" font-size="14.00">H</text>
</g>
<!-- G_1108924067&#45;&#45;H_1984975621 -->
<g id="edge34" class="edge">
<title>G_1108924067&#45;&#45;H_1984975621</title>
<path fill="none" stroke="black" d="M171,-503.7C171,-492.85 171,-478.92 171,-468.1"/>
</g>
<!-- v_348984985 -->
<g id="node36" class="node">
<title>v_348984985</title>
<ellipse fill="none" stroke="black" cx="135" cy="-378" rx="27" ry="18"/>
<text text-anchor="middle" x="135" y="-374.3" font-family="Times,serif" font-size="14.00">v</text>
</g>
<!-- H_1984975621&#45;&#45;v_348984985 -->
<g id="edge35" class="edge">
<title>H_1984975621&#45;&#45;v_348984985</title>
<path fill="none" stroke="black" d="M162.65,-432.76C156.83,-421.46 149.11,-406.44 143.3,-395.15"/>
</g>
<!-- E_2005435445 -->
<g id="node37" class="node">
<title>E_2005435445</title>
<ellipse fill="none" stroke="black" cx="207" cy="-378" rx="27" ry="18"/>
<text text-anchor="middle" x="207" y="-374.3" font-family="Times,serif" font-size="14.00">E</text>
</g>
<!-- H_1984975621&#45;&#45;E_2005435445 -->
<g id="edge36" class="edge">
<title>H_1984975621&#45;&#45;E_2005435445</title>
<path fill="none" stroke="black" d="M179.35,-432.76C185.17,-421.46 192.89,-406.44 198.7,-395.15"/>
</g>
<!-- T_1939990953 -->
<g id="node38" class="node">
<title>T_1939990953</title>
<ellipse fill="none" stroke="black" cx="171" cy="-306" rx="27" ry="18"/>
<text text-anchor="middle" x="171" y="-302.3" font-family="Times,serif" font-size="14.00">T</text>
</g>
<!-- E_2005435445&#45;&#45;T_1939990953 -->
<g id="edge37" class="edge">
<title>E_2005435445&#45;&#45;T_1939990953</title>
<path fill="none" stroke="black" d="M198.65,-360.76C192.83,-349.46 185.11,-334.44 179.3,-323.15"/>
</g>
<!-- E1_2020152163 -->
<g id="node47" class="node">
<title>E1_2020152163</title>
<ellipse fill="none" stroke="black" cx="243" cy="-306" rx="27" ry="18"/>
<text text-anchor="middle" x="243" y="-302.3" font-family="Times,serif" font-size="14.00">E1</text>
</g>
<!-- E_2005435445&#45;&#45;E1_2020152163 -->
<g id="edge46" class="edge">
<title>E_2005435445&#45;&#45;E1_2020152163</title>
<path fill="none" stroke="black" d="M215.35,-360.76C221.17,-349.46 228.89,-334.44 234.7,-323.15"/>
</g>
<!-- F_119358627 -->
<g id="node39" class="node">
<title>F_119358627</title>
<ellipse fill="none" stroke="black" cx="99" cy="-234" rx="27" ry="18"/>
<text text-anchor="middle" x="99" y="-230.3" font-family="Times,serif" font-size="14.00">F</text>
</g>
<!-- T_1939990953&#45;&#45;F_119358627 -->
<g id="edge38" class="edge">
<title>T_1939990953&#45;&#45;F_119358627</title>
<path fill="none" stroke="black" d="M156.43,-290.83C144.02,-278.77 126.27,-261.51 113.8,-249.38"/>
</g>
<!-- T1_1047087935 -->
<g id="node45" class="node">
<title>T1_1047087935</title>
<ellipse fill="none" stroke="black" cx="171" cy="-234" rx="27" ry="18"/>
<text text-anchor="middle" x="171" y="-230.3" font-family="Times,serif" font-size="14.00">T1</text>
</g>
<!-- T_1939990953&#45;&#45;T1_1047087935 -->
<g id="edge44" class="edge">
<title>T_1939990953&#45;&#45;T1_1047087935</title>
<path fill="none" stroke="black" d="M171,-287.7C171,-276.85 171,-262.92 171,-252.1"/>
</g>
<!-- G_2073621255 -->
<g id="node40" class="node">
<title>G_2073621255</title>
<ellipse fill="none" stroke="black" cx="27" cy="-162" rx="27" ry="18"/>
<text text-anchor="middle" x="27" y="-158.3" font-family="Times,serif" font-size="14.00">G</text>
</g>
<!-- F_119358627&#45;&#45;G_2073621255 -->
<g id="edge39" class="edge">
<title>F_119358627&#45;&#45;G_2073621255</title>
<path fill="none" stroke="black" d="M84.43,-218.83C72.02,-206.77 54.27,-189.51 41.8,-177.38"/>
</g>
<!-- F1_1497845528 -->
<g id="node43" class="node">
<title>F1_1497845528</title>
<ellipse fill="none" stroke="black" cx="99" cy="-162" rx="27" ry="18"/>
<text text-anchor="middle" x="99" y="-158.3" font-family="Times,serif" font-size="14.00">F1</text>
</g>
<!-- F_119358627&#45;&#45;F1_1497845528 -->
<g id="edge42" class="edge">
<title>F_119358627&#45;&#45;F1_1497845528</title>
<path fill="none" stroke="black" d="M99,-215.7C99,-204.85 99,-190.92 99,-180.1"/>
</g>
<!-- H_1208121709 -->
<g id="node41" class="node">
<title>H_1208121709</title>
<ellipse fill="none" stroke="black" cx="27" cy="-90" rx="27" ry="18"/>
<text text-anchor="middle" x="27" y="-86.3" font-family="Times,serif" font-size="14.00">H</text>
</g>
<!-- G_2073621255&#45;&#45;H_1208121709 -->
<g id="edge40" class="edge">
<title>G_2073621255&#45;&#45;H_1208121709</title>
<path fill="none" stroke="black" d="M27,-143.7C27,-132.85 27,-118.92 27,-108.1"/>
</g>
<!-- eps_873610597 -->
<g id="node42" class="node">
<title>eps_873610597</title>
<ellipse fill="none" stroke="black" cx="27" cy="-18" rx="27" ry="18"/>
<text text-anchor="middle" x="27" y="-14.3" font-family="Times,serif" font-size="14.00">eps</text>
</g>
<!-- H_1208121709&#45;&#45;eps_873610597 -->
<g id="edge41" class="edge">
<title>H_1208121709&#45;&#45;eps_873610597</title>
<path fill="none" stroke="black" d="M27,-71.7C27,-60.85 27,-46.92 27,-36.1"/>
</g>
<!-- eps_1710989308 -->
<g id="node44" class="node">
<title>eps_1710989308</title>
<ellipse fill="none" stroke="black" cx="99" cy="-90" rx="27" ry="18"/>
<text text-anchor="middle" x="99" y="-86.3" font-family="Times,serif" font-size="14.00">eps</text>
</g>
<!-- F1_1497845528&#45;&#45;eps_1710989308 -->
<g id="edge43" class="edge">
<title>F1_1497845528&#45;&#45;eps_1710989308</title>
<path fill="none" stroke="black" d="M99,-143.7C99,-132.85 99,-118.92 99,-108.1"/>
</g>
<!-- eps_464887938 -->
<g id="node46" class="node">
<title>eps_464887938</title>
<ellipse fill="none" stroke="black" cx="171" cy="-162" rx="27" ry="18"/>
<text text-anchor="middle" x="171" y="-158.3" font-family="Times,serif" font-size="14.00">eps</text>
</g>
<!-- T1_1047087935&#45;&#45;eps_464887938 -->
<g id="edge45" class="edge">
<title>T1_1047087935&#45;&#45;eps_464887938</title>
<path fill="none" stroke="black" d="M171,-215.7C171,-204.85 171,-190.92 171,-180.1"/>
</g>
<!-- eps_1104443373 -->
<g id="node48" class="node">
<title>eps_1104443373</title>
<ellipse fill="none" stroke="black" cx="243" cy="-234" rx="27" ry="18"/>
<text text-anchor="middle" x="243" y="-230.3" font-family="Times,serif" font-size="14.00">eps</text>
</g>
<!-- E1_2020152163&#45;&#45;eps_1104443373 -->
<g id="edge47" class="edge">
<title>E1_2020152163&#45;&#45;eps_1104443373</title>
<path fill="none" stroke="black" d="M243,-287.7C243,-276.85 243,-262.92 243,-252.1"/>
</g>
<!-- eps_60292059 -->
<g id="node50" class="node">
<title>eps_60292059</title>
<ellipse fill="none" stroke="black" cx="243" cy="-450" rx="27" ry="18"/>
<text text-anchor="middle" x="243" y="-446.3" font-family="Times,serif" font-size="14.00">eps</text>
</g>
<!-- F1_898694235&#45;&#45;eps_60292059 -->
<g id="edge49" class="edge">
<title>F1_898694235&#45;&#45;eps_60292059</title>
<path fill="none" stroke="black" d="M243,-503.7C243,-492.85 243,-478.92 243,-468.1"/>
</g>
<!-- eps_1365008457 -->
<g id="node52" class="node">
<title>eps_1365008457</title>
<ellipse fill="none" stroke="black" cx="207" cy="-594" rx="27" ry="18"/>
<text text-anchor="middle" x="207" y="-590.3" font-family="Times,serif" font-size="14.00">eps</text>
</g>
<!-- T1_869601985&#45;&#45;eps_1365008457 -->
<g id="edge51" class="edge">
<title>T1_869601985&#45;&#45;eps_1365008457</title>
<path fill="none" stroke="black" d="M207,-647.7C207,-636.85 207,-622.92 207,-612.1"/>
</g>
<!-- eps_1609124502 -->
<g id="node54" class="node">
<title>eps_1609124502</title>
<ellipse fill="none" stroke="black" cx="279" cy="-666" rx="27" ry="18"/>
<text text-anchor="middle" x="279" y="-662.3" font-family="Times,serif" font-size="14.00">eps</text>
</g>
<!-- E1_1671179293&#45;&#45;eps_1609124502 -->
<g id="edge53" class="edge">
<title>E1_1671179293&#45;&#45;eps_1609124502</title>
<path fill="none" stroke="black" d="M279,-719.7C279,-708.85 279,-694.92 279,-684.1"/>
</g>
<!-- eps_1985836631 -->
<g id="node56" class="node">
<title>eps_1985836631</title>
<ellipse fill="none" stroke="black" cx="279" cy="-882" rx="27" ry="18"/>
<text text-anchor="middle" x="279" y="-878.3" font-family="Times,serif" font-size="14.00">eps</text>
</g>
<!-- F1_1144068272&#45;&#45;eps_1985836631 -->
<g id="edge55" class="edge">
<title>F1_1144068272&#45;&#45;eps_1985836631</title>
<path fill="none" stroke="black" d="M279,-935.7C279,-924.85 279,-910.92 279,-900.1"/>
</g>
<!-- eps_1636506029 -->
<g id="node58" class="node">
<title>eps_1636506029</title>
<ellipse fill="none" stroke="black" cx="351" cy="-954" rx="27" ry="18"/>
<text text-anchor="middle" x="351" y="-950.3" font-family="Times,serif" font-size="14.00">eps</text>
</g>
<!-- T1_1948471365&#45;&#45;eps_1636506029 -->
<g id="edge57" class="edge">
<title>T1_1948471365&#45;&#45;eps_1636506029</title>
<path fill="none" stroke="black" d="M351,-1007.7C351,-996.85 351,-982.92 351,-972.1"/>
</g>
<!-- eps_817978763 -->
<g id="node60" class="node">
<title>eps_817978763</title>
<ellipse fill="none" stroke="black" cx="423" cy="-1026" rx="27" ry="18"/>
<text text-anchor="middle" x="423" y="-1022.3" font-family="Times,serif" font-size="14.00">eps</text>
</g>
<!-- E1_758348212&#45;&#45;eps_817978763 -->
<g id="edge59" class="edge">
<title>E1_758348212&#45;&#45;eps_817978763</title>
<path fill="none" stroke="black" d="M423,-1079.7C423,-1068.85 423,-1054.92 423,-1044.1"/>
</g>
<!-- eps_1735507635 -->
<g id="node62" class="node">
<title>eps_1735507635</title>
<ellipse fill="none" stroke="black" cx="315" cy="-1386" rx="27" ry="18"/>
<text text-anchor="middle" x="315" y="-1382.3" font-family="Times,serif" font-size="14.00">eps</text>
</g>
<!-- F1_1578009262&#45;&#45;eps_1735507635 -->
<g id="edge61" class="edge">
<title>F1_1578009262&#45;&#45;eps_1735507635</title>
<path fill="none" stroke="black" d="M315,-1439.7C315,-1428.85 315,-1414.92 315,-1404.1"/>
</g>
<!-- eps_1798219673 -->
<g id="node64" class="node">
<title>eps_1798219673</title>
<ellipse fill="none" stroke="black" cx="387" cy="-1458" rx="27" ry="18"/>
<text text-anchor="middle" x="387" y="-1454.3" font-family="Times,serif" font-size="14.00">eps</text>
</g>
<!-- T1_1362728240&#45;&#45;eps_1798219673 -->
<g id="edge63" class="edge">
<title>T1_1362728240&#45;&#45;eps_1798219673</title>
<path fill="none" stroke="black" d="M387,-1511.7C387,-1500.85 387,-1486.92 387,-1476.1"/>
</g>
<!-- eps_728885526 -->
<g id="node66" class="node">
<title>eps_728885526</title>
<ellipse fill="none" stroke="black" cx="459" cy="-1530" rx="27" ry="18"/>
<text text-anchor="middle" x="459" y="-1526.3" font-family="Times,serif" font-size="14.00">eps</text>
</g>
<!-- E1_1092572064&#45;&#45;eps_728885526 -->
<g id="edge65" class="edge">
<title>E1_1092572064&#45;&#45;eps_728885526</title>
<path fill="none" stroke="black" d="M459,-1583.7C459,-1572.85 459,-1558.92 459,-1548.1"/>
</g>
</g>
</svg>
