<?xml version="1.0" encoding="UTF-8" standalone="no"?>
<!DOCTYPE svg PUBLIC "-//W3C//DTD SVG 1.1//EN"
 "http://www.w3.org/Graphics/SVG/1.1/DTD/svg11.dtd">
<!-- Generated by graphviz version 2.49.1 (20210923.0004)
 -->
<!-- Pages: 1 -->
<svg width="494pt" height="1844pt"
 viewBox="0.00 0.00 494.00 1844.00" xmlns="http://www.w3.org/2000/svg" xmlns:xlink="http://www.w3.org/1999/xlink">
<g id="graph0" class="graph" transform="scale(1 1) rotate(0) translate(4 1840)">
<polygon fill="white" stroke="transparent" points="-4,4 -4,-1840 490,-1840 490,4 -4,4"/>
<!-- E0_1499136125 -->
<g id="node1" class="node">
<title>E0_1499136125</title>
<ellipse fill="none" stroke="black" cx="423" cy="-1818" rx="27" ry="18"/>
<text text-anchor="middle" x="423" y="-1814.3" font-family="Times,serif" font-size="14.00">E0</text>
</g>
<!-- E_1926343982 -->
<g id="node2" class="node">
<title>E_1926343982</title>
<ellipse fill="none" stroke="black" cx="423" cy="-1746" rx="27" ry="18"/>
<text text-anchor="middle" x="423" y="-1742.3" font-family="Times,serif" font-size="14.00">E</text>
</g>
<!-- E0_1499136125&#45;&#45;E_1926343982 -->
<g id="edge1" class="edge">
<title>E0_1499136125&#45;&#45;E_1926343982</title>
<path fill="none" stroke="black" d="M423,-1799.7C423,-1788.85 423,-1774.92 423,-1764.1"/>
</g>
<!-- T_762476028 -->
<g id="node3" class="node">
<title>T_762476028</title>
<ellipse fill="none" stroke="black" cx="387" cy="-1674" rx="27" ry="18"/>
<text text-anchor="middle" x="387" y="-1670.3" font-family="Times,serif" font-size="14.00">T</text>
</g>
<!-- E_1926343982&#45;&#45;T_762476028 -->
<g id="edge2" class="edge">
<title>E_1926343982&#45;&#45;T_762476028</title>
<path fill="none" stroke="black" d="M414.65,-1728.76C408.83,-1717.46 401.11,-1702.44 395.3,-1691.15"/>
</g>
<!-- E1_902830499 -->
<g id="node72" class="node">
<title>E1_902830499</title>
<ellipse fill="none" stroke="black" cx="459" cy="-1674" rx="27" ry="18"/>
<text text-anchor="middle" x="459" y="-1670.3" font-family="Times,serif" font-size="14.00">E1</text>
</g>
<!-- E_1926343982&#45;&#45;E1_902830499 -->
<g id="edge71" class="edge">
<title>E_1926343982&#45;&#45;E1_902830499</title>
<path fill="none" stroke="black" d="M431.35,-1728.76C437.17,-1717.46 444.89,-1702.44 450.7,-1691.15"/>
</g>
<!-- F_966739377 -->
<g id="node4" class="node">
<title>F_966739377</title>
<ellipse fill="none" stroke="black" cx="315" cy="-1602" rx="27" ry="18"/>
<text text-anchor="middle" x="315" y="-1598.3" font-family="Times,serif" font-size="14.00">F</text>
</g>
<!-- T_762476028&#45;&#45;F_966739377 -->
<g id="edge3" class="edge">
<title>T_762476028&#45;&#45;F_966739377</title>
<path fill="none" stroke="black" d="M372.43,-1658.83C360.02,-1646.77 342.27,-1629.51 329.8,-1617.38"/>
</g>
<!-- T1_708533063 -->
<g id="node70" class="node">
<title>T1_708533063</title>
<ellipse fill="none" stroke="black" cx="387" cy="-1602" rx="27" ry="18"/>
<text text-anchor="middle" x="387" y="-1598.3" font-family="Times,serif" font-size="14.00">T1</text>
</g>
<!-- T_762476028&#45;&#45;T1_708533063 -->
<g id="edge69" class="edge">
<title>T_762476028&#45;&#45;T1_708533063</title>
<path fill="none" stroke="black" d="M387,-1655.7C387,-1644.85 387,-1630.92 387,-1620.1"/>
</g>
<!-- G_952562199 -->
<g id="node5" class="node">
<title>G_952562199</title>
<ellipse fill="none" stroke="black" cx="243" cy="-1530" rx="27" ry="18"/>
<text text-anchor="middle" x="243" y="-1526.3" font-family="Times,serif" font-size="14.00">G</text>
</g>
<!-- F_966739377&#45;&#45;G_952562199 -->
<g id="edge4" class="edge">
<title>F_966739377&#45;&#45;G_952562199</title>
<path fill="none" stroke="black" d="M300.43,-1586.83C288.02,-1574.77 270.27,-1557.51 257.8,-1545.38"/>
</g>
<!-- F1_1239759990 -->
<g id="node68" class="node">
<title>F1_1239759990</title>
<ellipse fill="none" stroke="black" cx="315" cy="-1530" rx="27" ry="18"/>
<text text-anchor="middle" x="315" y="-1526.3" font-family="Times,serif" font-size="14.00">F1</text>
</g>
<!-- F_966739377&#45;&#45;F1_1239759990 -->
<g id="edge67" class="edge">
<title>F_966739377&#45;&#45;F1_1239759990</title>
<path fill="none" stroke="black" d="M315,-1583.7C315,-1572.85 315,-1558.92 315,-1548.1"/>
</g>
<!-- H_1199673596 -->
<g id="node6" class="node">
<title>H_1199673596</title>
<ellipse fill="none" stroke="black" cx="243" cy="-1458" rx="27" ry="18"/>
<text text-anchor="middle" x="243" y="-1454.3" font-family="Times,serif" font-size="14.00">H</text>
</g>
<!-- G_952562199&#45;&#45;H_1199673596 -->
<g id="edge5" class="edge">
<title>G_952562199&#45;&#45;H_1199673596</title>
<path fill="none" stroke="black" d="M243,-1511.7C243,-1500.85 243,-1486.92 243,-1476.1"/>
</g>
<!-- v_2044903525 -->
<g id="node7" class="node">
<title>v_2044903525</title>
<ellipse fill="none" stroke="black" cx="207" cy="-1386" rx="27" ry="18"/>
<text text-anchor="middle" x="207" y="-1382.3" font-family="Times,serif" font-size="14.00">v</text>
</g>
<!-- H_1199673596&#45;&#45;v_2044903525 -->
<g id="edge6" class="edge">
<title>H_1199673596&#45;&#45;v_2044903525</title>
<path fill="none" stroke="black" d="M234.65,-1440.76C228.83,-1429.46 221.11,-1414.44 215.3,-1403.15"/>
</g>
<!-- E_982757413 -->
<g id="node8" class="node">
<title>E_982757413</title>
<ellipse fill="none" stroke="black" cx="279" cy="-1386" rx="27" ry="18"/>
<text text-anchor="middle" x="279" y="-1382.3" font-family="Times,serif" font-size="14.00">E</text>
</g>
<!-- H_1199673596&#45;&#45;E_982757413 -->
<g id="edge7" class="edge">
<title>H_1199673596&#45;&#45;E_982757413</title>
<path fill="none" stroke="black" d="M251.35,-1440.76C257.17,-1429.46 264.89,-1414.44 270.7,-1403.15"/>
</g>
<!-- T_902478634 -->
<g id="node9" class="node">
<title>T_902478634</title>
<ellipse fill="none" stroke="black" cx="243" cy="-1314" rx="27" ry="18"/>
<text text-anchor="middle" x="243" y="-1310.3" font-family="Times,serif" font-size="14.00">T</text>
</g>
<!-- E_982757413&#45;&#45;T_902478634 -->
<g id="edge8" class="edge">
<title>E_982757413&#45;&#45;T_902478634</title>
<path fill="none" stroke="black" d="M270.65,-1368.76C264.83,-1357.46 257.11,-1342.44 251.3,-1331.15"/>
</g>
<!-- E1_574434418 -->
<g id="node18" class="node">
<title>E1_574434418</title>
<ellipse fill="none" stroke="black" cx="315" cy="-1314" rx="27" ry="18"/>
<text text-anchor="middle" x="315" y="-1310.3" font-family="Times,serif" font-size="14.00">E1</text>
</g>
<!-- E_982757413&#45;&#45;E1_574434418 -->
<g id="edge17" class="edge">
<title>E_982757413&#45;&#45;E1_574434418</title>
<path fill="none" stroke="black" d="M287.35,-1368.76C293.17,-1357.46 300.89,-1342.44 306.7,-1331.15"/>
</g>
<!-- F_2114444063 -->
<g id="node10" class="node">
<title>F_2114444063</title>
<ellipse fill="none" stroke="black" cx="171" cy="-1242" rx="27" ry="18"/>
<text text-anchor="middle" x="171" y="-1238.3" font-family="Times,serif" font-size="14.00">F</text>
</g>
<!-- T_902478634&#45;&#45;F_2114444063 -->
<g id="edge9" class="edge">
<title>T_902478634&#45;&#45;F_2114444063</title>
<path fill="none" stroke="black" d="M228.43,-1298.83C216.02,-1286.77 198.27,-1269.51 185.8,-1257.38"/>
</g>
<!-- T1_489349054 -->
<g id="node16" class="node">
<title>T1_489349054</title>
<ellipse fill="none" stroke="black" cx="243" cy="-1242" rx="27" ry="18"/>
<text text-anchor="middle" x="243" y="-1238.3" font-family="Times,serif" font-size="14.00">T1</text>
</g>
<!-- T_902478634&#45;&#45;T1_489349054 -->
<g id="edge15" class="edge">
<title>T_902478634&#45;&#45;T1_489349054</title>
<path fill="none" stroke="black" d="M243,-1295.7C243,-1284.85 243,-1270.92 243,-1260.1"/>
</g>
<!-- G_294247762 -->
<g id="node11" class="node">
<title>G_294247762</title>
<ellipse fill="none" stroke="black" cx="99" cy="-1170" rx="27" ry="18"/>
<text text-anchor="middle" x="99" y="-1166.3" font-family="Times,serif" font-size="14.00">G</text>
</g>
<!-- F_2114444063&#45;&#45;G_294247762 -->
<g id="edge10" class="edge">
<title>F_2114444063&#45;&#45;G_294247762</title>
<path fill="none" stroke="black" d="M156.43,-1226.83C144.02,-1214.77 126.27,-1197.51 113.8,-1185.38"/>
</g>
<!-- F1_382750013 -->
<g id="node14" class="node">
<title>F1_382750013</title>
<ellipse fill="none" stroke="black" cx="171" cy="-1170" rx="27" ry="18"/>
<text text-anchor="middle" x="171" y="-1166.3" font-family="Times,serif" font-size="14.00">F1</text>
</g>
<!-- F_2114444063&#45;&#45;F1_382750013 -->
<g id="edge13" class="edge">
<title>F_2114444063&#45;&#45;F1_382750013</title>
<path fill="none" stroke="black" d="M171,-1223.7C171,-1212.85 171,-1198.92 171,-1188.1"/>
</g>
<!-- H_918312414 -->
<g id="node12" class="node">
<title>H_918312414</title>
<ellipse fill="none" stroke="black" cx="99" cy="-1098" rx="27" ry="18"/>
<text text-anchor="middle" x="99" y="-1094.3" font-family="Times,serif" font-size="14.00">H</text>
</g>
<!-- G_294247762&#45;&#45;H_918312414 -->
<g id="edge11" class="edge">
<title>G_294247762&#45;&#45;H_918312414</title>
<path fill="none" stroke="black" d="M99,-1151.7C99,-1140.85 99,-1126.92 99,-1116.1"/>
</g>
<!-- eps_1448061896 -->
<g id="node13" class="node">
<title>eps_1448061896</title>
<ellipse fill="none" stroke="black" cx="99" cy="-1026" rx="27" ry="18"/>
<text text-anchor="middle" x="99" y="-1022.3" font-family="Times,serif" font-size="14.00">eps</text>
</g>
<!-- H_918312414&#45;&#45;eps_1448061896 -->
<g id="edge12" class="edge">
<title>H_918312414&#45;&#45;eps_1448061896</title>
<path fill="none" stroke="black" d="M99,-1079.7C99,-1068.85 99,-1054.92 99,-1044.1"/>
</g>
<!-- eps_1240232440 -->
<g id="node15" class="node">
<title>eps_1240232440</title>
<ellipse fill="none" stroke="black" cx="171" cy="-1098" rx="27" ry="18"/>
<text text-anchor="middle" x="171" y="-1094.3" font-family="Times,serif" font-size="14.00">eps</text>
</g>
<!-- F1_382750013&#45;&#45;eps_1240232440 -->
<g id="edge14" class="edge">
<title>F1_382750013&#45;&#45;eps_1240232440</title>
<path fill="none" stroke="black" d="M171,-1151.7C171,-1140.85 171,-1126.92 171,-1116.1"/>
</g>
<!-- eps_915416632 -->
<g id="node17" class="node">
<title>eps_915416632</title>
<ellipse fill="none" stroke="black" cx="243" cy="-1170" rx="27" ry="18"/>
<text text-anchor="middle" x="243" y="-1166.3" font-family="Times,serif" font-size="14.00">eps</text>
</g>
<!-- T1_489349054&#45;&#45;eps_915416632 -->
<g id="edge16" class="edge">
<title>T1_489349054&#45;&#45;eps_915416632</title>
<path fill="none" stroke="black" d="M243,-1223.7C243,-1212.85 243,-1198.92 243,-1188.1"/>
</g>
<!-- |_150268540 -->
<g id="node19" class="node">
<title>|_150268540</title>
<ellipse fill="none" stroke="black" cx="315" cy="-1242" rx="27" ry="18"/>
<text text-anchor="middle" x="315" y="-1238.3" font-family="Times,serif" font-size="14.00">|</text>
</g>
<!-- E1_574434418&#45;&#45;|_150268540 -->
<g id="edge18" class="edge">
<title>E1_574434418&#45;&#45;|_150268540</title>
<path fill="none" stroke="black" d="M315,-1295.7C315,-1284.85 315,-1270.92 315,-1260.1"/>
</g>
<!-- E_1130894323 -->
<g id="node20" class="node">
<title>E_1130894323</title>
<ellipse fill="none" stroke="black" cx="387" cy="-1242" rx="27" ry="18"/>
<text text-anchor="middle" x="387" y="-1238.3" font-family="Times,serif" font-size="14.00">E</text>
</g>
<!-- E1_574434418&#45;&#45;E_1130894323 -->
<g id="edge19" class="edge">
<title>E1_574434418&#45;&#45;E_1130894323</title>
<path fill="none" stroke="black" d="M329.57,-1298.83C341.98,-1286.77 359.73,-1269.51 372.2,-1257.38"/>
</g>
<!-- T_1962826816 -->
<g id="node21" class="node">
<title>T_1962826816</title>
<ellipse fill="none" stroke="black" cx="351" cy="-1170" rx="27" ry="18"/>
<text text-anchor="middle" x="351" y="-1166.3" font-family="Times,serif" font-size="14.00">T</text>
</g>
<!-- E_1130894323&#45;&#45;T_1962826816 -->
<g id="edge20" class="edge">
<title>E_1130894323&#45;&#45;T_1962826816</title>
<path fill="none" stroke="black" d="M378.65,-1224.76C372.83,-1213.46 365.11,-1198.44 359.3,-1187.15"/>
</g>
<!-- E1_1083962448 -->
<g id="node66" class="node">
<title>E1_1083962448</title>
<ellipse fill="none" stroke="black" cx="423" cy="-1170" rx="27" ry="18"/>
<text text-anchor="middle" x="423" y="-1166.3" font-family="Times,serif" font-size="14.00">E1</text>
</g>
<!-- E_1130894323&#45;&#45;E1_1083962448 -->
<g id="edge65" class="edge">
<title>E_1130894323&#45;&#45;E1_1083962448</title>
<path fill="none" stroke="black" d="M395.35,-1224.76C401.17,-1213.46 408.89,-1198.44 414.7,-1187.15"/>
</g>
<!-- F_1072410641 -->
<g id="node22" class="node">
<title>F_1072410641</title>
<ellipse fill="none" stroke="black" cx="279" cy="-1098" rx="27" ry="18"/>
<text text-anchor="middle" x="279" y="-1094.3" font-family="Times,serif" font-size="14.00">F</text>
</g>
<!-- T_1962826816&#45;&#45;F_1072410641 -->
<g id="edge21" class="edge">
<title>T_1962826816&#45;&#45;F_1072410641</title>
<path fill="none" stroke="black" d="M336.43,-1154.83C324.02,-1142.77 306.27,-1125.51 293.8,-1113.38"/>
</g>
<!-- T1_1008315045 -->
<g id="node64" class="node">
<title>T1_1008315045</title>
<ellipse fill="none" stroke="black" cx="351" cy="-1098" rx="27" ry="18"/>
<text text-anchor="middle" x="351" y="-1094.3" font-family="Times,serif" font-size="14.00">T1</text>
</g>
<!-- T_1962826816&#45;&#45;T1_1008315045 -->
<g id="edge63" class="edge">
<title>T_1962826816&#45;&#45;T1_1008315045</title>
<path fill="none" stroke="black" d="M351,-1151.7C351,-1140.85 351,-1126.92 351,-1116.1"/>
</g>
<!-- G_283318938 -->
<g id="node23" class="node">
<title>G_283318938</title>
<ellipse fill="none" stroke="black" cx="207" cy="-1026" rx="27" ry="18"/>
<text text-anchor="middle" x="207" y="-1022.3" font-family="Times,serif" font-size="14.00">G</text>
</g>
<!-- F_1072410641&#45;&#45;G_283318938 -->
<g id="edge22" class="edge">
<title>F_1072410641&#45;&#45;G_283318938</title>
<path fill="none" stroke="black" d="M264.43,-1082.83C252.02,-1070.77 234.27,-1053.51 221.8,-1041.38"/>
</g>
<!-- F1_1961945640 -->
<g id="node62" class="node">
<title>F1_1961945640</title>
<ellipse fill="none" stroke="black" cx="279" cy="-1026" rx="27" ry="18"/>
<text text-anchor="middle" x="279" y="-1022.3" font-family="Times,serif" font-size="14.00">F1</text>
</g>
<!-- F_1072410641&#45;&#45;F1_1961945640 -->
<g id="edge61" class="edge">
<title>F_1072410641&#45;&#45;F1_1961945640</title>
<path fill="none" stroke="black" d="M279,-1079.7C279,-1068.85 279,-1054.92 279,-1044.1"/>
</g>
<!-- H_320304382 -->
<g id="node24" class="node">
<title>H_320304382</title>
<ellipse fill="none" stroke="black" cx="207" cy="-954" rx="27" ry="18"/>
<text text-anchor="middle" x="207" y="-950.3" font-family="Times,serif" font-size="14.00">H</text>
</g>
<!-- G_283318938&#45;&#45;H_320304382 -->
<g id="edge23" class="edge">
<title>G_283318938&#45;&#45;H_320304382</title>
<path fill="none" stroke="black" d="M207,-1007.7C207,-996.85 207,-982.92 207,-972.1"/>
</g>
<!-- v_361571968 -->
<g id="node25" class="node">
<title>v_361571968</title>
<ellipse fill="none" stroke="black" cx="171" cy="-882" rx="27" ry="18"/>
<text text-anchor="middle" x="171" y="-878.3" font-family="Times,serif" font-size="14.00">v</text>
</g>
<!-- H_320304382&#45;&#45;v_361571968 -->
<g id="edge24" class="edge">
<title>H_320304382&#45;&#45;v_361571968</title>
<path fill="none" stroke="black" d="M198.65,-936.76C192.83,-925.46 185.11,-910.44 179.3,-899.15"/>
</g>
<!-- E_2005169944 -->
<g id="node26" class="node">
<title>E_2005169944</title>
<ellipse fill="none" stroke="black" cx="243" cy="-882" rx="27" ry="18"/>
<text text-anchor="middle" x="243" y="-878.3" font-family="Times,serif" font-size="14.00">E</text>
</g>
<!-- H_320304382&#45;&#45;E_2005169944 -->
<g id="edge25" class="edge">
<title>H_320304382&#45;&#45;E_2005169944</title>
<path fill="none" stroke="black" d="M215.35,-936.76C221.17,-925.46 228.89,-910.44 234.7,-899.15"/>
</g>
<!-- T_2134607032 -->
<g id="node27" class="node">
<title>T_2134607032</title>
<ellipse fill="none" stroke="black" cx="207" cy="-810" rx="27" ry="18"/>
<text text-anchor="middle" x="207" y="-806.3" font-family="Times,serif" font-size="14.00">T</text>
</g>
<!-- E_2005169944&#45;&#45;T_2134607032 -->
<g id="edge26" class="edge">
<title>E_2005169944&#45;&#45;T_2134607032</title>
<path fill="none" stroke="black" d="M234.65,-864.76C228.83,-853.46 221.11,-838.44 215.3,-827.15"/>
</g>
<!-- E1_1321530272 -->
<g id="node36" class="node">
<title>E1_1321530272</title>
<ellipse fill="none" stroke="black" cx="279" cy="-810" rx="27" ry="18"/>
<text text-anchor="middle" x="279" y="-806.3" font-family="Times,serif" font-size="14.00">E1</text>
</g>
<!-- E_2005169944&#45;&#45;E1_1321530272 -->
<g id="edge35" class="edge">
<title>E_2005169944&#45;&#45;E1_1321530272</title>
<path fill="none" stroke="black" d="M251.35,-864.76C257.17,-853.46 264.89,-838.44 270.7,-827.15"/>
</g>
<!-- F_1470344997 -->
<g id="node28" class="node">
<title>F_1470344997</title>
<ellipse fill="none" stroke="black" cx="135" cy="-738" rx="27" ry="18"/>
<text text-anchor="middle" x="135" y="-734.3" font-family="Times,serif" font-size="14.00">F</text>
</g>
<!-- T_2134607032&#45;&#45;F_1470344997 -->
<g id="edge27" class="edge">
<title>T_2134607032&#45;&#45;F_1470344997</title>
<path fill="none" stroke="black" d="M192.43,-794.83C180.02,-782.77 162.27,-765.51 149.8,-753.38"/>
</g>
<!-- T1_112049309 -->
<g id="node34" class="node">
<title>T1_112049309</title>
<ellipse fill="none" stroke="black" cx="207" cy="-738" rx="27" ry="18"/>
<text text-anchor="middle" x="207" y="-734.3" font-family="Times,serif" font-size="14.00">T1</text>
</g>
<!-- T_2134607032&#45;&#45;T1_112049309 -->
<g id="edge33" class="edge">
<title>T_2134607032&#45;&#45;T1_112049309</title>
<path fill="none" stroke="black" d="M207,-791.7C207,-780.85 207,-766.92 207,-756.1"/>
</g>
<!-- G_728115831 -->
<g id="node29" class="node">
<title>G_728115831</title>
<ellipse fill="none" stroke="black" cx="63" cy="-666" rx="27" ry="18"/>
<text text-anchor="middle" x="63" y="-662.3" font-family="Times,serif" font-size="14.00">G</text>
</g>
<!-- F_1470344997&#45;&#45;G_728115831 -->
<g id="edge28" class="edge">
<title>F_1470344997&#45;&#45;G_728115831</title>
<path fill="none" stroke="black" d="M120.43,-722.83C108.02,-710.77 90.27,-693.51 77.8,-681.38"/>
</g>
<!-- F1_371439501 -->
<g id="node32" class="node">
<title>F1_371439501</title>
<ellipse fill="none" stroke="black" cx="135" cy="-666" rx="27" ry="18"/>
<text text-anchor="middle" x="135" y="-662.3" font-family="Times,serif" font-size="14.00">F1</text>
</g>
<!-- F_1470344997&#45;&#45;F1_371439501 -->
<g id="edge31" class="edge">
<title>F_1470344997&#45;&#45;F1_371439501</title>
<path fill="none" stroke="black" d="M135,-719.7C135,-708.85 135,-694.92 135,-684.1"/>
</g>
<!-- H_2131670196 -->
<g id="node30" class="node">
<title>H_2131670196</title>
<ellipse fill="none" stroke="black" cx="63" cy="-594" rx="27" ry="18"/>
<text text-anchor="middle" x="63" y="-590.3" font-family="Times,serif" font-size="14.00">H</text>
</g>
<!-- G_728115831&#45;&#45;H_2131670196 -->
<g id="edge29" class="edge">
<title>G_728115831&#45;&#45;H_2131670196</title>
<path fill="none" stroke="black" d="M63,-647.7C63,-636.85 63,-622.92 63,-612.1"/>
</g>
<!-- eps_1546908073 -->
<g id="node31" class="node">
<title>eps_1546908073</title>
<ellipse fill="none" stroke="black" cx="63" cy="-522" rx="27" ry="18"/>
<text text-anchor="middle" x="63" y="-518.3" font-family="Times,serif" font-size="14.00">eps</text>
</g>
<!-- H_2131670196&#45;&#45;eps_1546908073 -->
<g id="edge30" class="edge">
<title>H_2131670196&#45;&#45;eps_1546908073</title>
<path fill="none" stroke="black" d="M63,-575.7C63,-564.85 63,-550.92 63,-540.1"/>
</g>
<!-- eps_210506412 -->
<g id="node33" class="node">
<title>eps_210506412</title>
<ellipse fill="none" stroke="black" cx="135" cy="-594" rx="27" ry="18"/>
<text text-anchor="middle" x="135" y="-590.3" font-family="Times,serif" font-size="14.00">eps</text>
</g>
<!-- F1_371439501&#45;&#45;eps_210506412 -->
<g id="edge32" class="edge">
<title>F1_371439501&#45;&#45;eps_210506412</title>
<path fill="none" stroke="black" d="M135,-647.7C135,-636.85 135,-622.92 135,-612.1"/>
</g>
<!-- eps_1162918744 -->
<g id="node35" class="node">
<title>eps_1162918744</title>
<ellipse fill="none" stroke="black" cx="207" cy="-666" rx="27" ry="18"/>
<text text-anchor="middle" x="207" y="-662.3" font-family="Times,serif" font-size="14.00">eps</text>
</g>
<!-- T1_112049309&#45;&#45;eps_1162918744 -->
<g id="edge34" class="edge">
<title>T1_112049309&#45;&#45;eps_1162918744</title>
<path fill="none" stroke="black" d="M207,-719.7C207,-708.85 207,-694.92 207,-684.1"/>
</g>
<!-- |_573673894 -->
<g id="node37" class="node">
<title>|_573673894</title>
<ellipse fill="none" stroke="black" cx="279" cy="-738" rx="27" ry="18"/>
<text text-anchor="middle" x="279" y="-734.3" font-family="Times,serif" font-size="14.00">|</text>
</g>
<!-- E1_1321530272&#45;&#45;|_573673894 -->
<g id="edge36" class="edge">
<title>E1_1321530272&#45;&#45;|_573673894</title>
<path fill="none" stroke="black" d="M279,-791.7C279,-780.85 279,-766.92 279,-756.1"/>
</g>
<!-- E_1226020905 -->
<g id="node38" class="node">
<title>E_1226020905</title>
<ellipse fill="none" stroke="black" cx="351" cy="-738" rx="27" ry="18"/>
<text text-anchor="middle" x="351" y="-734.3" font-family="Times,serif" font-size="14.00">E</text>
</g>
<!-- E1_1321530272&#45;&#45;E_1226020905 -->
<g id="edge37" class="edge">
<title>E1_1321530272&#45;&#45;E_1226020905</title>
<path fill="none" stroke="black" d="M293.57,-794.83C305.98,-782.77 323.73,-765.51 336.2,-753.38"/>
</g>
<!-- T_156856360 -->
<g id="node39" class="node">
<title>T_156856360</title>
<ellipse fill="none" stroke="black" cx="315" cy="-666" rx="27" ry="18"/>
<text text-anchor="middle" x="315" y="-662.3" font-family="Times,serif" font-size="14.00">T</text>
</g>
<!-- E_1226020905&#45;&#45;T_156856360 -->
<g id="edge38" class="edge">
<title>E_1226020905&#45;&#45;T_156856360</title>
<path fill="none" stroke="black" d="M342.65,-720.76C336.83,-709.46 329.11,-694.44 323.3,-683.15"/>
</g>
<!-- E1_1793799654 -->
<g id="node60" class="node">
<title>E1_1793799654</title>
<ellipse fill="none" stroke="black" cx="387" cy="-666" rx="27" ry="18"/>
<text text-anchor="middle" x="387" y="-662.3" font-family="Times,serif" font-size="14.00">E1</text>
</g>
<!-- E_1226020905&#45;&#45;E1_1793799654 -->
<g id="edge59" class="edge">
<title>E_1226020905&#45;&#45;E1_1793799654</title>
<path fill="none" stroke="black" d="M359.35,-720.76C365.17,-709.46 372.89,-694.44 378.7,-683.15"/>
</g>
<!-- F_1617550160 -->
<g id="node40" class="node">
<title>F_1617550160</title>
<ellipse fill="none" stroke="black" cx="243" cy="-594" rx="27" ry="18"/>
<text text-anchor="middle" x="243" y="-590.3" font-family="Times,serif" font-size="14.00">F</text>
</g>
<!-- T_156856360&#45;&#45;F_1617550160 -->
<g id="edge39" class="edge">
<title>T_156856360&#45;&#45;F_1617550160</title>
<path fill="none" stroke="black" d="M300.43,-650.83C288.02,-638.77 270.27,-621.51 257.8,-609.38"/>
</g>
<!-- T1_1118078504 -->
<g id="node58" class="node">
<title>T1_1118078504</title>
<ellipse fill="none" stroke="black" cx="315" cy="-594" rx="27" ry="18"/>
<text text-anchor="middle" x="315" y="-590.3" font-family="Times,serif" font-size="14.00">T1</text>
</g>
<!-- T_156856360&#45;&#45;T1_1118078504 -->
<g id="edge57" class="edge">
<title>T_156856360&#45;&#45;T1_1118078504</title>
<path fill="none" stroke="black" d="M315,-647.7C315,-636.85 315,-622.92 315,-612.1"/>
</g>
<!-- G_1325124186 -->
<g id="node41" class="node">
<title>G_1325124186</title>
<ellipse fill="none" stroke="black" cx="171" cy="-522" rx="27" ry="18"/>
<text text-anchor="middle" x="171" y="-518.3" font-family="Times,serif" font-size="14.00">G</text>
</g>
<!-- F_1617550160&#45;&#45;G_1325124186 -->
<g id="edge40" class="edge">
<title>F_1617550160&#45;&#45;G_1325124186</title>
<path fill="none" stroke="black" d="M228.43,-578.83C216.02,-566.77 198.27,-549.51 185.8,-537.38"/>
</g>
<!-- F1_131635550 -->
<g id="node56" class="node">
<title>F1_131635550</title>
<ellipse fill="none" stroke="black" cx="243" cy="-522" rx="27" ry="18"/>
<text text-anchor="middle" x="243" y="-518.3" font-family="Times,serif" font-size="14.00">F1</text>
</g>
<!-- F_1617550160&#45;&#45;F1_131635550 -->
<g id="edge55" class="edge">
<title>F_1617550160&#45;&#45;F1_131635550</title>
<path fill="none" stroke="black" d="M243,-575.7C243,-564.85 243,-550.92 243,-540.1"/>
</g>
<!-- H_461160828 -->
<g id="node42" class="node">
<title>H_461160828</title>
<ellipse fill="none" stroke="black" cx="171" cy="-450" rx="27" ry="18"/>
<text text-anchor="middle" x="171" y="-446.3" font-family="Times,serif" font-size="14.00">H</text>
</g>
<!-- G_1325124186&#45;&#45;H_461160828 -->
<g id="edge41" class="edge">
<title>G_1325124186&#45;&#45;H_461160828</title>
<path fill="none" stroke="black" d="M171,-503.7C171,-492.85 171,-478.92 171,-468.1"/>
</g>
<!-- v_1499867659 -->
<g id="node43" class="node">
<title>v_1499867659</title>
<ellipse fill="none" stroke="black" cx="135" cy="-378" rx="27" ry="18"/>
<text text-anchor="middle" x="135" y="-374.3" font-family="Times,serif" font-size="14.00">v</text>
</g>
<!-- H_461160828&#45;&#45;v_1499867659 -->
<g id="edge42" class="edge">
<title>H_461160828&#45;&#45;v_1499867659</title>
<path fill="none" stroke="black" d="M162.65,-432.76C156.83,-421.46 149.11,-406.44 143.3,-395.15"/>
</g>
<!-- E_2012993836 -->
<g id="node44" class="node">
<title>E_2012993836</title>
<ellipse fill="none" stroke="black" cx="207" cy="-378" rx="27" ry="18"/>
<text text-anchor="middle" x="207" y="-374.3" font-family="Times,serif" font-size="14.00">E</text>
</g>
<!-- H_461160828&#45;&#45;E_2012993836 -->
<g id="edge43" class="edge">
<title>H_461160828&#45;&#45;E_2012993836</title>
<path fill="none" stroke="black" d="M179.35,-432.76C185.17,-421.46 192.89,-406.44 198.7,-395.15"/>
</g>
<!-- T_1740797075 -->
<g id="node45" class="node">
<title>T_1740797075</title>
<ellipse fill="none" stroke="black" cx="171" cy="-306" rx="27" ry="18"/>
<text text-anchor="middle" x="171" y="-302.3" font-family="Times,serif" font-size="14.00">T</text>
</g>
<!-- E_2012993836&#45;&#45;T_1740797075 -->
<g id="edge44" class="edge">
<title>E_2012993836&#45;&#45;T_1740797075</title>
<path fill="none" stroke="black" d="M198.65,-360.76C192.83,-349.46 185.11,-334.44 179.3,-323.15"/>
</g>
<!-- E1_1334042472 -->
<g id="node54" class="node">
<title>E1_1334042472</title>
<ellipse fill="none" stroke="black" cx="243" cy="-306" rx="27" ry="18"/>
<text text-anchor="middle" x="243" y="-302.3" font-family="Times,serif" font-size="14.00">E1</text>
</g>
<!-- E_2012993836&#45;&#45;E1_1334042472 -->
<g id="edge53" class="edge">
<title>E_2012993836&#45;&#45;E1_1334042472</title>
<path fill="none" stroke="black" d="M215.35,-360.76C221.17,-349.46 228.89,-334.44 234.7,-323.15"/>
</g>
<!-- F_440938038 -->
<g id="node46" class="node">
<title>F_440938038</title>
<ellipse fill="none" stroke="black" cx="99" cy="-234" rx="27" ry="18"/>
<text text-anchor="middle" x="99" y="-230.3" font-family="Times,serif" font-size="14.00">F</text>
</g>
<!-- T_1740797075&#45;&#45;F_440938038 -->
<g id="edge45" class="edge">
<title>T_1740797075&#45;&#45;F_440938038</title>
<path fill="none" stroke="black" d="M156.43,-290.83C144.02,-278.77 126.27,-261.51 113.8,-249.38"/>
</g>
<!-- T1_29183965 -->
<g id="node52" class="node">
<title>T1_29183965</title>
<ellipse fill="none" stroke="black" cx="171" cy="-234" rx="27" ry="18"/>
<text text-anchor="middle" x="171" y="-230.3" font-family="Times,serif" font-size="14.00">T1</text>
</g>
<!-- T_1740797075&#45;&#45;T1_29183965 -->
<g id="edge51" class="edge">
<title>T_1740797075&#45;&#45;T1_29183965</title>
<path fill="none" stroke="black" d="M171,-287.7C171,-276.85 171,-262.92 171,-252.1"/>
</g>
<!-- G_1922464006 -->
<g id="node47" class="node">
<title>G_1922464006</title>
<ellipse fill="none" stroke="black" cx="27" cy="-162" rx="27" ry="18"/>
<text text-anchor="middle" x="27" y="-158.3" font-family="Times,serif" font-size="14.00">G</text>
</g>
<!-- F_440938038&#45;&#45;G_1922464006 -->
<g id="edge46" class="edge">
<title>F_440938038&#45;&#45;G_1922464006</title>
<path fill="none" stroke="black" d="M84.43,-218.83C72.02,-206.77 54.27,-189.51 41.8,-177.38"/>
</g>
<!-- F1_1954406292 -->
<g id="node50" class="node">
<title>F1_1954406292</title>
<ellipse fill="none" stroke="black" cx="99" cy="-162" rx="27" ry="18"/>
<text text-anchor="middle" x="99" y="-158.3" font-family="Times,serif" font-size="14.00">F1</text>
</g>
<!-- F_440938038&#45;&#45;F1_1954406292 -->
<g id="edge49" class="edge">
<title>F_440938038&#45;&#45;F1_1954406292</title>
<path fill="none" stroke="black" d="M99,-215.7C99,-204.85 99,-190.92 99,-180.1"/>
</g>
<!-- H_1536031937 -->
<g id="node48" class="node">
<title>H_1536031937</title>
<ellipse fill="none" stroke="black" cx="27" cy="-90" rx="27" ry="18"/>
<text text-anchor="middle" x="27" y="-86.3" font-family="Times,serif" font-size="14.00">H</text>
</g>
<!-- G_1922464006&#45;&#45;H_1536031937 -->
<g id="edge47" class="edge">
<title>G_1922464006&#45;&#45;H_1536031937</title>
<path fill="none" stroke="black" d="M27,-143.7C27,-132.85 27,-118.92 27,-108.1"/>
</g>
<!-- eps_798981583 -->
<g id="node49" class="node">
<title>eps_798981583</title>
<ellipse fill="none" stroke="black" cx="27" cy="-18" rx="27" ry="18"/>
<text text-anchor="middle" x="27" y="-14.3" font-family="Times,serif" font-size="14.00">eps</text>
</g>
<!-- H_1536031937&#45;&#45;eps_798981583 -->
<g id="edge48" class="edge">
<title>H_1536031937&#45;&#45;eps_798981583</title>
<path fill="none" stroke="black" d="M27,-71.7C27,-60.85 27,-46.92 27,-36.1"/>
</g>
<!-- eps_904058452 -->
<g id="node51" class="node">
<title>eps_904058452</title>
<ellipse fill="none" stroke="black" cx="99" cy="-90" rx="27" ry="18"/>
<text text-anchor="middle" x="99" y="-86.3" font-family="Times,serif" font-size="14.00">eps</text>
</g>
<!-- F1_1954406292&#45;&#45;eps_904058452 -->
<g id="edge50" class="edge">
<title>F1_1954406292&#45;&#45;eps_904058452</title>
<path fill="none" stroke="black" d="M99,-143.7C99,-132.85 99,-118.92 99,-108.1"/>
</g>
<!-- eps_1427651360 -->
<g id="node53" class="node">
<title>eps_1427651360</title>
<ellipse fill="none" stroke="black" cx="171" cy="-162" rx="27" ry="18"/>
<text text-anchor="middle" x="171" y="-158.3" font-family="Times,serif" font-size="14.00">eps</text>
</g>
<!-- T1_29183965&#45;&#45;eps_1427651360 -->
<g id="edge52" class="edge">
<title>T1_29183965&#45;&#45;eps_1427651360</title>
<path fill="none" stroke="black" d="M171,-215.7C171,-204.85 171,-190.92 171,-180.1"/>
</g>
<!-- eps_1827725498 -->
<g id="node55" class="node">
<title>eps_1827725498</title>
<ellipse fill="none" stroke="black" cx="243" cy="-234" rx="27" ry="18"/>
<text text-anchor="middle" x="243" y="-230.3" font-family="Times,serif" font-size="14.00">eps</text>
</g>
<!-- E1_1334042472&#45;&#45;eps_1827725498 -->
<g id="edge54" class="edge">
<title>E1_1334042472&#45;&#45;eps_1827725498</title>
<path fill="none" stroke="black" d="M243,-287.7C243,-276.85 243,-262.92 243,-252.1"/>
</g>
<!-- eps_319644606 -->
<g id="node57" class="node">
<title>eps_319644606</title>
<ellipse fill="none" stroke="black" cx="243" cy="-450" rx="27" ry="18"/>
<text text-anchor="middle" x="243" y="-446.3" font-family="Times,serif" font-size="14.00">eps</text>
</g>
<!-- F1_131635550&#45;&#45;eps_319644606 -->
<g id="edge56" class="edge">
<title>F1_131635550&#45;&#45;eps_319644606</title>
<path fill="none" stroke="black" d="M243,-503.7C243,-492.85 243,-478.92 243,-468.1"/>
</g>
<!-- eps_691690486 -->
<g id="node59" class="node">
<title>eps_691690486</title>
<ellipse fill="none" stroke="black" cx="315" cy="-522" rx="27" ry="18"/>
<text text-anchor="middle" x="315" y="-518.3" font-family="Times,serif" font-size="14.00">eps</text>
</g>
<!-- T1_1118078504&#45;&#45;eps_691690486 -->
<g id="edge58" class="edge">
<title>T1_1118078504&#45;&#45;eps_691690486</title>
<path fill="none" stroke="black" d="M315,-575.7C315,-564.85 315,-550.92 315,-540.1"/>
</g>
<!-- eps_310623126 -->
<g id="node61" class="node">
<title>eps_310623126</title>
<ellipse fill="none" stroke="black" cx="387" cy="-594" rx="27" ry="18"/>
<text text-anchor="middle" x="387" y="-590.3" font-family="Times,serif" font-size="14.00">eps</text>
</g>
<!-- E1_1793799654&#45;&#45;eps_310623126 -->
<g id="edge60" class="edge">
<title>E1_1793799654&#45;&#45;eps_310623126</title>
<path fill="none" stroke="black" d="M387,-647.7C387,-636.85 387,-622.92 387,-612.1"/>
</g>
<!-- eps_258931371 -->
<g id="node63" class="node">
<title>eps_258931371</title>
<ellipse fill="none" stroke="black" cx="279" cy="-954" rx="27" ry="18"/>
<text text-anchor="middle" x="279" y="-950.3" font-family="Times,serif" font-size="14.00">eps</text>
</g>
<!-- F1_1961945640&#45;&#45;eps_258931371 -->
<g id="edge62" class="edge">
<title>F1_1961945640&#45;&#45;eps_258931371</title>
<path fill="none" stroke="black" d="M279,-1007.7C279,-996.85 279,-982.92 279,-972.1"/>
</g>
<!-- eps_860481979 -->
<g id="node65" class="node">
<title>eps_860481979</title>
<ellipse fill="none" stroke="black" cx="351" cy="-1026" rx="27" ry="18"/>
<text text-anchor="middle" x="351" y="-1022.3" font-family="Times,serif" font-size="14.00">eps</text>
</g>
<!-- T1_1008315045&#45;&#45;eps_860481979 -->
<g id="edge64" class="edge">
<title>T1_1008315045&#45;&#45;eps_860481979</title>
<path fill="none" stroke="black" d="M351,-1079.7C351,-1068.85 351,-1054.92 351,-1044.1"/>
</g>
<!-- eps_953742666 -->
<g id="node67" class="node">
<title>eps_953742666</title>
<ellipse fill="none" stroke="black" cx="423" cy="-1098" rx="27" ry="18"/>
<text text-anchor="middle" x="423" y="-1094.3" font-family="Times,serif" font-size="14.00">eps</text>
</g>
<!-- E1_1083962448&#45;&#45;eps_953742666 -->
<g id="edge66" class="edge">
<title>E1_1083962448&#45;&#45;eps_953742666</title>
<path fill="none" stroke="black" d="M423,-1151.7C423,-1140.85 423,-1126.92 423,-1116.1"/>
</g>
<!-- eps_891093184 -->
<g id="node69" class="node">
<title>eps_891093184</title>
<ellipse fill="none" stroke="black" cx="315" cy="-1458" rx="27" ry="18"/>
<text text-anchor="middle" x="315" y="-1454.3" font-family="Times,serif" font-size="14.00">eps</text>
</g>
<!-- F1_1239759990&#45;&#45;eps_891093184 -->
<g id="edge68" class="edge">
<title>F1_1239759990&#45;&#45;eps_891093184</title>
<path fill="none" stroke="black" d="M315,-1511.7C315,-1500.85 315,-1486.92 315,-1476.1"/>
</g>
<!-- eps_1438030319 -->
<g id="node71" class="node">
<title>eps_1438030319</title>
<ellipse fill="none" stroke="black" cx="387" cy="-1530" rx="27" ry="18"/>
<text text-anchor="middle" x="387" y="-1526.3" font-family="Times,serif" font-size="14.00">eps</text>
</g>
<!-- T1_708533063&#45;&#45;eps_1438030319 -->
<g id="edge70" class="edge">
<title>T1_708533063&#45;&#45;eps_1438030319</title>
<path fill="none" stroke="black" d="M387,-1583.7C387,-1572.85 387,-1558.92 387,-1548.1"/>
</g>
<!-- eps_1754662105 -->
<g id="node73" class="node">
<title>eps_1754662105</title>
<ellipse fill="none" stroke="black" cx="459" cy="-1602" rx="27" ry="18"/>
<text text-anchor="middle" x="459" y="-1598.3" font-family="Times,serif" font-size="14.00">eps</text>
</g>
<!-- E1_902830499&#45;&#45;eps_1754662105 -->
<g id="edge72" class="edge">
<title>E1_902830499&#45;&#45;eps_1754662105</title>
<path fill="none" stroke="black" d="M459,-1655.7C459,-1644.85 459,-1630.92 459,-1620.1"/>
</g>
</g>
</svg>
