<?xml version="1.0" encoding="UTF-8" standalone="no"?>
<!DOCTYPE svg PUBLIC "-//W3C//DTD SVG 1.1//EN"
 "http://www.w3.org/Graphics/SVG/1.1/DTD/svg11.dtd">
<!-- Generated by graphviz version 2.49.1 (20210923.0004)
 -->
<!-- Pages: 1 -->
<svg width="530pt" height="1286pt"
 viewBox="0.00 0.00 530.00 1285.74" xmlns="http://www.w3.org/2000/svg" xmlns:xlink="http://www.w3.org/1999/xlink">
<g id="graph0" class="graph" transform="scale(1 1) rotate(0) translate(4 1281.74)">
<polygon fill="white" stroke="transparent" points="-4,4 -4,-1281.74 526,-1281.74 526,4 -4,4"/>
<!-- E0_967323951 -->
<g id="node1" class="node">
<title>E0_967323951</title>
<ellipse fill="none" stroke="black" cx="315" cy="-1250.87" rx="27" ry="26.74"/>
<text text-anchor="middle" x="315" y="-1254.67" font-family="Times,serif" font-size="14.00">E0</text>
<text text-anchor="middle" x="315" y="-1239.67" font-family="Times,serif" font-size="14.00">3</text>
</g>
<!-- E_1600594643 -->
<g id="node2" class="node">
<title>E_1600594643</title>
<ellipse fill="none" stroke="black" cx="315" cy="-1170" rx="27" ry="18"/>
<text text-anchor="middle" x="315" y="-1166.3" font-family="Times,serif" font-size="14.00">E</text>
</g>
<!-- E0_967323951&#45;&#45;E_1600594643 -->
<g id="edge1" class="edge">
<title>E0_967323951&#45;&#45;E_1600594643</title>
<path fill="none" stroke="black" d="M315,-1223.61C315,-1211.96 315,-1198.57 315,-1188.22"/>
</g>
<!-- T_743648472 -->
<g id="node3" class="node">
<title>T_743648472</title>
<ellipse fill="none" stroke="black" cx="279" cy="-1098" rx="27" ry="18"/>
<text text-anchor="middle" x="279" y="-1094.3" font-family="Times,serif" font-size="14.00">T</text>
</g>
<!-- E_1600594643&#45;&#45;T_743648472 -->
<g id="edge2" class="edge">
<title>E_1600594643&#45;&#45;T_743648472</title>
<path fill="none" stroke="black" d="M306.65,-1152.76C300.83,-1141.46 293.11,-1126.44 287.3,-1115.15"/>
</g>
<!-- E1_264394929 -->
<g id="node17" class="node">
<title>E1_264394929</title>
<ellipse fill="none" stroke="black" cx="387" cy="-1098" rx="27" ry="18"/>
<text text-anchor="middle" x="387" y="-1094.3" font-family="Times,serif" font-size="14.00">E1</text>
</g>
<!-- E_1600594643&#45;&#45;E1_264394929 -->
<g id="edge16" class="edge">
<title>E_1600594643&#45;&#45;E1_264394929</title>
<path fill="none" stroke="black" d="M329.57,-1154.83C341.98,-1142.77 359.73,-1125.51 372.2,-1113.38"/>
</g>
<!-- F_692998280 -->
<g id="node4" class="node">
<title>F_692998280</title>
<ellipse fill="none" stroke="black" cx="171" cy="-1026" rx="27" ry="18"/>
<text text-anchor="middle" x="171" y="-1022.3" font-family="Times,serif" font-size="14.00">F</text>
</g>
<!-- T_743648472&#45;&#45;F_692998280 -->
<g id="edge3" class="edge">
<title>T_743648472&#45;&#45;F_692998280</title>
<path fill="none" stroke="black" d="M260.19,-1084.81C240.37,-1071.96 209.34,-1051.85 189.6,-1039.05"/>
</g>
<!-- T1_756936249 -->
<g id="node15" class="node">
<title>T1_756936249</title>
<ellipse fill="none" stroke="black" cx="279" cy="-1026" rx="27" ry="18"/>
<text text-anchor="middle" x="279" y="-1022.3" font-family="Times,serif" font-size="14.00">T1</text>
</g>
<!-- T_743648472&#45;&#45;T1_756936249 -->
<g id="edge14" class="edge">
<title>T_743648472&#45;&#45;T1_756936249</title>
<path fill="none" stroke="black" d="M279,-1079.7C279,-1068.85 279,-1054.92 279,-1044.1"/>
</g>
<!-- lparen_1368862151 -->
<g id="node5" class="node">
<title>lparen_1368862151</title>
<ellipse fill="none" stroke="black" cx="63" cy="-954" rx="27" ry="18"/>
<text text-anchor="middle" x="63" y="-950.3" font-family="Times,serif" font-size="14.00">(</text>
</g>
<!-- F_692998280&#45;&#45;lparen_1368862151 -->
<g id="edge4" class="edge">
<title>F_692998280&#45;&#45;lparen_1368862151</title>
<path fill="none" stroke="black" d="M152.19,-1012.81C132.37,-999.96 101.34,-979.85 81.6,-967.05"/>
</g>
<!-- E_922807452 -->
<g id="node6" class="node">
<title>E_922807452</title>
<ellipse fill="none" stroke="black" cx="135" cy="-954" rx="27" ry="18"/>
<text text-anchor="middle" x="135" y="-950.3" font-family="Times,serif" font-size="14.00">E</text>
</g>
<!-- F_692998280&#45;&#45;E_922807452 -->
<g id="edge5" class="edge">
<title>F_692998280&#45;&#45;E_922807452</title>
<path fill="none" stroke="black" d="M162.65,-1008.76C156.83,-997.46 149.11,-982.44 143.3,-971.15"/>
</g>
<!-- rparen_1207231495 -->
<g id="node14" class="node">
<title>rparen_1207231495</title>
<ellipse fill="none" stroke="black" cx="207" cy="-954" rx="27" ry="18"/>
<text text-anchor="middle" x="207" y="-950.3" font-family="Times,serif" font-size="14.00">)</text>
</g>
<!-- F_692998280&#45;&#45;rparen_1207231495 -->
<g id="edge13" class="edge">
<title>F_692998280&#45;&#45;rparen_1207231495</title>
<path fill="none" stroke="black" d="M179.35,-1008.76C185.17,-997.46 192.89,-982.44 198.7,-971.15"/>
</g>
<!-- T_33563464 -->
<g id="node7" class="node">
<title>T_33563464</title>
<ellipse fill="none" stroke="black" cx="99" cy="-882" rx="27" ry="18"/>
<text text-anchor="middle" x="99" y="-878.3" font-family="Times,serif" font-size="14.00">T</text>
</g>
<!-- E_922807452&#45;&#45;T_33563464 -->
<g id="edge6" class="edge">
<title>E_922807452&#45;&#45;T_33563464</title>
<path fill="none" stroke="black" d="M126.65,-936.76C120.83,-925.46 113.11,-910.44 107.3,-899.15"/>
</g>
<!-- E1_1422273905 -->
<g id="node12" class="node">
<title>E1_1422273905</title>
<ellipse fill="none" stroke="black" cx="171" cy="-882" rx="27" ry="18"/>
<text text-anchor="middle" x="171" y="-878.3" font-family="Times,serif" font-size="14.00">E1</text>
</g>
<!-- E_922807452&#45;&#45;E1_1422273905 -->
<g id="edge11" class="edge">
<title>E_922807452&#45;&#45;E1_1422273905</title>
<path fill="none" stroke="black" d="M143.35,-936.76C149.17,-925.46 156.89,-910.44 162.7,-899.15"/>
</g>
<!-- F_1494346128 -->
<g id="node8" class="node">
<title>F_1494346128</title>
<ellipse fill="none" stroke="black" cx="27" cy="-810" rx="27" ry="18"/>
<text text-anchor="middle" x="27" y="-806.3" font-family="Times,serif" font-size="14.00">F</text>
</g>
<!-- T_33563464&#45;&#45;F_1494346128 -->
<g id="edge7" class="edge">
<title>T_33563464&#45;&#45;F_1494346128</title>
<path fill="none" stroke="black" d="M84.43,-866.83C72.02,-854.77 54.27,-837.51 41.8,-825.38"/>
</g>
<!-- T1_30699728 -->
<g id="node10" class="node">
<title>T1_30699728</title>
<ellipse fill="none" stroke="black" cx="99" cy="-810" rx="27" ry="18"/>
<text text-anchor="middle" x="99" y="-806.3" font-family="Times,serif" font-size="14.00">T1</text>
</g>
<!-- T_33563464&#45;&#45;T1_30699728 -->
<g id="edge9" class="edge">
<title>T_33563464&#45;&#45;T1_30699728</title>
<path fill="none" stroke="black" d="M99,-863.7C99,-852.85 99,-838.92 99,-828.1"/>
</g>
<!-- number_822087264 -->
<g id="node9" class="node">
<title>number_822087264</title>
<ellipse fill="none" stroke="black" cx="27" cy="-738" rx="27" ry="18"/>
<text text-anchor="middle" x="27" y="-734.3" font-family="Times,serif" font-size="14.00">1</text>
</g>
<!-- F_1494346128&#45;&#45;number_822087264 -->
<g id="edge8" class="edge">
<title>F_1494346128&#45;&#45;number_822087264</title>
<path fill="none" stroke="black" d="M27,-791.7C27,-780.85 27,-766.92 27,-756.1"/>
</g>
<!-- \\eps_38603201 -->
<g id="node11" class="node">
<title>\\eps_38603201</title>
<ellipse fill="none" stroke="black" cx="99" cy="-738" rx="27" ry="18"/>
<text text-anchor="middle" x="99" y="-734.3" font-family="Times,serif" font-size="14.00">\eps</text>
</g>
<!-- T1_30699728&#45;&#45;\\eps_38603201 -->
<g id="edge10" class="edge">
<title>T1_30699728&#45;&#45;\\eps_38603201</title>
<path fill="none" stroke="black" d="M99,-791.7C99,-780.85 99,-766.92 99,-756.1"/>
</g>
<!-- \\eps_1694784135 -->
<g id="node13" class="node">
<title>\\eps_1694784135</title>
<ellipse fill="none" stroke="black" cx="171" cy="-810" rx="27" ry="18"/>
<text text-anchor="middle" x="171" y="-806.3" font-family="Times,serif" font-size="14.00">\eps</text>
</g>
<!-- E1_1422273905&#45;&#45;\\eps_1694784135 -->
<g id="edge12" class="edge">
<title>E1_1422273905&#45;&#45;\\eps_1694784135</title>
<path fill="none" stroke="black" d="M171,-863.7C171,-852.85 171,-838.92 171,-828.1"/>
</g>
<!-- \\eps_1221981006 -->
<g id="node16" class="node">
<title>\\eps_1221981006</title>
<ellipse fill="none" stroke="black" cx="279" cy="-954" rx="27" ry="18"/>
<text text-anchor="middle" x="279" y="-950.3" font-family="Times,serif" font-size="14.00">\eps</text>
</g>
<!-- T1_756936249&#45;&#45;\\eps_1221981006 -->
<g id="edge15" class="edge">
<title>T1_756936249&#45;&#45;\\eps_1221981006</title>
<path fill="none" stroke="black" d="M279,-1007.7C279,-996.85 279,-982.92 279,-972.1"/>
</g>
<!-- add_1878413714 -->
<g id="node18" class="node">
<title>add_1878413714</title>
<ellipse fill="none" stroke="black" cx="351" cy="-1026" rx="27" ry="18"/>
<text text-anchor="middle" x="351" y="-1022.3" font-family="Times,serif" font-size="14.00">+</text>
</g>
<!-- E1_264394929&#45;&#45;add_1878413714 -->
<g id="edge17" class="edge">
<title>E1_264394929&#45;&#45;add_1878413714</title>
<path fill="none" stroke="black" d="M378.65,-1080.76C372.83,-1069.46 365.11,-1054.44 359.3,-1043.15"/>
</g>
<!-- T_769132147 -->
<g id="node19" class="node">
<title>T_769132147</title>
<ellipse fill="none" stroke="black" cx="423" cy="-1026" rx="27" ry="18"/>
<text text-anchor="middle" x="423" y="-1022.3" font-family="Times,serif" font-size="14.00">T</text>
</g>
<!-- E1_264394929&#45;&#45;T_769132147 -->
<g id="edge18" class="edge">
<title>E1_264394929&#45;&#45;T_769132147</title>
<path fill="none" stroke="black" d="M395.35,-1080.76C401.17,-1069.46 408.89,-1054.44 414.7,-1043.15"/>
</g>
<!-- E1_1261044180 -->
<g id="node66" class="node">
<title>E1_1261044180</title>
<ellipse fill="none" stroke="black" cx="495" cy="-1026" rx="27" ry="18"/>
<text text-anchor="middle" x="495" y="-1022.3" font-family="Times,serif" font-size="14.00">E1</text>
</g>
<!-- E1_264394929&#45;&#45;E1_1261044180 -->
<g id="edge65" class="edge">
<title>E1_264394929&#45;&#45;E1_1261044180</title>
<path fill="none" stroke="black" d="M405.81,-1084.81C425.63,-1071.96 456.66,-1051.85 476.4,-1039.05"/>
</g>
<!-- F_1257299717 -->
<g id="node20" class="node">
<title>F_1257299717</title>
<ellipse fill="none" stroke="black" cx="351" cy="-954" rx="27" ry="18"/>
<text text-anchor="middle" x="351" y="-950.3" font-family="Times,serif" font-size="14.00">F</text>
</g>
<!-- T_769132147&#45;&#45;F_1257299717 -->
<g id="edge19" class="edge">
<title>T_769132147&#45;&#45;F_1257299717</title>
<path fill="none" stroke="black" d="M408.43,-1010.83C396.02,-998.77 378.27,-981.51 365.8,-969.38"/>
</g>
<!-- T1_1233595751 -->
<g id="node64" class="node">
<title>T1_1233595751</title>
<ellipse fill="none" stroke="black" cx="423" cy="-954" rx="27" ry="18"/>
<text text-anchor="middle" x="423" y="-950.3" font-family="Times,serif" font-size="14.00">T1</text>
</g>
<!-- T_769132147&#45;&#45;T1_1233595751 -->
<g id="edge63" class="edge">
<title>T_769132147&#45;&#45;T1_1233595751</title>
<path fill="none" stroke="black" d="M423,-1007.7C423,-996.85 423,-982.92 423,-972.1"/>
</g>
<!-- lparen_1474957626 -->
<g id="node21" class="node">
<title>lparen_1474957626</title>
<ellipse fill="none" stroke="black" cx="243" cy="-882" rx="27" ry="18"/>
<text text-anchor="middle" x="243" y="-878.3" font-family="Times,serif" font-size="14.00">(</text>
</g>
<!-- F_1257299717&#45;&#45;lparen_1474957626 -->
<g id="edge20" class="edge">
<title>F_1257299717&#45;&#45;lparen_1474957626</title>
<path fill="none" stroke="black" d="M332.19,-940.81C312.37,-927.96 281.34,-907.85 261.6,-895.05"/>
</g>
<!-- E_181252244 -->
<g id="node22" class="node">
<title>E_181252244</title>
<ellipse fill="none" stroke="black" cx="315" cy="-882" rx="27" ry="18"/>
<text text-anchor="middle" x="315" y="-878.3" font-family="Times,serif" font-size="14.00">E</text>
</g>
<!-- F_1257299717&#45;&#45;E_181252244 -->
<g id="edge21" class="edge">
<title>F_1257299717&#45;&#45;E_181252244</title>
<path fill="none" stroke="black" d="M342.65,-936.76C336.83,-925.46 329.11,-910.44 323.3,-899.15"/>
</g>
<!-- rparen_980364771 -->
<g id="node63" class="node">
<title>rparen_980364771</title>
<ellipse fill="none" stroke="black" cx="387" cy="-882" rx="27" ry="18"/>
<text text-anchor="middle" x="387" y="-878.3" font-family="Times,serif" font-size="14.00">)</text>
</g>
<!-- F_1257299717&#45;&#45;rparen_980364771 -->
<g id="edge62" class="edge">
<title>F_1257299717&#45;&#45;rparen_980364771</title>
<path fill="none" stroke="black" d="M359.35,-936.76C365.17,-925.46 372.89,-910.44 378.7,-899.15"/>
</g>
<!-- T_1733022752 -->
<g id="node23" class="node">
<title>T_1733022752</title>
<ellipse fill="none" stroke="black" cx="279" cy="-810" rx="27" ry="18"/>
<text text-anchor="middle" x="279" y="-806.3" font-family="Times,serif" font-size="14.00">T</text>
</g>
<!-- E_181252244&#45;&#45;T_1733022752 -->
<g id="edge22" class="edge">
<title>E_181252244&#45;&#45;T_1733022752</title>
<path fill="none" stroke="black" d="M306.65,-864.76C300.83,-853.46 293.11,-838.44 287.3,-827.15"/>
</g>
<!-- E1_324112183 -->
<g id="node61" class="node">
<title>E1_324112183</title>
<ellipse fill="none" stroke="black" cx="351" cy="-810" rx="27" ry="18"/>
<text text-anchor="middle" x="351" y="-806.3" font-family="Times,serif" font-size="14.00">E1</text>
</g>
<!-- E_181252244&#45;&#45;E1_324112183 -->
<g id="edge60" class="edge">
<title>E_181252244&#45;&#45;E1_324112183</title>
<path fill="none" stroke="black" d="M323.35,-864.76C329.17,-853.46 336.89,-838.44 342.7,-827.15"/>
</g>
<!-- F_722417467 -->
<g id="node24" class="node">
<title>F_722417467</title>
<ellipse fill="none" stroke="black" cx="189" cy="-738" rx="27" ry="18"/>
<text text-anchor="middle" x="189" y="-734.3" font-family="Times,serif" font-size="14.00">F</text>
</g>
<!-- T_1733022752&#45;&#45;F_722417467 -->
<g id="edge23" class="edge">
<title>T_1733022752&#45;&#45;F_722417467</title>
<path fill="none" stroke="black" d="M262.07,-795.83C245.98,-783.32 221.92,-764.6 205.85,-752.11"/>
</g>
<!-- T1_1262869688 -->
<g id="node26" class="node">
<title>T1_1262869688</title>
<ellipse fill="none" stroke="black" cx="279" cy="-738" rx="27" ry="18"/>
<text text-anchor="middle" x="279" y="-734.3" font-family="Times,serif" font-size="14.00">T1</text>
</g>
<!-- T_1733022752&#45;&#45;T1_1262869688 -->
<g id="edge25" class="edge">
<title>T_1733022752&#45;&#45;T1_1262869688</title>
<path fill="none" stroke="black" d="M279,-791.7C279,-780.85 279,-766.92 279,-756.1"/>
</g>
<!-- number_753631393 -->
<g id="node25" class="node">
<title>number_753631393</title>
<ellipse fill="none" stroke="black" cx="162" cy="-666" rx="27" ry="18"/>
<text text-anchor="middle" x="162" y="-662.3" font-family="Times,serif" font-size="14.00">1</text>
</g>
<!-- F_722417467&#45;&#45;number_753631393 -->
<g id="edge24" class="edge">
<title>F_722417467&#45;&#45;number_753631393</title>
<path fill="none" stroke="black" d="M182.6,-720.41C178.36,-709.41 172.81,-695.03 168.54,-683.96"/>
</g>
<!-- mul_1914108708 -->
<g id="node27" class="node">
<title>mul_1914108708</title>
<ellipse fill="none" stroke="black" cx="234" cy="-666" rx="27" ry="18"/>
<text text-anchor="middle" x="234" y="-662.3" font-family="Times,serif" font-size="14.00">*</text>
</g>
<!-- T1_1262869688&#45;&#45;mul_1914108708 -->
<g id="edge26" class="edge">
<title>T1_1262869688&#45;&#45;mul_1914108708</title>
<path fill="none" stroke="black" d="M268.79,-721.12C261.42,-709.66 251.53,-694.26 244.17,-682.82"/>
</g>
<!-- F_544386226 -->
<g id="node28" class="node">
<title>F_544386226</title>
<ellipse fill="none" stroke="black" cx="306" cy="-666" rx="27" ry="18"/>
<text text-anchor="middle" x="306" y="-662.3" font-family="Times,serif" font-size="14.00">F</text>
</g>
<!-- T1_1262869688&#45;&#45;F_544386226 -->
<g id="edge27" class="edge">
<title>T1_1262869688&#45;&#45;F_544386226</title>
<path fill="none" stroke="black" d="M285.4,-720.41C289.64,-709.41 295.19,-695.03 299.46,-683.96"/>
</g>
<!-- T1_1863655430 -->
<g id="node59" class="node">
<title>T1_1863655430</title>
<ellipse fill="none" stroke="black" cx="414" cy="-666" rx="27" ry="18"/>
<text text-anchor="middle" x="414" y="-662.3" font-family="Times,serif" font-size="14.00">T1</text>
</g>
<!-- T1_1262869688&#45;&#45;T1_1863655430 -->
<g id="edge58" class="edge">
<title>T1_1262869688&#45;&#45;T1_1863655430</title>
<path fill="none" stroke="black" d="M299.8,-726.22C325.24,-713.02 368.05,-690.83 393.4,-677.68"/>
</g>
<!-- lparen_1357700757 -->
<g id="node29" class="node">
<title>lparen_1357700757</title>
<ellipse fill="none" stroke="black" cx="216" cy="-594" rx="27" ry="18"/>
<text text-anchor="middle" x="216" y="-590.3" font-family="Times,serif" font-size="14.00">(</text>
</g>
<!-- F_544386226&#45;&#45;lparen_1357700757 -->
<g id="edge28" class="edge">
<title>F_544386226&#45;&#45;lparen_1357700757</title>
<path fill="none" stroke="black" d="M289.07,-651.83C272.98,-639.32 248.92,-620.6 232.85,-608.11"/>
</g>
<!-- E_900298796 -->
<g id="node30" class="node">
<title>E_900298796</title>
<ellipse fill="none" stroke="black" cx="288" cy="-594" rx="27" ry="18"/>
<text text-anchor="middle" x="288" y="-590.3" font-family="Times,serif" font-size="14.00">E</text>
</g>
<!-- F_544386226&#45;&#45;E_900298796 -->
<g id="edge29" class="edge">
<title>F_544386226&#45;&#45;E_900298796</title>
<path fill="none" stroke="black" d="M301.64,-648.05C298.81,-637.05 295.14,-622.76 292.32,-611.79"/>
</g>
<!-- rparen_1527152775 -->
<g id="node58" class="node">
<title>rparen_1527152775</title>
<ellipse fill="none" stroke="black" cx="360" cy="-594" rx="27" ry="18"/>
<text text-anchor="middle" x="360" y="-590.3" font-family="Times,serif" font-size="14.00">)</text>
</g>
<!-- F_544386226&#45;&#45;rparen_1527152775 -->
<g id="edge57" class="edge">
<title>F_544386226&#45;&#45;rparen_1527152775</title>
<path fill="none" stroke="black" d="M317.98,-649.46C326.93,-637.86 339.11,-622.08 348.05,-610.49"/>
</g>
<!-- T_1889757798 -->
<g id="node31" class="node">
<title>T_1889757798</title>
<ellipse fill="none" stroke="black" cx="252" cy="-522" rx="27" ry="18"/>
<text text-anchor="middle" x="252" y="-518.3" font-family="Times,serif" font-size="14.00">T</text>
</g>
<!-- E_900298796&#45;&#45;T_1889757798 -->
<g id="edge30" class="edge">
<title>E_900298796&#45;&#45;T_1889757798</title>
<path fill="none" stroke="black" d="M279.65,-576.76C273.83,-565.46 266.11,-550.44 260.3,-539.15"/>
</g>
<!-- E1_247162961 -->
<g id="node56" class="node">
<title>E1_247162961</title>
<ellipse fill="none" stroke="black" cx="324" cy="-522" rx="27" ry="18"/>
<text text-anchor="middle" x="324" y="-518.3" font-family="Times,serif" font-size="14.00">E1</text>
</g>
<!-- E_900298796&#45;&#45;E1_247162961 -->
<g id="edge55" class="edge">
<title>E_900298796&#45;&#45;E1_247162961</title>
<path fill="none" stroke="black" d="M296.35,-576.76C302.17,-565.46 309.89,-550.44 315.7,-539.15"/>
</g>
<!-- F_1166106620 -->
<g id="node32" class="node">
<title>F_1166106620</title>
<ellipse fill="none" stroke="black" cx="144" cy="-450" rx="27" ry="18"/>
<text text-anchor="middle" x="144" y="-446.3" font-family="Times,serif" font-size="14.00">F</text>
</g>
<!-- T_1889757798&#45;&#45;F_1166106620 -->
<g id="edge31" class="edge">
<title>T_1889757798&#45;&#45;F_1166106620</title>
<path fill="none" stroke="black" d="M233.19,-508.81C213.37,-495.96 182.34,-475.85 162.6,-463.05"/>
</g>
<!-- T1_221861886 -->
<g id="node34" class="node">
<title>T1_221861886</title>
<ellipse fill="none" stroke="black" cx="252" cy="-450" rx="27" ry="18"/>
<text text-anchor="middle" x="252" y="-446.3" font-family="Times,serif" font-size="14.00">T1</text>
</g>
<!-- T_1889757798&#45;&#45;T1_221861886 -->
<g id="edge33" class="edge">
<title>T_1889757798&#45;&#45;T1_221861886</title>
<path fill="none" stroke="black" d="M252,-503.7C252,-492.85 252,-478.92 252,-468.1"/>
</g>
<!-- number_1932470703 -->
<g id="node33" class="node">
<title>number_1932470703</title>
<ellipse fill="none" stroke="black" cx="144" cy="-378" rx="27" ry="18"/>
<text text-anchor="middle" x="144" y="-374.3" font-family="Times,serif" font-size="14.00">1</text>
</g>
<!-- F_1166106620&#45;&#45;number_1932470703 -->
<g id="edge32" class="edge">
<title>F_1166106620&#45;&#45;number_1932470703</title>
<path fill="none" stroke="black" d="M144,-431.7C144,-420.85 144,-406.92 144,-396.1"/>
</g>
<!-- mul_1713568869 -->
<g id="node35" class="node">
<title>mul_1713568869</title>
<ellipse fill="none" stroke="black" cx="216" cy="-378" rx="27" ry="18"/>
<text text-anchor="middle" x="216" y="-374.3" font-family="Times,serif" font-size="14.00">*</text>
</g>
<!-- T1_221861886&#45;&#45;mul_1713568869 -->
<g id="edge34" class="edge">
<title>T1_221861886&#45;&#45;mul_1713568869</title>
<path fill="none" stroke="black" d="M243.65,-432.76C237.83,-421.46 230.11,-406.44 224.3,-395.15"/>
</g>
<!-- F_697508322 -->
<g id="node36" class="node">
<title>F_697508322</title>
<ellipse fill="none" stroke="black" cx="288" cy="-378" rx="27" ry="18"/>
<text text-anchor="middle" x="288" y="-374.3" font-family="Times,serif" font-size="14.00">F</text>
</g>
<!-- T1_221861886&#45;&#45;F_697508322 -->
<g id="edge35" class="edge">
<title>T1_221861886&#45;&#45;F_697508322</title>
<path fill="none" stroke="black" d="M260.35,-432.76C266.17,-421.46 273.89,-406.44 279.7,-395.15"/>
</g>
<!-- T1_1642679791 -->
<g id="node54" class="node">
<title>T1_1642679791</title>
<ellipse fill="none" stroke="black" cx="378" cy="-378" rx="27" ry="18"/>
<text text-anchor="middle" x="378" y="-374.3" font-family="Times,serif" font-size="14.00">T1</text>
</g>
<!-- T1_221861886&#45;&#45;T1_1642679791 -->
<g id="edge53" class="edge">
<title>T1_221861886&#45;&#45;T1_1642679791</title>
<path fill="none" stroke="black" d="M272.24,-437.75C295.76,-424.69 334.31,-403.27 357.81,-390.22"/>
</g>
<!-- lparen_603658030 -->
<g id="node37" class="node">
<title>lparen_603658030</title>
<ellipse fill="none" stroke="black" cx="180" cy="-306" rx="27" ry="18"/>
<text text-anchor="middle" x="180" y="-302.3" font-family="Times,serif" font-size="14.00">(</text>
</g>
<!-- F_697508322&#45;&#45;lparen_603658030 -->
<g id="edge36" class="edge">
<title>F_697508322&#45;&#45;lparen_603658030</title>
<path fill="none" stroke="black" d="M269.19,-364.81C249.37,-351.96 218.34,-331.85 198.6,-319.05"/>
</g>
<!-- E_1689924104 -->
<g id="node38" class="node">
<title>E_1689924104</title>
<ellipse fill="none" stroke="black" cx="252" cy="-306" rx="27" ry="18"/>
<text text-anchor="middle" x="252" y="-302.3" font-family="Times,serif" font-size="14.00">E</text>
</g>
<!-- F_697508322&#45;&#45;E_1689924104 -->
<g id="edge37" class="edge">
<title>F_697508322&#45;&#45;E_1689924104</title>
<path fill="none" stroke="black" d="M279.65,-360.76C273.83,-349.46 266.11,-334.44 260.3,-323.15"/>
</g>
<!-- rparen_314411620 -->
<g id="node53" class="node">
<title>rparen_314411620</title>
<ellipse fill="none" stroke="black" cx="324" cy="-306" rx="27" ry="18"/>
<text text-anchor="middle" x="324" y="-302.3" font-family="Times,serif" font-size="14.00">)</text>
</g>
<!-- F_697508322&#45;&#45;rparen_314411620 -->
<g id="edge52" class="edge">
<title>F_697508322&#45;&#45;rparen_314411620</title>
<path fill="none" stroke="black" d="M296.35,-360.76C302.17,-349.46 309.89,-334.44 315.7,-323.15"/>
</g>
<!-- T_361380654 -->
<g id="node39" class="node">
<title>T_361380654</title>
<ellipse fill="none" stroke="black" cx="180" cy="-234" rx="27" ry="18"/>
<text text-anchor="middle" x="180" y="-230.3" font-family="Times,serif" font-size="14.00">T</text>
</g>
<!-- E_1689924104&#45;&#45;T_361380654 -->
<g id="edge38" class="edge">
<title>E_1689924104&#45;&#45;T_361380654</title>
<path fill="none" stroke="black" d="M237.43,-290.83C225.02,-278.77 207.27,-261.51 194.8,-249.38"/>
</g>
<!-- E1_1048712791 -->
<g id="node44" class="node">
<title>E1_1048712791</title>
<ellipse fill="none" stroke="black" cx="288" cy="-234" rx="27" ry="18"/>
<text text-anchor="middle" x="288" y="-230.3" font-family="Times,serif" font-size="14.00">E1</text>
</g>
<!-- E_1689924104&#45;&#45;E1_1048712791 -->
<g id="edge43" class="edge">
<title>E_1689924104&#45;&#45;E1_1048712791</title>
<path fill="none" stroke="black" d="M260.35,-288.76C266.17,-277.46 273.89,-262.44 279.7,-251.15"/>
</g>
<!-- F_631673932 -->
<g id="node40" class="node">
<title>F_631673932</title>
<ellipse fill="none" stroke="black" cx="108" cy="-162" rx="27" ry="18"/>
<text text-anchor="middle" x="108" y="-158.3" font-family="Times,serif" font-size="14.00">F</text>
</g>
<!-- T_361380654&#45;&#45;F_631673932 -->
<g id="edge39" class="edge">
<title>T_361380654&#45;&#45;F_631673932</title>
<path fill="none" stroke="black" d="M165.43,-218.83C153.02,-206.77 135.27,-189.51 122.8,-177.38"/>
</g>
<!-- T1_1795225096 -->
<g id="node42" class="node">
<title>T1_1795225096</title>
<ellipse fill="none" stroke="black" cx="180" cy="-162" rx="27" ry="18"/>
<text text-anchor="middle" x="180" y="-158.3" font-family="Times,serif" font-size="14.00">T1</text>
</g>
<!-- T_361380654&#45;&#45;T1_1795225096 -->
<g id="edge41" class="edge">
<title>T_361380654&#45;&#45;T1_1795225096</title>
<path fill="none" stroke="black" d="M180,-215.7C180,-204.85 180,-190.92 180,-180.1"/>
</g>
<!-- number_1579132337 -->
<g id="node41" class="node">
<title>number_1579132337</title>
<ellipse fill="none" stroke="black" cx="108" cy="-90" rx="27" ry="18"/>
<text text-anchor="middle" x="108" y="-86.3" font-family="Times,serif" font-size="14.00">1</text>
</g>
<!-- F_631673932&#45;&#45;number_1579132337 -->
<g id="edge40" class="edge">
<title>F_631673932&#45;&#45;number_1579132337</title>
<path fill="none" stroke="black" d="M108,-143.7C108,-132.85 108,-118.92 108,-108.1"/>
</g>
<!-- \\eps_790094605 -->
<g id="node43" class="node">
<title>\\eps_790094605</title>
<ellipse fill="none" stroke="black" cx="180" cy="-90" rx="27" ry="18"/>
<text text-anchor="middle" x="180" y="-86.3" font-family="Times,serif" font-size="14.00">\eps</text>
</g>
<!-- T1_1795225096&#45;&#45;\\eps_790094605 -->
<g id="edge42" class="edge">
<title>T1_1795225096&#45;&#45;\\eps_790094605</title>
<path fill="none" stroke="black" d="M180,-143.7C180,-132.85 180,-118.92 180,-108.1"/>
</g>
<!-- add_487792155 -->
<g id="node45" class="node">
<title>add_487792155</title>
<ellipse fill="none" stroke="black" cx="252" cy="-162" rx="27" ry="18"/>
<text text-anchor="middle" x="252" y="-158.3" font-family="Times,serif" font-size="14.00">+</text>
</g>
<!-- E1_1048712791&#45;&#45;add_487792155 -->
<g id="edge44" class="edge">
<title>E1_1048712791&#45;&#45;add_487792155</title>
<path fill="none" stroke="black" d="M279.65,-216.76C273.83,-205.46 266.11,-190.44 260.3,-179.15"/>
</g>
<!-- T_1909398279 -->
<g id="node46" class="node">
<title>T_1909398279</title>
<ellipse fill="none" stroke="black" cx="324" cy="-162" rx="27" ry="18"/>
<text text-anchor="middle" x="324" y="-158.3" font-family="Times,serif" font-size="14.00">T</text>
</g>
<!-- E1_1048712791&#45;&#45;T_1909398279 -->
<g id="edge45" class="edge">
<title>E1_1048712791&#45;&#45;T_1909398279</title>
<path fill="none" stroke="black" d="M296.35,-216.76C302.17,-205.46 309.89,-190.44 315.7,-179.15"/>
</g>
<!-- E1_638486177 -->
<g id="node51" class="node">
<title>E1_638486177</title>
<ellipse fill="none" stroke="black" cx="396" cy="-162" rx="27" ry="18"/>
<text text-anchor="middle" x="396" y="-158.3" font-family="Times,serif" font-size="14.00">E1</text>
</g>
<!-- E1_1048712791&#45;&#45;E1_638486177 -->
<g id="edge50" class="edge">
<title>E1_1048712791&#45;&#45;E1_638486177</title>
<path fill="none" stroke="black" d="M306.81,-220.81C326.63,-207.96 357.66,-187.85 377.4,-175.05"/>
</g>
<!-- F_1632670136 -->
<g id="node47" class="node">
<title>F_1632670136</title>
<ellipse fill="none" stroke="black" cx="252" cy="-90" rx="27" ry="18"/>
<text text-anchor="middle" x="252" y="-86.3" font-family="Times,serif" font-size="14.00">F</text>
</g>
<!-- T_1909398279&#45;&#45;F_1632670136 -->
<g id="edge46" class="edge">
<title>T_1909398279&#45;&#45;F_1632670136</title>
<path fill="none" stroke="black" d="M309.43,-146.83C297.02,-134.77 279.27,-117.51 266.8,-105.38"/>
</g>
<!-- T1_1252540239 -->
<g id="node49" class="node">
<title>T1_1252540239</title>
<ellipse fill="none" stroke="black" cx="324" cy="-90" rx="27" ry="18"/>
<text text-anchor="middle" x="324" y="-86.3" font-family="Times,serif" font-size="14.00">T1</text>
</g>
<!-- T_1909398279&#45;&#45;T1_1252540239 -->
<g id="edge48" class="edge">
<title>T_1909398279&#45;&#45;T1_1252540239</title>
<path fill="none" stroke="black" d="M324,-143.7C324,-132.85 324,-118.92 324,-108.1"/>
</g>
<!-- number_1338905451 -->
<g id="node48" class="node">
<title>number_1338905451</title>
<ellipse fill="none" stroke="black" cx="252" cy="-18" rx="27" ry="18"/>
<text text-anchor="middle" x="252" y="-14.3" font-family="Times,serif" font-size="14.00">1</text>
</g>
<!-- F_1632670136&#45;&#45;number_1338905451 -->
<g id="edge47" class="edge">
<title>F_1632670136&#45;&#45;number_1338905451</title>
<path fill="none" stroke="black" d="M252,-71.7C252,-60.85 252,-46.92 252,-36.1"/>
</g>
<!-- \\eps_1136005694 -->
<g id="node50" class="node">
<title>\\eps_1136005694</title>
<ellipse fill="none" stroke="black" cx="324" cy="-18" rx="27" ry="18"/>
<text text-anchor="middle" x="324" y="-14.3" font-family="Times,serif" font-size="14.00">\eps</text>
</g>
<!-- T1_1252540239&#45;&#45;\\eps_1136005694 -->
<g id="edge49" class="edge">
<title>T1_1252540239&#45;&#45;\\eps_1136005694</title>
<path fill="none" stroke="black" d="M324,-71.7C324,-60.85 324,-46.92 324,-36.1"/>
</g>
<!-- \\eps_426019904 -->
<g id="node52" class="node">
<title>\\eps_426019904</title>
<ellipse fill="none" stroke="black" cx="396" cy="-90" rx="27" ry="18"/>
<text text-anchor="middle" x="396" y="-86.3" font-family="Times,serif" font-size="14.00">\eps</text>
</g>
<!-- E1_638486177&#45;&#45;\\eps_426019904 -->
<g id="edge51" class="edge">
<title>E1_638486177&#45;&#45;\\eps_426019904</title>
<path fill="none" stroke="black" d="M396,-143.7C396,-132.85 396,-118.92 396,-108.1"/>
</g>
<!-- \\eps_855700733 -->
<g id="node55" class="node">
<title>\\eps_855700733</title>
<ellipse fill="none" stroke="black" cx="396" cy="-306" rx="27" ry="18"/>
<text text-anchor="middle" x="396" y="-302.3" font-family="Times,serif" font-size="14.00">\eps</text>
</g>
<!-- T1_1642679791&#45;&#45;\\eps_855700733 -->
<g id="edge54" class="edge">
<title>T1_1642679791&#45;&#45;\\eps_855700733</title>
<path fill="none" stroke="black" d="M382.36,-360.05C385.19,-349.05 388.86,-334.76 391.68,-323.79"/>
</g>
<!-- \\eps_1890266440 -->
<g id="node57" class="node">
<title>\\eps_1890266440</title>
<ellipse fill="none" stroke="black" cx="324" cy="-450" rx="27" ry="18"/>
<text text-anchor="middle" x="324" y="-446.3" font-family="Times,serif" font-size="14.00">\eps</text>
</g>
<!-- E1_247162961&#45;&#45;\\eps_1890266440 -->
<g id="edge56" class="edge">
<title>E1_247162961&#45;&#45;\\eps_1890266440</title>
<path fill="none" stroke="black" d="M324,-503.7C324,-492.85 324,-478.92 324,-468.1"/>
</g>
<!-- \\eps_976827477 -->
<g id="node60" class="node">
<title>\\eps_976827477</title>
<ellipse fill="none" stroke="black" cx="432" cy="-594" rx="27" ry="18"/>
<text text-anchor="middle" x="432" y="-590.3" font-family="Times,serif" font-size="14.00">\eps</text>
</g>
<!-- T1_1863655430&#45;&#45;\\eps_976827477 -->
<g id="edge59" class="edge">
<title>T1_1863655430&#45;&#45;\\eps_976827477</title>
<path fill="none" stroke="black" d="M418.36,-648.05C421.19,-637.05 424.86,-622.76 427.68,-611.79"/>
</g>
<!-- \\eps_2092709730 -->
<g id="node62" class="node">
<title>\\eps_2092709730</title>
<ellipse fill="none" stroke="black" cx="351" cy="-738" rx="27" ry="18"/>
<text text-anchor="middle" x="351" y="-734.3" font-family="Times,serif" font-size="14.00">\eps</text>
</g>
<!-- E1_324112183&#45;&#45;\\eps_2092709730 -->
<g id="edge61" class="edge">
<title>E1_324112183&#45;&#45;\\eps_2092709730</title>
<path fill="none" stroke="black" d="M351,-791.7C351,-780.85 351,-766.92 351,-756.1"/>
</g>
<!-- \\eps_1446001495 -->
<g id="node65" class="node">
<title>\\eps_1446001495</title>
<ellipse fill="none" stroke="black" cx="459" cy="-882" rx="27" ry="18"/>
<text text-anchor="middle" x="459" y="-878.3" font-family="Times,serif" font-size="14.00">\eps</text>
</g>
<!-- T1_1233595751&#45;&#45;\\eps_1446001495 -->
<g id="edge64" class="edge">
<title>T1_1233595751&#45;&#45;\\eps_1446001495</title>
<path fill="none" stroke="black" d="M431.35,-936.76C437.17,-925.46 444.89,-910.44 450.7,-899.15"/>
</g>
<!-- \\eps_141110631 -->
<g id="node67" class="node">
<title>\\eps_141110631</title>
<ellipse fill="none" stroke="black" cx="495" cy="-954" rx="27" ry="18"/>
<text text-anchor="middle" x="495" y="-950.3" font-family="Times,serif" font-size="14.00">\eps</text>
</g>
<!-- E1_1261044180&#45;&#45;\\eps_141110631 -->
<g id="edge66" class="edge">
<title>E1_1261044180&#45;&#45;\\eps_141110631</title>
<path fill="none" stroke="black" d="M495,-1007.7C495,-996.85 495,-982.92 495,-972.1"/>
</g>
</g>
</svg>
