<?xml version="1.0" encoding="UTF-8" standalone="no"?>
<!DOCTYPE svg PUBLIC "-//W3C//DTD SVG 1.1//EN"
 "http://www.w3.org/Graphics/SVG/1.1/DTD/svg11.dtd">
<!-- Generated by graphviz version 2.49.1 (20210923.0004)
 -->
<!-- Pages: 1 -->
<svg width="638pt" height="566pt"
 viewBox="0.00 0.00 638.00 565.74" xmlns="http://www.w3.org/2000/svg" xmlns:xlink="http://www.w3.org/1999/xlink">
<g id="graph0" class="graph" transform="scale(1 1) rotate(0) translate(4 561.74)">
<polygon fill="white" stroke="transparent" points="-4,4 -4,-561.74 634,-561.74 634,4 -4,4"/>
<!-- E0_2029372696 -->
<g id="node1" class="node">
<title>E0_2029372696</title>
<ellipse fill="none" stroke="black" cx="135" cy="-530.87" rx="27" ry="26.74"/>
<text text-anchor="middle" x="135" y="-534.67" font-family="Times,serif" font-size="14.00">E0</text>
<text text-anchor="middle" x="135" y="-519.67" font-family="Times,serif" font-size="14.00">&#45;1</text>
</g>
<!-- E_793293778 -->
<g id="node2" class="node">
<title>E_793293778</title>
<ellipse fill="none" stroke="black" cx="135" cy="-450" rx="27" ry="18"/>
<text text-anchor="middle" x="135" y="-446.3" font-family="Times,serif" font-size="14.00">E</text>
</g>
<!-- E0_2029372696&#45;&#45;E_793293778 -->
<g id="edge1" class="edge">
<title>E0_2029372696&#45;&#45;E_793293778</title>
<path fill="none" stroke="black" d="M135,-503.61C135,-491.96 135,-478.57 135,-468.22"/>
</g>
<!-- T_888611662 -->
<g id="node3" class="node">
<title>T_888611662</title>
<ellipse fill="none" stroke="black" cx="99" cy="-378" rx="27" ry="18"/>
<text text-anchor="middle" x="99" y="-374.3" font-family="Times,serif" font-size="14.00">T</text>
</g>
<!-- E_793293778&#45;&#45;T_888611662 -->
<g id="edge2" class="edge">
<title>E_793293778&#45;&#45;T_888611662</title>
<path fill="none" stroke="black" d="M126.65,-432.76C120.83,-421.46 113.11,-406.44 107.3,-395.15"/>
</g>
<!-- E1_269892014 -->
<g id="node8" class="node">
<title>E1_269892014</title>
<ellipse fill="none" stroke="black" cx="207" cy="-378" rx="27" ry="18"/>
<text text-anchor="middle" x="207" y="-374.3" font-family="Times,serif" font-size="14.00">E1</text>
</g>
<!-- E_793293778&#45;&#45;E1_269892014 -->
<g id="edge7" class="edge">
<title>E_793293778&#45;&#45;E1_269892014</title>
<path fill="none" stroke="black" d="M149.57,-434.83C161.98,-422.77 179.73,-405.51 192.2,-393.38"/>
</g>
<!-- F_1966355106 -->
<g id="node4" class="node">
<title>F_1966355106</title>
<ellipse fill="none" stroke="black" cx="27" cy="-306" rx="27" ry="18"/>
<text text-anchor="middle" x="27" y="-302.3" font-family="Times,serif" font-size="14.00">F</text>
</g>
<!-- T_888611662&#45;&#45;F_1966355106 -->
<g id="edge3" class="edge">
<title>T_888611662&#45;&#45;F_1966355106</title>
<path fill="none" stroke="black" d="M84.43,-362.83C72.02,-350.77 54.27,-333.51 41.8,-321.38"/>
</g>
<!-- T1_1233327519 -->
<g id="node6" class="node">
<title>T1_1233327519</title>
<ellipse fill="none" stroke="black" cx="99" cy="-306" rx="27" ry="18"/>
<text text-anchor="middle" x="99" y="-302.3" font-family="Times,serif" font-size="14.00">T1</text>
</g>
<!-- T_888611662&#45;&#45;T1_1233327519 -->
<g id="edge5" class="edge">
<title>T_888611662&#45;&#45;T1_1233327519</title>
<path fill="none" stroke="black" d="M99,-359.7C99,-348.85 99,-334.92 99,-324.1"/>
</g>
<!-- number_599782425 -->
<g id="node5" class="node">
<title>number_599782425</title>
<ellipse fill="none" stroke="black" cx="27" cy="-234" rx="27" ry="18"/>
<text text-anchor="middle" x="27" y="-230.3" font-family="Times,serif" font-size="14.00">2</text>
</g>
<!-- F_1966355106&#45;&#45;number_599782425 -->
<g id="edge4" class="edge">
<title>F_1966355106&#45;&#45;number_599782425</title>
<path fill="none" stroke="black" d="M27,-287.7C27,-276.85 27,-262.92 27,-252.1"/>
</g>
<!-- \\eps_1155769010 -->
<g id="node7" class="node">
<title>\\eps_1155769010</title>
<ellipse fill="none" stroke="black" cx="99" cy="-234" rx="27" ry="18"/>
<text text-anchor="middle" x="99" y="-230.3" font-family="Times,serif" font-size="14.00">\eps</text>
</g>
<!-- T1_1233327519&#45;&#45;\\eps_1155769010 -->
<g id="edge6" class="edge">
<title>T1_1233327519&#45;&#45;\\eps_1155769010</title>
<path fill="none" stroke="black" d="M99,-287.7C99,-276.85 99,-262.92 99,-252.1"/>
</g>
<!-- sub_1280641161 -->
<g id="node9" class="node">
<title>sub_1280641161</title>
<ellipse fill="none" stroke="black" cx="171" cy="-306" rx="27" ry="18"/>
<text text-anchor="middle" x="171" y="-302.3" font-family="Times,serif" font-size="14.00">&#45;</text>
</g>
<!-- E1_269892014&#45;&#45;sub_1280641161 -->
<g id="edge8" class="edge">
<title>E1_269892014&#45;&#45;sub_1280641161</title>
<path fill="none" stroke="black" d="M198.65,-360.76C192.83,-349.46 185.11,-334.44 179.3,-323.15"/>
</g>
<!-- T_489411441 -->
<g id="node10" class="node">
<title>T_489411441</title>
<ellipse fill="none" stroke="black" cx="243" cy="-306" rx="27" ry="18"/>
<text text-anchor="middle" x="243" y="-302.3" font-family="Times,serif" font-size="14.00">T</text>
</g>
<!-- E1_269892014&#45;&#45;T_489411441 -->
<g id="edge9" class="edge">
<title>E1_269892014&#45;&#45;T_489411441</title>
<path fill="none" stroke="black" d="M215.35,-360.76C221.17,-349.46 228.89,-334.44 234.7,-323.15"/>
</g>
<!-- E1_403547747 -->
<g id="node19" class="node">
<title>E1_403547747</title>
<ellipse fill="none" stroke="black" cx="387" cy="-306" rx="27" ry="18"/>
<text text-anchor="middle" x="387" y="-302.3" font-family="Times,serif" font-size="14.00">E1</text>
</g>
<!-- E1_269892014&#45;&#45;E1_403547747 -->
<g id="edge18" class="edge">
<title>E1_269892014&#45;&#45;E1_403547747</title>
<path fill="none" stroke="black" d="M229.8,-368.13C264.33,-354.71 329.52,-329.35 364.1,-315.9"/>
</g>
<!-- F_1141113940 -->
<g id="node11" class="node">
<title>F_1141113940</title>
<ellipse fill="none" stroke="black" cx="171" cy="-234" rx="27" ry="18"/>
<text text-anchor="middle" x="171" y="-230.3" font-family="Times,serif" font-size="14.00">F</text>
</g>
<!-- T_489411441&#45;&#45;F_1141113940 -->
<g id="edge10" class="edge">
<title>T_489411441&#45;&#45;F_1141113940</title>
<path fill="none" stroke="black" d="M228.43,-290.83C216.02,-278.77 198.27,-261.51 185.8,-249.38"/>
</g>
<!-- T1_25936709 -->
<g id="node13" class="node">
<title>T1_25936709</title>
<ellipse fill="none" stroke="black" cx="243" cy="-234" rx="27" ry="18"/>
<text text-anchor="middle" x="243" y="-230.3" font-family="Times,serif" font-size="14.00">T1</text>
</g>
<!-- T_489411441&#45;&#45;T1_25936709 -->
<g id="edge12" class="edge">
<title>T_489411441&#45;&#45;T1_25936709</title>
<path fill="none" stroke="black" d="M243,-287.7C243,-276.85 243,-262.92 243,-252.1"/>
</g>
<!-- number_1711185459 -->
<g id="node12" class="node">
<title>number_1711185459</title>
<ellipse fill="none" stroke="black" cx="99" cy="-162" rx="27" ry="18"/>
<text text-anchor="middle" x="99" y="-158.3" font-family="Times,serif" font-size="14.00">2</text>
</g>
<!-- F_1141113940&#45;&#45;number_1711185459 -->
<g id="edge11" class="edge">
<title>F_1141113940&#45;&#45;number_1711185459</title>
<path fill="none" stroke="black" d="M156.43,-218.83C144.02,-206.77 126.27,-189.51 113.8,-177.38"/>
</g>
<!-- mul_1123559518 -->
<g id="node14" class="node">
<title>mul_1123559518</title>
<ellipse fill="none" stroke="black" cx="171" cy="-162" rx="27" ry="18"/>
<text text-anchor="middle" x="171" y="-158.3" font-family="Times,serif" font-size="14.00">*</text>
</g>
<!-- T1_25936709&#45;&#45;mul_1123559518 -->
<g id="edge13" class="edge">
<title>T1_25936709&#45;&#45;mul_1123559518</title>
<path fill="none" stroke="black" d="M228.43,-218.83C216.02,-206.77 198.27,-189.51 185.8,-177.38"/>
</g>
<!-- F_649769713 -->
<g id="node15" class="node">
<title>F_649769713</title>
<ellipse fill="none" stroke="black" cx="243" cy="-162" rx="27" ry="18"/>
<text text-anchor="middle" x="243" y="-158.3" font-family="Times,serif" font-size="14.00">F</text>
</g>
<!-- T1_25936709&#45;&#45;F_649769713 -->
<g id="edge14" class="edge">
<title>T1_25936709&#45;&#45;F_649769713</title>
<path fill="none" stroke="black" d="M243,-215.7C243,-204.85 243,-190.92 243,-180.1"/>
</g>
<!-- T1_1760219993 -->
<g id="node17" class="node">
<title>T1_1760219993</title>
<ellipse fill="none" stroke="black" cx="315" cy="-162" rx="27" ry="18"/>
<text text-anchor="middle" x="315" y="-158.3" font-family="Times,serif" font-size="14.00">T1</text>
</g>
<!-- T1_25936709&#45;&#45;T1_1760219993 -->
<g id="edge16" class="edge">
<title>T1_25936709&#45;&#45;T1_1760219993</title>
<path fill="none" stroke="black" d="M257.57,-218.83C269.98,-206.77 287.73,-189.51 300.2,-177.38"/>
</g>
<!-- number_925150995 -->
<g id="node16" class="node">
<title>number_925150995</title>
<ellipse fill="none" stroke="black" cx="243" cy="-90" rx="27" ry="18"/>
<text text-anchor="middle" x="243" y="-86.3" font-family="Times,serif" font-size="14.00">2</text>
</g>
<!-- F_649769713&#45;&#45;number_925150995 -->
<g id="edge15" class="edge">
<title>F_649769713&#45;&#45;number_925150995</title>
<path fill="none" stroke="black" d="M243,-143.7C243,-132.85 243,-118.92 243,-108.1"/>
</g>
<!-- \\eps_1800649922 -->
<g id="node18" class="node">
<title>\\eps_1800649922</title>
<ellipse fill="none" stroke="black" cx="315" cy="-90" rx="27" ry="18"/>
<text text-anchor="middle" x="315" y="-86.3" font-family="Times,serif" font-size="14.00">\eps</text>
</g>
<!-- T1_1760219993&#45;&#45;\\eps_1800649922 -->
<g id="edge17" class="edge">
<title>T1_1760219993&#45;&#45;\\eps_1800649922</title>
<path fill="none" stroke="black" d="M315,-143.7C315,-132.85 315,-118.92 315,-108.1"/>
</g>
<!-- add_172215878 -->
<g id="node20" class="node">
<title>add_172215878</title>
<ellipse fill="none" stroke="black" cx="351" cy="-234" rx="27" ry="18"/>
<text text-anchor="middle" x="351" y="-230.3" font-family="Times,serif" font-size="14.00">+</text>
</g>
<!-- E1_403547747&#45;&#45;add_172215878 -->
<g id="edge19" class="edge">
<title>E1_403547747&#45;&#45;add_172215878</title>
<path fill="none" stroke="black" d="M378.65,-288.76C372.83,-277.46 365.11,-262.44 359.3,-251.15"/>
</g>
<!-- T_873309260 -->
<g id="node21" class="node">
<title>T_873309260</title>
<ellipse fill="none" stroke="black" cx="423" cy="-234" rx="27" ry="18"/>
<text text-anchor="middle" x="423" y="-230.3" font-family="Times,serif" font-size="14.00">T</text>
</g>
<!-- E1_403547747&#45;&#45;T_873309260 -->
<g id="edge20" class="edge">
<title>E1_403547747&#45;&#45;T_873309260</title>
<path fill="none" stroke="black" d="M395.35,-288.76C401.17,-277.46 408.89,-262.44 414.7,-251.15"/>
</g>
<!-- E1_1634723627 -->
<g id="node30" class="node">
<title>E1_1634723627</title>
<ellipse fill="none" stroke="black" cx="495" cy="-234" rx="27" ry="18"/>
<text text-anchor="middle" x="495" y="-230.3" font-family="Times,serif" font-size="14.00">E1</text>
</g>
<!-- E1_403547747&#45;&#45;E1_1634723627 -->
<g id="edge29" class="edge">
<title>E1_403547747&#45;&#45;E1_1634723627</title>
<path fill="none" stroke="black" d="M405.81,-292.81C425.63,-279.96 456.66,-259.85 476.4,-247.05"/>
</g>
<!-- F_1112456099 -->
<g id="node22" class="node">
<title>F_1112456099</title>
<ellipse fill="none" stroke="black" cx="387" cy="-162" rx="27" ry="18"/>
<text text-anchor="middle" x="387" y="-158.3" font-family="Times,serif" font-size="14.00">F</text>
</g>
<!-- T_873309260&#45;&#45;F_1112456099 -->
<g id="edge21" class="edge">
<title>T_873309260&#45;&#45;F_1112456099</title>
<path fill="none" stroke="black" d="M414.65,-216.76C408.83,-205.46 401.11,-190.44 395.3,-179.15"/>
</g>
<!-- T1_589363823 -->
<g id="node24" class="node">
<title>T1_589363823</title>
<ellipse fill="none" stroke="black" cx="459" cy="-162" rx="27" ry="18"/>
<text text-anchor="middle" x="459" y="-158.3" font-family="Times,serif" font-size="14.00">T1</text>
</g>
<!-- T_873309260&#45;&#45;T1_589363823 -->
<g id="edge23" class="edge">
<title>T_873309260&#45;&#45;T1_589363823</title>
<path fill="none" stroke="black" d="M431.35,-216.76C437.17,-205.46 444.89,-190.44 450.7,-179.15"/>
</g>
<!-- number_923083575 -->
<g id="node23" class="node">
<title>number_923083575</title>
<ellipse fill="none" stroke="black" cx="387" cy="-90" rx="27" ry="18"/>
<text text-anchor="middle" x="387" y="-86.3" font-family="Times,serif" font-size="14.00">2</text>
</g>
<!-- F_1112456099&#45;&#45;number_923083575 -->
<g id="edge22" class="edge">
<title>F_1112456099&#45;&#45;number_923083575</title>
<path fill="none" stroke="black" d="M387,-143.7C387,-132.85 387,-118.92 387,-108.1"/>
</g>
<!-- div_2052457859 -->
<g id="node25" class="node">
<title>div_2052457859</title>
<ellipse fill="none" stroke="black" cx="459" cy="-90" rx="27" ry="18"/>
<text text-anchor="middle" x="459" y="-86.3" font-family="Times,serif" font-size="14.00">/</text>
</g>
<!-- T1_589363823&#45;&#45;div_2052457859 -->
<g id="edge24" class="edge">
<title>T1_589363823&#45;&#45;div_2052457859</title>
<path fill="none" stroke="black" d="M459,-143.7C459,-132.85 459,-118.92 459,-108.1"/>
</g>
<!-- F_1299327689 -->
<g id="node26" class="node">
<title>F_1299327689</title>
<ellipse fill="none" stroke="black" cx="531" cy="-90" rx="27" ry="18"/>
<text text-anchor="middle" x="531" y="-86.3" font-family="Times,serif" font-size="14.00">F</text>
</g>
<!-- T1_589363823&#45;&#45;F_1299327689 -->
<g id="edge25" class="edge">
<title>T1_589363823&#45;&#45;F_1299327689</title>
<path fill="none" stroke="black" d="M473.57,-146.83C485.98,-134.77 503.73,-117.51 516.2,-105.38"/>
</g>
<!-- T1_2007486296 -->
<g id="node28" class="node">
<title>T1_2007486296</title>
<ellipse fill="none" stroke="black" cx="603" cy="-90" rx="27" ry="18"/>
<text text-anchor="middle" x="603" y="-86.3" font-family="Times,serif" font-size="14.00">T1</text>
</g>
<!-- T1_589363823&#45;&#45;T1_2007486296 -->
<g id="edge27" class="edge">
<title>T1_589363823&#45;&#45;T1_2007486296</title>
<path fill="none" stroke="black" d="M480.25,-150.67C507.47,-137.44 554.4,-114.63 581.67,-101.37"/>
</g>
<!-- number_1408279755 -->
<g id="node27" class="node">
<title>number_1408279755</title>
<ellipse fill="none" stroke="black" cx="531" cy="-18" rx="27" ry="18"/>
<text text-anchor="middle" x="531" y="-14.3" font-family="Times,serif" font-size="14.00">2</text>
</g>
<!-- F_1299327689&#45;&#45;number_1408279755 -->
<g id="edge26" class="edge">
<title>F_1299327689&#45;&#45;number_1408279755</title>
<path fill="none" stroke="black" d="M531,-71.7C531,-60.85 531,-46.92 531,-36.1"/>
</g>
<!-- \\eps_1033348658 -->
<g id="node29" class="node">
<title>\\eps_1033348658</title>
<ellipse fill="none" stroke="black" cx="603" cy="-18" rx="27" ry="18"/>
<text text-anchor="middle" x="603" y="-14.3" font-family="Times,serif" font-size="14.00">\eps</text>
</g>
<!-- T1_2007486296&#45;&#45;\\eps_1033348658 -->
<g id="edge28" class="edge">
<title>T1_2007486296&#45;&#45;\\eps_1033348658</title>
<path fill="none" stroke="black" d="M603,-71.7C603,-60.85 603,-46.92 603,-36.1"/>
</g>
<!-- \\eps_938463537 -->
<g id="node31" class="node">
<title>\\eps_938463537</title>
<ellipse fill="none" stroke="black" cx="531" cy="-162" rx="27" ry="18"/>
<text text-anchor="middle" x="531" y="-158.3" font-family="Times,serif" font-size="14.00">\eps</text>
</g>
<!-- E1_1634723627&#45;&#45;\\eps_938463537 -->
<g id="edge30" class="edge">
<title>E1_1634723627&#45;&#45;\\eps_938463537</title>
<path fill="none" stroke="black" d="M503.35,-216.76C509.17,-205.46 516.89,-190.44 522.7,-179.15"/>
</g>
</g>
</svg>
