<?xml version="1.0" encoding="UTF-8" standalone="no"?>
<!DOCTYPE svg PUBLIC "-//W3C//DTD SVG 1.1//EN"
 "http://www.w3.org/Graphics/SVG/1.1/DTD/svg11.dtd">
<!-- Generated by graphviz version 2.49.1 (20210923.0004)
 -->
<!-- Pages: 1 -->
<svg width="614pt" height="566pt"
 viewBox="0.00 0.00 613.70 565.74" xmlns="http://www.w3.org/2000/svg" xmlns:xlink="http://www.w3.org/1999/xlink">
<g id="graph0" class="graph" transform="scale(1 1) rotate(0) translate(4 561.74)">
<polygon fill="white" stroke="transparent" points="-4,4 -4,-561.74 609.7,-561.74 609.7,4 -4,4"/>
<!-- E0_1088104996 -->
<g id="node1" class="node">
<title>E0_1088104996</title>
<ellipse fill="none" stroke="black" cx="398.7" cy="-530.87" rx="27" ry="26.74"/>
<text text-anchor="middle" x="398.7" y="-534.67" font-family="Times,serif" font-size="14.00">E0</text>
<text text-anchor="middle" x="398.7" y="-519.67" font-family="Times,serif" font-size="14.00">4</text>
</g>
<!-- E_282003944 -->
<g id="node2" class="node">
<title>E_282003944</title>
<ellipse fill="none" stroke="black" cx="398.7" cy="-450" rx="27" ry="18"/>
<text text-anchor="middle" x="398.7" y="-446.3" font-family="Times,serif" font-size="14.00">E</text>
</g>
<!-- E0_1088104996&#45;&#45;E_282003944 -->
<g id="edge1" class="edge">
<title>E0_1088104996&#45;&#45;E_282003944</title>
<path fill="none" stroke="black" d="M398.7,-503.61C398.7,-491.96 398.7,-478.57 398.7,-468.22"/>
</g>
<!-- T_2131960182 -->
<g id="node3" class="node">
<title>T_2131960182</title>
<ellipse fill="none" stroke="black" cx="362.7" cy="-378" rx="27" ry="18"/>
<text text-anchor="middle" x="362.7" y="-374.3" font-family="Times,serif" font-size="14.00">T</text>
</g>
<!-- E_282003944&#45;&#45;T_2131960182 -->
<g id="edge2" class="edge">
<title>E_282003944&#45;&#45;T_2131960182</title>
<path fill="none" stroke="black" d="M390.35,-432.76C384.53,-421.46 376.81,-406.44 371,-395.15"/>
</g>
<!-- E1_1668837760 -->
<g id="node18" class="node">
<title>E1_1668837760</title>
<ellipse fill="none" stroke="black" cx="470.7" cy="-378" rx="27" ry="18"/>
<text text-anchor="middle" x="470.7" y="-374.3" font-family="Times,serif" font-size="14.00">E1</text>
</g>
<!-- E_282003944&#45;&#45;E1_1668837760 -->
<g id="edge17" class="edge">
<title>E_282003944&#45;&#45;E1_1668837760</title>
<path fill="none" stroke="black" d="M413.27,-434.83C425.68,-422.77 443.43,-405.51 455.9,-393.38"/>
</g>
<!-- F_1808432653 -->
<g id="node4" class="node">
<title>F_1808432653</title>
<ellipse fill="none" stroke="black" cx="218.7" cy="-306" rx="27" ry="18"/>
<text text-anchor="middle" x="218.7" y="-302.3" font-family="Times,serif" font-size="14.00">F</text>
</g>
<!-- T_2131960182&#45;&#45;F_1808432653 -->
<g id="edge3" class="edge">
<title>T_2131960182&#45;&#45;F_1808432653</title>
<path fill="none" stroke="black" d="M341.45,-366.67C314.22,-353.44 267.3,-330.63 240.03,-317.37"/>
</g>
<!-- T1_176683244 -->
<g id="node16" class="node">
<title>T1_176683244</title>
<ellipse fill="none" stroke="black" cx="362.7" cy="-306" rx="27" ry="18"/>
<text text-anchor="middle" x="362.7" y="-302.3" font-family="Times,serif" font-size="14.00">T1</text>
</g>
<!-- T_2131960182&#45;&#45;T1_176683244 -->
<g id="edge15" class="edge">
<title>T_2131960182&#45;&#45;T1_176683244</title>
<path fill="none" stroke="black" d="M362.7,-359.7C362.7,-348.85 362.7,-334.92 362.7,-324.1"/>
</g>
<!-- func_640808588 -->
<g id="node5" class="node">
<title>func_640808588</title>
<ellipse fill="none" stroke="black" cx="50.7" cy="-234" rx="50.89" ry="18"/>
<text text-anchor="middle" x="50.7" y="-230.3" font-family="Times,serif" font-size="14.00">$Math.sqrt</text>
</g>
<!-- F_1808432653&#45;&#45;func_640808588 -->
<g id="edge4" class="edge">
<title>F_1808432653&#45;&#45;func_640808588</title>
<path fill="none" stroke="black" d="M196.39,-295.7C167.11,-283.51 115.55,-262.02 82.28,-248.16"/>
</g>
<!-- lparen_1859383896 -->
<g id="node6" class="node">
<title>lparen_1859383896</title>
<ellipse fill="none" stroke="black" cx="146.7" cy="-234" rx="27" ry="18"/>
<text text-anchor="middle" x="146.7" y="-230.3" font-family="Times,serif" font-size="14.00">(</text>
</g>
<!-- F_1808432653&#45;&#45;lparen_1859383896 -->
<g id="edge5" class="edge">
<title>F_1808432653&#45;&#45;lparen_1859383896</title>
<path fill="none" stroke="black" d="M204.13,-290.83C191.72,-278.77 173.96,-261.51 161.49,-249.38"/>
</g>
<!-- E_145581669 -->
<g id="node7" class="node">
<title>E_145581669</title>
<ellipse fill="none" stroke="black" cx="218.7" cy="-234" rx="27" ry="18"/>
<text text-anchor="middle" x="218.7" y="-230.3" font-family="Times,serif" font-size="14.00">E</text>
</g>
<!-- F_1808432653&#45;&#45;E_145581669 -->
<g id="edge6" class="edge">
<title>F_1808432653&#45;&#45;E_145581669</title>
<path fill="none" stroke="black" d="M218.7,-287.7C218.7,-276.85 218.7,-262.92 218.7,-252.1"/>
</g>
<!-- rparen_1335503880 -->
<g id="node15" class="node">
<title>rparen_1335503880</title>
<ellipse fill="none" stroke="black" cx="290.7" cy="-234" rx="27" ry="18"/>
<text text-anchor="middle" x="290.7" y="-230.3" font-family="Times,serif" font-size="14.00">)</text>
</g>
<!-- F_1808432653&#45;&#45;rparen_1335503880 -->
<g id="edge14" class="edge">
<title>F_1808432653&#45;&#45;rparen_1335503880</title>
<path fill="none" stroke="black" d="M233.27,-290.83C245.68,-278.77 263.43,-261.51 275.9,-249.38"/>
</g>
<!-- T_816798571 -->
<g id="node8" class="node">
<title>T_816798571</title>
<ellipse fill="none" stroke="black" cx="182.7" cy="-162" rx="27" ry="18"/>
<text text-anchor="middle" x="182.7" y="-158.3" font-family="Times,serif" font-size="14.00">T</text>
</g>
<!-- E_145581669&#45;&#45;T_816798571 -->
<g id="edge7" class="edge">
<title>E_145581669&#45;&#45;T_816798571</title>
<path fill="none" stroke="black" d="M210.35,-216.76C204.53,-205.46 196.81,-190.44 191,-179.15"/>
</g>
<!-- E1_1107530534 -->
<g id="node13" class="node">
<title>E1_1107530534</title>
<ellipse fill="none" stroke="black" cx="254.7" cy="-162" rx="27" ry="18"/>
<text text-anchor="middle" x="254.7" y="-158.3" font-family="Times,serif" font-size="14.00">E1</text>
</g>
<!-- E_145581669&#45;&#45;E1_1107530534 -->
<g id="edge12" class="edge">
<title>E_145581669&#45;&#45;E1_1107530534</title>
<path fill="none" stroke="black" d="M227.05,-216.76C232.86,-205.46 240.59,-190.44 246.39,-179.15"/>
</g>
<!-- F_428039780 -->
<g id="node9" class="node">
<title>F_428039780</title>
<ellipse fill="none" stroke="black" cx="110.7" cy="-90" rx="27" ry="18"/>
<text text-anchor="middle" x="110.7" y="-86.3" font-family="Times,serif" font-size="14.00">F</text>
</g>
<!-- T_816798571&#45;&#45;F_428039780 -->
<g id="edge8" class="edge">
<title>T_816798571&#45;&#45;F_428039780</title>
<path fill="none" stroke="black" d="M168.13,-146.83C155.72,-134.77 137.96,-117.51 125.49,-105.38"/>
</g>
<!-- T1_198112003 -->
<g id="node11" class="node">
<title>T1_198112003</title>
<ellipse fill="none" stroke="black" cx="182.7" cy="-90" rx="27" ry="18"/>
<text text-anchor="middle" x="182.7" y="-86.3" font-family="Times,serif" font-size="14.00">T1</text>
</g>
<!-- T_816798571&#45;&#45;T1_198112003 -->
<g id="edge10" class="edge">
<title>T_816798571&#45;&#45;T1_198112003</title>
<path fill="none" stroke="black" d="M182.7,-143.7C182.7,-132.85 182.7,-118.92 182.7,-108.1"/>
</g>
<!-- number_1756573246 -->
<g id="node10" class="node">
<title>number_1756573246</title>
<ellipse fill="none" stroke="black" cx="110.7" cy="-18" rx="27" ry="18"/>
<text text-anchor="middle" x="110.7" y="-14.3" font-family="Times,serif" font-size="14.00">4</text>
</g>
<!-- F_428039780&#45;&#45;number_1756573246 -->
<g id="edge9" class="edge">
<title>F_428039780&#45;&#45;number_1756573246</title>
<path fill="none" stroke="black" d="M110.7,-71.7C110.7,-60.85 110.7,-46.92 110.7,-36.1"/>
</g>
<!-- \\eps_1097897234 -->
<g id="node12" class="node">
<title>\\eps_1097897234</title>
<ellipse fill="none" stroke="black" cx="182.7" cy="-18" rx="27" ry="18"/>
<text text-anchor="middle" x="182.7" y="-14.3" font-family="Times,serif" font-size="14.00">\eps</text>
</g>
<!-- T1_198112003&#45;&#45;\\eps_1097897234 -->
<g id="edge11" class="edge">
<title>T1_198112003&#45;&#45;\\eps_1097897234</title>
<path fill="none" stroke="black" d="M182.7,-71.7C182.7,-60.85 182.7,-46.92 182.7,-36.1"/>
</g>
<!-- \\eps_858818438 -->
<g id="node14" class="node">
<title>\\eps_858818438</title>
<ellipse fill="none" stroke="black" cx="254.7" cy="-90" rx="27" ry="18"/>
<text text-anchor="middle" x="254.7" y="-86.3" font-family="Times,serif" font-size="14.00">\eps</text>
</g>
<!-- E1_1107530534&#45;&#45;\\eps_858818438 -->
<g id="edge13" class="edge">
<title>E1_1107530534&#45;&#45;\\eps_858818438</title>
<path fill="none" stroke="black" d="M254.7,-143.7C254.7,-132.85 254.7,-118.92 254.7,-108.1"/>
</g>
<!-- \\eps_1413730361 -->
<g id="node17" class="node">
<title>\\eps_1413730361</title>
<ellipse fill="none" stroke="black" cx="362.7" cy="-234" rx="27" ry="18"/>
<text text-anchor="middle" x="362.7" y="-230.3" font-family="Times,serif" font-size="14.00">\eps</text>
</g>
<!-- T1_176683244&#45;&#45;\\eps_1413730361 -->
<g id="edge16" class="edge">
<title>T1_176683244&#45;&#45;\\eps_1413730361</title>
<path fill="none" stroke="black" d="M362.7,-287.7C362.7,-276.85 362.7,-262.92 362.7,-252.1"/>
</g>
<!-- add_2099051403 -->
<g id="node19" class="node">
<title>add_2099051403</title>
<ellipse fill="none" stroke="black" cx="434.7" cy="-306" rx="27" ry="18"/>
<text text-anchor="middle" x="434.7" y="-302.3" font-family="Times,serif" font-size="14.00">+</text>
</g>
<!-- E1_1668837760&#45;&#45;add_2099051403 -->
<g id="edge18" class="edge">
<title>E1_1668837760&#45;&#45;add_2099051403</title>
<path fill="none" stroke="black" d="M462.35,-360.76C456.53,-349.46 448.81,-334.44 443,-323.15"/>
</g>
<!-- T_1223240796 -->
<g id="node20" class="node">
<title>T_1223240796</title>
<ellipse fill="none" stroke="black" cx="506.7" cy="-306" rx="27" ry="18"/>
<text text-anchor="middle" x="506.7" y="-302.3" font-family="Times,serif" font-size="14.00">T</text>
</g>
<!-- E1_1668837760&#45;&#45;T_1223240796 -->
<g id="edge19" class="edge">
<title>E1_1668837760&#45;&#45;T_1223240796</title>
<path fill="none" stroke="black" d="M479.05,-360.76C484.86,-349.46 492.59,-334.44 498.39,-323.15"/>
</g>
<!-- E1_888287133 -->
<g id="node25" class="node">
<title>E1_888287133</title>
<ellipse fill="none" stroke="black" cx="578.7" cy="-306" rx="27" ry="18"/>
<text text-anchor="middle" x="578.7" y="-302.3" font-family="Times,serif" font-size="14.00">E1</text>
</g>
<!-- E1_1668837760&#45;&#45;E1_888287133 -->
<g id="edge24" class="edge">
<title>E1_1668837760&#45;&#45;E1_888287133</title>
<path fill="none" stroke="black" d="M489.51,-364.81C509.33,-351.96 540.36,-331.85 560.1,-319.05"/>
</g>
<!-- F_48361312 -->
<g id="node21" class="node">
<title>F_48361312</title>
<ellipse fill="none" stroke="black" cx="434.7" cy="-234" rx="27" ry="18"/>
<text text-anchor="middle" x="434.7" y="-230.3" font-family="Times,serif" font-size="14.00">F</text>
</g>
<!-- T_1223240796&#45;&#45;F_48361312 -->
<g id="edge20" class="edge">
<title>T_1223240796&#45;&#45;F_48361312</title>
<path fill="none" stroke="black" d="M492.13,-290.83C479.72,-278.77 461.96,-261.51 449.49,-249.38"/>
</g>
<!-- T1_946802083 -->
<g id="node23" class="node">
<title>T1_946802083</title>
<ellipse fill="none" stroke="black" cx="506.7" cy="-234" rx="27" ry="18"/>
<text text-anchor="middle" x="506.7" y="-230.3" font-family="Times,serif" font-size="14.00">T1</text>
</g>
<!-- T_1223240796&#45;&#45;T1_946802083 -->
<g id="edge22" class="edge">
<title>T_1223240796&#45;&#45;T1_946802083</title>
<path fill="none" stroke="black" d="M506.7,-287.7C506.7,-276.85 506.7,-262.92 506.7,-252.1"/>
</g>
<!-- number_573926093 -->
<g id="node22" class="node">
<title>number_573926093</title>
<ellipse fill="none" stroke="black" cx="434.7" cy="-162" rx="27" ry="18"/>
<text text-anchor="middle" x="434.7" y="-158.3" font-family="Times,serif" font-size="14.00">2</text>
</g>
<!-- F_48361312&#45;&#45;number_573926093 -->
<g id="edge21" class="edge">
<title>F_48361312&#45;&#45;number_573926093</title>
<path fill="none" stroke="black" d="M434.7,-215.7C434.7,-204.85 434.7,-190.92 434.7,-180.1"/>
</g>
<!-- \\eps_962944318 -->
<g id="node24" class="node">
<title>\\eps_962944318</title>
<ellipse fill="none" stroke="black" cx="506.7" cy="-162" rx="27" ry="18"/>
<text text-anchor="middle" x="506.7" y="-158.3" font-family="Times,serif" font-size="14.00">\eps</text>
</g>
<!-- T1_946802083&#45;&#45;\\eps_962944318 -->
<g id="edge23" class="edge">
<title>T1_946802083&#45;&#45;\\eps_962944318</title>
<path fill="none" stroke="black" d="M506.7,-215.7C506.7,-204.85 506.7,-190.92 506.7,-180.1"/>
</g>
<!-- \\eps_1025001676 -->
<g id="node26" class="node">
<title>\\eps_1025001676</title>
<ellipse fill="none" stroke="black" cx="578.7" cy="-234" rx="27" ry="18"/>
<text text-anchor="middle" x="578.7" y="-230.3" font-family="Times,serif" font-size="14.00">\eps</text>
</g>
<!-- E1_888287133&#45;&#45;\\eps_1025001676 -->
<g id="edge25" class="edge">
<title>E1_888287133&#45;&#45;\\eps_1025001676</title>
<path fill="none" stroke="black" d="M578.7,-287.7C578.7,-276.85 578.7,-262.92 578.7,-252.1"/>
</g>
</g>
</svg>
