<?xml version="1.0" encoding="UTF-8" standalone="no"?>
<!DOCTYPE svg PUBLIC "-//W3C//DTD SVG 1.1//EN"
 "http://www.w3.org/Graphics/SVG/1.1/DTD/svg11.dtd">
<!-- Generated by graphviz version 2.49.1 (20210923.0004)
 -->
<!-- Pages: 1 -->
<svg width="206pt" height="350pt"
 viewBox="0.00 0.00 206.00 349.74" xmlns="http://www.w3.org/2000/svg" xmlns:xlink="http://www.w3.org/1999/xlink">
<g id="graph0" class="graph" transform="scale(1 1) rotate(0) translate(4 345.74)">
<polygon fill="white" stroke="transparent" points="-4,4 -4,-345.74 202,-345.74 202,4 -4,4"/>
<!-- E0_1631227617 -->
<g id="node1" class="node">
<title>E0_1631227617</title>
<ellipse fill="none" stroke="black" cx="135" cy="-314.87" rx="27" ry="26.74"/>
<text text-anchor="middle" x="135" y="-318.67" font-family="Times,serif" font-size="14.00">E0</text>
<text text-anchor="middle" x="135" y="-303.67" font-family="Times,serif" font-size="14.00">0</text>
</g>
<!-- E_24650043 -->
<g id="node2" class="node">
<title>E_24650043</title>
<ellipse fill="none" stroke="black" cx="135" cy="-234" rx="27" ry="18"/>
<text text-anchor="middle" x="135" y="-230.3" font-family="Times,serif" font-size="14.00">E</text>
</g>
<!-- E0_1631227617&#45;&#45;E_24650043 -->
<g id="edge1" class="edge">
<title>E0_1631227617&#45;&#45;E_24650043</title>
<path fill="none" stroke="black" d="M135,-287.61C135,-275.96 135,-262.57 135,-252.22"/>
</g>
<!-- T_1896074070 -->
<g id="node3" class="node">
<title>T_1896074070</title>
<ellipse fill="none" stroke="black" cx="99" cy="-162" rx="27" ry="18"/>
<text text-anchor="middle" x="99" y="-158.3" font-family="Times,serif" font-size="14.00">T</text>
</g>
<!-- E_24650043&#45;&#45;T_1896074070 -->
<g id="edge2" class="edge">
<title>E_24650043&#45;&#45;T_1896074070</title>
<path fill="none" stroke="black" d="M126.65,-216.76C120.83,-205.46 113.11,-190.44 107.3,-179.15"/>
</g>
<!-- E1_671596011 -->
<g id="node8" class="node">
<title>E1_671596011</title>
<ellipse fill="none" stroke="black" cx="171" cy="-162" rx="27" ry="18"/>
<text text-anchor="middle" x="171" y="-158.3" font-family="Times,serif" font-size="14.00">E1</text>
</g>
<!-- E_24650043&#45;&#45;E1_671596011 -->
<g id="edge7" class="edge">
<title>E_24650043&#45;&#45;E1_671596011</title>
<path fill="none" stroke="black" d="M143.35,-216.76C149.17,-205.46 156.89,-190.44 162.7,-179.15"/>
</g>
<!-- F_460741164 -->
<g id="node4" class="node">
<title>F_460741164</title>
<ellipse fill="none" stroke="black" cx="27" cy="-90" rx="27" ry="18"/>
<text text-anchor="middle" x="27" y="-86.3" font-family="Times,serif" font-size="14.00">F</text>
</g>
<!-- T_1896074070&#45;&#45;F_460741164 -->
<g id="edge3" class="edge">
<title>T_1896074070&#45;&#45;F_460741164</title>
<path fill="none" stroke="black" d="M84.43,-146.83C72.02,-134.77 54.27,-117.51 41.8,-105.38"/>
</g>
<!-- T1_1858015030 -->
<g id="node6" class="node">
<title>T1_1858015030</title>
<ellipse fill="none" stroke="black" cx="99" cy="-90" rx="27" ry="18"/>
<text text-anchor="middle" x="99" y="-86.3" font-family="Times,serif" font-size="14.00">T1</text>
</g>
<!-- T_1896074070&#45;&#45;T1_1858015030 -->
<g id="edge5" class="edge">
<title>T_1896074070&#45;&#45;T1_1858015030</title>
<path fill="none" stroke="black" d="M99,-143.7C99,-132.85 99,-118.92 99,-108.1"/>
</g>
<!-- \\eps_781091365 -->
<g id="node5" class="node">
<title>\\eps_781091365</title>
<ellipse fill="none" stroke="black" cx="27" cy="-18" rx="27" ry="18"/>
<text text-anchor="middle" x="27" y="-14.3" font-family="Times,serif" font-size="14.00">\eps</text>
</g>
<!-- F_460741164&#45;&#45;\\eps_781091365 -->
<g id="edge4" class="edge">
<title>F_460741164&#45;&#45;\\eps_781091365</title>
<path fill="none" stroke="black" d="M27,-71.7C27,-60.85 27,-46.92 27,-36.1"/>
</g>
<!-- \\eps_25764044 -->
<g id="node7" class="node">
<title>\\eps_25764044</title>
<ellipse fill="none" stroke="black" cx="99" cy="-18" rx="27" ry="18"/>
<text text-anchor="middle" x="99" y="-14.3" font-family="Times,serif" font-size="14.00">\eps</text>
</g>
<!-- T1_1858015030&#45;&#45;\\eps_25764044 -->
<g id="edge6" class="edge">
<title>T1_1858015030&#45;&#45;\\eps_25764044</title>
<path fill="none" stroke="black" d="M99,-71.7C99,-60.85 99,-46.92 99,-36.1"/>
</g>
<!-- \\eps_1925352804 -->
<g id="node9" class="node">
<title>\\eps_1925352804</title>
<ellipse fill="none" stroke="black" cx="171" cy="-90" rx="27" ry="18"/>
<text text-anchor="middle" x="171" y="-86.3" font-family="Times,serif" font-size="14.00">\eps</text>
</g>
<!-- E1_671596011&#45;&#45;\\eps_1925352804 -->
<g id="edge8" class="edge">
<title>E1_671596011&#45;&#45;\\eps_1925352804</title>
<path fill="none" stroke="black" d="M171,-143.7C171,-132.85 171,-118.92 171,-108.1"/>
</g>
</g>
</svg>
