<?xml version="1.0" encoding="UTF-8" standalone="no"?>
<!DOCTYPE svg PUBLIC "-//W3C//DTD SVG 1.1//EN"
 "http://www.w3.org/Graphics/SVG/1.1/DTD/svg11.dtd">
<!-- Generated by graphviz version 2.49.1 (20210923.0004)
 -->
<!-- Pages: 1 -->
<svg width="422pt" height="620pt"
 viewBox="0.00 0.00 422.00 620.00" xmlns="http://www.w3.org/2000/svg" xmlns:xlink="http://www.w3.org/1999/xlink">
<g id="graph0" class="graph" transform="scale(1 1) rotate(0) translate(4 616)">
<polygon fill="white" stroke="transparent" points="-4,4 -4,-616 418,-616 418,4 -4,4"/>
<!-- E0_2111457497 -->
<g id="node1" class="node">
<title>E0_2111457497</title>
<ellipse fill="none" stroke="black" cx="207" cy="-594" rx="27" ry="18"/>
<text text-anchor="middle" x="207" y="-590.3" font-family="Times,serif" font-size="14.00">E0</text>
</g>
<!-- E_1850042097 -->
<g id="node2" class="node">
<title>E_1850042097</title>
<ellipse fill="none" stroke="black" cx="207" cy="-522" rx="27" ry="18"/>
<text text-anchor="middle" x="207" y="-518.3" font-family="Times,serif" font-size="14.00">E</text>
</g>
<!-- E0_2111457497&#45;&#45;E_1850042097 -->
<g id="edge1" class="edge">
<title>E0_2111457497&#45;&#45;E_1850042097</title>
<path fill="none" stroke="black" d="M207,-575.7C207,-564.85 207,-550.92 207,-540.1"/>
</g>
<!-- T_1265508963 -->
<g id="node3" class="node">
<title>T_1265508963</title>
<ellipse fill="none" stroke="black" cx="171" cy="-450" rx="27" ry="18"/>
<text text-anchor="middle" x="171" y="-446.3" font-family="Times,serif" font-size="14.00">T</text>
</g>
<!-- E_1850042097&#45;&#45;T_1265508963 -->
<g id="edge2" class="edge">
<title>E_1850042097&#45;&#45;T_1265508963</title>
<path fill="none" stroke="black" d="M198.65,-504.76C192.83,-493.46 185.11,-478.44 179.3,-467.15"/>
</g>
<!-- E1_1812831622 -->
<g id="node12" class="node">
<title>E1_1812831622</title>
<ellipse fill="none" stroke="black" cx="279" cy="-450" rx="27" ry="18"/>
<text text-anchor="middle" x="279" y="-446.3" font-family="Times,serif" font-size="14.00">E1</text>
</g>
<!-- E_1850042097&#45;&#45;E1_1812831622 -->
<g id="edge11" class="edge">
<title>E_1850042097&#45;&#45;E1_1812831622</title>
<path fill="none" stroke="black" d="M221.57,-506.83C233.98,-494.77 251.73,-477.51 264.2,-465.38"/>
</g>
<!-- F_877612522 -->
<g id="node4" class="node">
<title>F_877612522</title>
<ellipse fill="none" stroke="black" cx="99" cy="-378" rx="27" ry="18"/>
<text text-anchor="middle" x="99" y="-374.3" font-family="Times,serif" font-size="14.00">F</text>
</g>
<!-- T_1265508963&#45;&#45;F_877612522 -->
<g id="edge3" class="edge">
<title>T_1265508963&#45;&#45;F_877612522</title>
<path fill="none" stroke="black" d="M156.43,-434.83C144.02,-422.77 126.27,-405.51 113.8,-393.38"/>
</g>
<!-- T1_1398241764 -->
<g id="node10" class="node">
<title>T1_1398241764</title>
<ellipse fill="none" stroke="black" cx="171" cy="-378" rx="27" ry="18"/>
<text text-anchor="middle" x="171" y="-374.3" font-family="Times,serif" font-size="14.00">T1</text>
</g>
<!-- T_1265508963&#45;&#45;T1_1398241764 -->
<g id="edge9" class="edge">
<title>T_1265508963&#45;&#45;T1_1398241764</title>
<path fill="none" stroke="black" d="M171,-431.7C171,-420.85 171,-406.92 171,-396.1"/>
</g>
<!-- G_461129530 -->
<g id="node5" class="node">
<title>G_461129530</title>
<ellipse fill="none" stroke="black" cx="27" cy="-306" rx="27" ry="18"/>
<text text-anchor="middle" x="27" y="-302.3" font-family="Times,serif" font-size="14.00">G</text>
</g>
<!-- F_877612522&#45;&#45;G_461129530 -->
<g id="edge4" class="edge">
<title>F_877612522&#45;&#45;G_461129530</title>
<path fill="none" stroke="black" d="M84.43,-362.83C72.02,-350.77 54.27,-333.51 41.8,-321.38"/>
</g>
<!-- F1_711112124 -->
<g id="node8" class="node">
<title>F1_711112124</title>
<ellipse fill="none" stroke="black" cx="99" cy="-306" rx="27" ry="18"/>
<text text-anchor="middle" x="99" y="-302.3" font-family="Times,serif" font-size="14.00">F1</text>
</g>
<!-- F_877612522&#45;&#45;F1_711112124 -->
<g id="edge7" class="edge">
<title>F_877612522&#45;&#45;F1_711112124</title>
<path fill="none" stroke="black" d="M99,-359.7C99,-348.85 99,-334.92 99,-324.1"/>
</g>
<!-- H_1582028874 -->
<g id="node6" class="node">
<title>H_1582028874</title>
<ellipse fill="none" stroke="black" cx="27" cy="-234" rx="27" ry="18"/>
<text text-anchor="middle" x="27" y="-230.3" font-family="Times,serif" font-size="14.00">H</text>
</g>
<!-- G_461129530&#45;&#45;H_1582028874 -->
<g id="edge5" class="edge">
<title>G_461129530&#45;&#45;H_1582028874</title>
<path fill="none" stroke="black" d="M27,-287.7C27,-276.85 27,-262.92 27,-252.1"/>
</g>
<!-- var_1686934746 -->
<g id="node7" class="node">
<title>var_1686934746</title>
<ellipse fill="none" stroke="black" cx="27" cy="-162" rx="27" ry="18"/>
<text text-anchor="middle" x="27" y="-158.3" font-family="Times,serif" font-size="14.00">A</text>
</g>
<!-- H_1582028874&#45;&#45;var_1686934746 -->
<g id="edge6" class="edge">
<title>H_1582028874&#45;&#45;var_1686934746</title>
<path fill="none" stroke="black" d="M27,-215.7C27,-204.85 27,-190.92 27,-180.1"/>
</g>
<!-- \\eps_1407083101 -->
<g id="node9" class="node">
<title>\\eps_1407083101</title>
<ellipse fill="none" stroke="black" cx="99" cy="-234" rx="27" ry="18"/>
<text text-anchor="middle" x="99" y="-230.3" font-family="Times,serif" font-size="14.00">\eps</text>
</g>
<!-- F1_711112124&#45;&#45;\\eps_1407083101 -->
<g id="edge8" class="edge">
<title>F1_711112124&#45;&#45;\\eps_1407083101</title>
<path fill="none" stroke="black" d="M99,-287.7C99,-276.85 99,-262.92 99,-252.1"/>
</g>
<!-- \\eps_1409092880 -->
<g id="node11" class="node">
<title>\\eps_1409092880</title>
<ellipse fill="none" stroke="black" cx="171" cy="-306" rx="27" ry="18"/>
<text text-anchor="middle" x="171" y="-302.3" font-family="Times,serif" font-size="14.00">\eps</text>
</g>
<!-- T1_1398241764&#45;&#45;\\eps_1409092880 -->
<g id="edge10" class="edge">
<title>T1_1398241764&#45;&#45;\\eps_1409092880</title>
<path fill="none" stroke="black" d="M171,-359.7C171,-348.85 171,-334.92 171,-324.1"/>
</g>
<!-- or_1289869008 -->
<g id="node13" class="node">
<title>or_1289869008</title>
<ellipse fill="none" stroke="black" cx="243" cy="-378" rx="27" ry="18"/>
<text text-anchor="middle" x="243" y="-374.3" font-family="Times,serif" font-size="14.00">|</text>
</g>
<!-- E1_1812831622&#45;&#45;or_1289869008 -->
<g id="edge12" class="edge">
<title>E1_1812831622&#45;&#45;or_1289869008</title>
<path fill="none" stroke="black" d="M270.65,-432.76C264.83,-421.46 257.11,-406.44 251.3,-395.15"/>
</g>
<!-- T_605101809 -->
<g id="node14" class="node">
<title>T_605101809</title>
<ellipse fill="none" stroke="black" cx="315" cy="-378" rx="27" ry="18"/>
<text text-anchor="middle" x="315" y="-374.3" font-family="Times,serif" font-size="14.00">T</text>
</g>
<!-- E1_1812831622&#45;&#45;T_605101809 -->
<g id="edge13" class="edge">
<title>E1_1812831622&#45;&#45;T_605101809</title>
<path fill="none" stroke="black" d="M287.35,-432.76C293.17,-421.46 300.89,-406.44 306.7,-395.15"/>
</g>
<!-- E1_768415370 -->
<g id="node28" class="node">
<title>E1_768415370</title>
<ellipse fill="none" stroke="black" cx="387" cy="-378" rx="27" ry="18"/>
<text text-anchor="middle" x="387" y="-374.3" font-family="Times,serif" font-size="14.00">E1</text>
</g>
<!-- E1_1812831622&#45;&#45;E1_768415370 -->
<g id="edge27" class="edge">
<title>E1_1812831622&#45;&#45;E1_768415370</title>
<path fill="none" stroke="black" d="M297.81,-436.81C317.63,-423.96 348.66,-403.85 368.4,-391.05"/>
</g>
<!-- F_524223214 -->
<g id="node15" class="node">
<title>F_524223214</title>
<ellipse fill="none" stroke="black" cx="243" cy="-306" rx="27" ry="18"/>
<text text-anchor="middle" x="243" y="-302.3" font-family="Times,serif" font-size="14.00">F</text>
</g>
<!-- T_605101809&#45;&#45;F_524223214 -->
<g id="edge14" class="edge">
<title>T_605101809&#45;&#45;F_524223214</title>
<path fill="none" stroke="black" d="M300.43,-362.83C288.02,-350.77 270.27,-333.51 257.8,-321.38"/>
</g>
<!-- T1_782689036 -->
<g id="node26" class="node">
<title>T1_782689036</title>
<ellipse fill="none" stroke="black" cx="315" cy="-306" rx="27" ry="18"/>
<text text-anchor="middle" x="315" y="-302.3" font-family="Times,serif" font-size="14.00">T1</text>
</g>
<!-- T_605101809&#45;&#45;T1_782689036 -->
<g id="edge25" class="edge">
<title>T_605101809&#45;&#45;T1_782689036</title>
<path fill="none" stroke="black" d="M315,-359.7C315,-348.85 315,-334.92 315,-324.1"/>
</g>
<!-- G_534666530 -->
<g id="node16" class="node">
<title>G_534666530</title>
<ellipse fill="none" stroke="black" cx="171" cy="-234" rx="27" ry="18"/>
<text text-anchor="middle" x="171" y="-230.3" font-family="Times,serif" font-size="14.00">G</text>
</g>
<!-- F_524223214&#45;&#45;G_534666530 -->
<g id="edge15" class="edge">
<title>F_524223214&#45;&#45;G_534666530</title>
<path fill="none" stroke="black" d="M228.43,-290.83C216.02,-278.77 198.27,-261.51 185.8,-249.38"/>
</g>
<!-- F1_382627885 -->
<g id="node19" class="node">
<title>F1_382627885</title>
<ellipse fill="none" stroke="black" cx="243" cy="-234" rx="27" ry="18"/>
<text text-anchor="middle" x="243" y="-230.3" font-family="Times,serif" font-size="14.00">F1</text>
</g>
<!-- F_524223214&#45;&#45;F1_382627885 -->
<g id="edge18" class="edge">
<title>F_524223214&#45;&#45;F1_382627885</title>
<path fill="none" stroke="black" d="M243,-287.7C243,-276.85 243,-262.92 243,-252.1"/>
</g>
<!-- H_1573605215 -->
<g id="node17" class="node">
<title>H_1573605215</title>
<ellipse fill="none" stroke="black" cx="135" cy="-162" rx="27" ry="18"/>
<text text-anchor="middle" x="135" y="-158.3" font-family="Times,serif" font-size="14.00">H</text>
</g>
<!-- G_534666530&#45;&#45;H_1573605215 -->
<g id="edge16" class="edge">
<title>G_534666530&#45;&#45;H_1573605215</title>
<path fill="none" stroke="black" d="M162.65,-216.76C156.83,-205.46 149.11,-190.44 143.3,-179.15"/>
</g>
<!-- var_1904288897 -->
<g id="node18" class="node">
<title>var_1904288897</title>
<ellipse fill="none" stroke="black" cx="135" cy="-90" rx="27" ry="18"/>
<text text-anchor="middle" x="135" y="-86.3" font-family="Times,serif" font-size="14.00">B</text>
</g>
<!-- H_1573605215&#45;&#45;var_1904288897 -->
<g id="edge17" class="edge">
<title>H_1573605215&#45;&#45;var_1904288897</title>
<path fill="none" stroke="black" d="M135,-143.7C135,-132.85 135,-118.92 135,-108.1"/>
</g>
<!-- and_2073299099 -->
<g id="node20" class="node">
<title>and_2073299099</title>
<ellipse fill="none" stroke="black" cx="207" cy="-162" rx="27" ry="18"/>
<text text-anchor="middle" x="207" y="-158.3" font-family="Times,serif" font-size="14.00">&amp;</text>
</g>
<!-- F1_382627885&#45;&#45;and_2073299099 -->
<g id="edge19" class="edge">
<title>F1_382627885&#45;&#45;and_2073299099</title>
<path fill="none" stroke="black" d="M234.65,-216.76C228.83,-205.46 221.11,-190.44 215.3,-179.15"/>
</g>
<!-- G_2090991873 -->
<g id="node21" class="node">
<title>G_2090991873</title>
<ellipse fill="none" stroke="black" cx="279" cy="-162" rx="27" ry="18"/>
<text text-anchor="middle" x="279" y="-158.3" font-family="Times,serif" font-size="14.00">G</text>
</g>
<!-- F1_382627885&#45;&#45;G_2090991873 -->
<g id="edge20" class="edge">
<title>F1_382627885&#45;&#45;G_2090991873</title>
<path fill="none" stroke="black" d="M251.35,-216.76C257.17,-205.46 264.89,-190.44 270.7,-179.15"/>
</g>
<!-- F1_979291363 -->
<g id="node24" class="node">
<title>F1_979291363</title>
<ellipse fill="none" stroke="black" cx="351" cy="-162" rx="27" ry="18"/>
<text text-anchor="middle" x="351" y="-158.3" font-family="Times,serif" font-size="14.00">F1</text>
</g>
<!-- F1_382627885&#45;&#45;F1_979291363 -->
<g id="edge23" class="edge">
<title>F1_382627885&#45;&#45;F1_979291363</title>
<path fill="none" stroke="black" d="M261.81,-220.81C281.63,-207.96 312.66,-187.85 332.4,-175.05"/>
</g>
<!-- H_75470648 -->
<g id="node22" class="node">
<title>H_75470648</title>
<ellipse fill="none" stroke="black" cx="279" cy="-90" rx="27" ry="18"/>
<text text-anchor="middle" x="279" y="-86.3" font-family="Times,serif" font-size="14.00">H</text>
</g>
<!-- G_2090991873&#45;&#45;H_75470648 -->
<g id="edge21" class="edge">
<title>G_2090991873&#45;&#45;H_75470648</title>
<path fill="none" stroke="black" d="M279,-143.7C279,-132.85 279,-118.92 279,-108.1"/>
</g>
<!-- var_1633013890 -->
<g id="node23" class="node">
<title>var_1633013890</title>
<ellipse fill="none" stroke="black" cx="279" cy="-18" rx="27" ry="18"/>
<text text-anchor="middle" x="279" y="-14.3" font-family="Times,serif" font-size="14.00">C</text>
</g>
<!-- H_75470648&#45;&#45;var_1633013890 -->
<g id="edge22" class="edge">
<title>H_75470648&#45;&#45;var_1633013890</title>
<path fill="none" stroke="black" d="M279,-71.7C279,-60.85 279,-46.92 279,-36.1"/>
</g>
<!-- \\eps_1444440224 -->
<g id="node25" class="node">
<title>\\eps_1444440224</title>
<ellipse fill="none" stroke="black" cx="351" cy="-90" rx="27" ry="18"/>
<text text-anchor="middle" x="351" y="-86.3" font-family="Times,serif" font-size="14.00">\eps</text>
</g>
<!-- F1_979291363&#45;&#45;\\eps_1444440224 -->
<g id="edge24" class="edge">
<title>F1_979291363&#45;&#45;\\eps_1444440224</title>
<path fill="none" stroke="black" d="M351,-143.7C351,-132.85 351,-118.92 351,-108.1"/>
</g>
<!-- \\eps_1631119258 -->
<g id="node27" class="node">
<title>\\eps_1631119258</title>
<ellipse fill="none" stroke="black" cx="315" cy="-234" rx="27" ry="18"/>
<text text-anchor="middle" x="315" y="-230.3" font-family="Times,serif" font-size="14.00">\eps</text>
</g>
<!-- T1_782689036&#45;&#45;\\eps_1631119258 -->
<g id="edge26" class="edge">
<title>T1_782689036&#45;&#45;\\eps_1631119258</title>
<path fill="none" stroke="black" d="M315,-287.7C315,-276.85 315,-262.92 315,-252.1"/>
</g>
<!-- \\eps_948250363 -->
<g id="node29" class="node">
<title>\\eps_948250363</title>
<ellipse fill="none" stroke="black" cx="387" cy="-306" rx="27" ry="18"/>
<text text-anchor="middle" x="387" y="-302.3" font-family="Times,serif" font-size="14.00">\eps</text>
</g>
<!-- E1_768415370&#45;&#45;\\eps_948250363 -->
<g id="edge28" class="edge">
<title>E1_768415370&#45;&#45;\\eps_948250363</title>
<path fill="none" stroke="black" d="M387,-359.7C387,-348.85 387,-334.92 387,-324.1"/>
</g>
</g>
</svg>
