<?xml version="1.0" encoding="UTF-8" standalone="no"?>
<!DOCTYPE svg PUBLIC "-//W3C//DTD SVG 1.1//EN"
 "http://www.w3.org/Graphics/SVG/1.1/DTD/svg11.dtd">
<!-- Generated by graphviz version 2.49.1 (20210923.0004)
 -->
<!-- Pages: 1 -->
<svg width="494pt" height="620pt"
 viewBox="0.00 0.00 494.00 620.00" xmlns="http://www.w3.org/2000/svg" xmlns:xlink="http://www.w3.org/1999/xlink">
<g id="graph0" class="graph" transform="scale(1 1) rotate(0) translate(4 616)">
<polygon fill="white" stroke="transparent" points="-4,4 -4,-616 490,-616 490,4 -4,4"/>
<!-- E0_1259639178 -->
<g id="node1" class="node">
<title>E0_1259639178</title>
<ellipse fill="none" stroke="black" cx="207" cy="-594" rx="27" ry="18"/>
<text text-anchor="middle" x="207" y="-590.3" font-family="Times,serif" font-size="14.00">E0</text>
</g>
<!-- E_1830745997 -->
<g id="node2" class="node">
<title>E_1830745997</title>
<ellipse fill="none" stroke="black" cx="207" cy="-522" rx="27" ry="18"/>
<text text-anchor="middle" x="207" y="-518.3" font-family="Times,serif" font-size="14.00">E</text>
</g>
<!-- E0_1259639178&#45;&#45;E_1830745997 -->
<g id="edge1" class="edge">
<title>E0_1259639178&#45;&#45;E_1830745997</title>
<path fill="none" stroke="black" d="M207,-575.7C207,-564.85 207,-550.92 207,-540.1"/>
</g>
<!-- T_443290224 -->
<g id="node3" class="node">
<title>T_443290224</title>
<ellipse fill="none" stroke="black" cx="171" cy="-450" rx="27" ry="18"/>
<text text-anchor="middle" x="171" y="-446.3" font-family="Times,serif" font-size="14.00">T</text>
</g>
<!-- E_1830745997&#45;&#45;T_443290224 -->
<g id="edge2" class="edge">
<title>E_1830745997&#45;&#45;T_443290224</title>
<path fill="none" stroke="black" d="M198.65,-504.76C192.83,-493.46 185.11,-478.44 179.3,-467.15"/>
</g>
<!-- E1_1722570594 -->
<g id="node12" class="node">
<title>E1_1722570594</title>
<ellipse fill="none" stroke="black" cx="279" cy="-450" rx="27" ry="18"/>
<text text-anchor="middle" x="279" y="-446.3" font-family="Times,serif" font-size="14.00">E1</text>
</g>
<!-- E_1830745997&#45;&#45;E1_1722570594 -->
<g id="edge11" class="edge">
<title>E_1830745997&#45;&#45;E1_1722570594</title>
<path fill="none" stroke="black" d="M221.57,-506.83C233.98,-494.77 251.73,-477.51 264.2,-465.38"/>
</g>
<!-- F_413218476 -->
<g id="node4" class="node">
<title>F_413218476</title>
<ellipse fill="none" stroke="black" cx="99" cy="-378" rx="27" ry="18"/>
<text text-anchor="middle" x="99" y="-374.3" font-family="Times,serif" font-size="14.00">F</text>
</g>
<!-- T_443290224&#45;&#45;F_413218476 -->
<g id="edge3" class="edge">
<title>T_443290224&#45;&#45;F_413218476</title>
<path fill="none" stroke="black" d="M156.43,-434.83C144.02,-422.77 126.27,-405.51 113.8,-393.38"/>
</g>
<!-- T1_1561502550 -->
<g id="node10" class="node">
<title>T1_1561502550</title>
<ellipse fill="none" stroke="black" cx="171" cy="-378" rx="27" ry="18"/>
<text text-anchor="middle" x="171" y="-374.3" font-family="Times,serif" font-size="14.00">T1</text>
</g>
<!-- T_443290224&#45;&#45;T1_1561502550 -->
<g id="edge9" class="edge">
<title>T_443290224&#45;&#45;T1_1561502550</title>
<path fill="none" stroke="black" d="M171,-431.7C171,-420.85 171,-406.92 171,-396.1"/>
</g>
<!-- G_2010545395 -->
<g id="node5" class="node">
<title>G_2010545395</title>
<ellipse fill="none" stroke="black" cx="27" cy="-306" rx="27" ry="18"/>
<text text-anchor="middle" x="27" y="-302.3" font-family="Times,serif" font-size="14.00">G</text>
</g>
<!-- F_413218476&#45;&#45;G_2010545395 -->
<g id="edge4" class="edge">
<title>F_413218476&#45;&#45;G_2010545395</title>
<path fill="none" stroke="black" d="M84.43,-362.83C72.02,-350.77 54.27,-333.51 41.8,-321.38"/>
</g>
<!-- F1_116289363 -->
<g id="node8" class="node">
<title>F1_116289363</title>
<ellipse fill="none" stroke="black" cx="99" cy="-306" rx="27" ry="18"/>
<text text-anchor="middle" x="99" y="-302.3" font-family="Times,serif" font-size="14.00">F1</text>
</g>
<!-- F_413218476&#45;&#45;F1_116289363 -->
<g id="edge7" class="edge">
<title>F_413218476&#45;&#45;F1_116289363</title>
<path fill="none" stroke="black" d="M99,-359.7C99,-348.85 99,-334.92 99,-324.1"/>
</g>
<!-- H_1844334363 -->
<g id="node6" class="node">
<title>H_1844334363</title>
<ellipse fill="none" stroke="black" cx="27" cy="-234" rx="27" ry="18"/>
<text text-anchor="middle" x="27" y="-230.3" font-family="Times,serif" font-size="14.00">H</text>
</g>
<!-- G_2010545395&#45;&#45;H_1844334363 -->
<g id="edge5" class="edge">
<title>G_2010545395&#45;&#45;H_1844334363</title>
<path fill="none" stroke="black" d="M27,-287.7C27,-276.85 27,-262.92 27,-252.1"/>
</g>
<!-- var_392904516 -->
<g id="node7" class="node">
<title>var_392904516</title>
<ellipse fill="none" stroke="black" cx="27" cy="-162" rx="27" ry="18"/>
<text text-anchor="middle" x="27" y="-158.3" font-family="Times,serif" font-size="14.00">A</text>
</g>
<!-- H_1844334363&#45;&#45;var_392904516 -->
<g id="edge6" class="edge">
<title>H_1844334363&#45;&#45;var_392904516</title>
<path fill="none" stroke="black" d="M27,-215.7C27,-204.85 27,-190.92 27,-180.1"/>
</g>
<!-- \\eps_1109113497 -->
<g id="node9" class="node">
<title>\\eps_1109113497</title>
<ellipse fill="none" stroke="black" cx="99" cy="-234" rx="27" ry="18"/>
<text text-anchor="middle" x="99" y="-230.3" font-family="Times,serif" font-size="14.00">\eps</text>
</g>
<!-- F1_116289363&#45;&#45;\\eps_1109113497 -->
<g id="edge8" class="edge">
<title>F1_116289363&#45;&#45;\\eps_1109113497</title>
<path fill="none" stroke="black" d="M99,-287.7C99,-276.85 99,-262.92 99,-252.1"/>
</g>
<!-- \\eps_323823279 -->
<g id="node11" class="node">
<title>\\eps_323823279</title>
<ellipse fill="none" stroke="black" cx="171" cy="-306" rx="27" ry="18"/>
<text text-anchor="middle" x="171" y="-302.3" font-family="Times,serif" font-size="14.00">\eps</text>
</g>
<!-- T1_1561502550&#45;&#45;\\eps_323823279 -->
<g id="edge10" class="edge">
<title>T1_1561502550&#45;&#45;\\eps_323823279</title>
<path fill="none" stroke="black" d="M171,-359.7C171,-348.85 171,-334.92 171,-324.1"/>
</g>
<!-- or_2038232668 -->
<g id="node13" class="node">
<title>or_2038232668</title>
<ellipse fill="none" stroke="black" cx="243" cy="-378" rx="27" ry="18"/>
<text text-anchor="middle" x="243" y="-374.3" font-family="Times,serif" font-size="14.00">|</text>
</g>
<!-- E1_1722570594&#45;&#45;or_2038232668 -->
<g id="edge12" class="edge">
<title>E1_1722570594&#45;&#45;or_2038232668</title>
<path fill="none" stroke="black" d="M270.65,-432.76C264.83,-421.46 257.11,-406.44 251.3,-395.15"/>
</g>
<!-- T_834466358 -->
<g id="node14" class="node">
<title>T_834466358</title>
<ellipse fill="none" stroke="black" cx="315" cy="-378" rx="27" ry="18"/>
<text text-anchor="middle" x="315" y="-374.3" font-family="Times,serif" font-size="14.00">T</text>
</g>
<!-- E1_1722570594&#45;&#45;T_834466358 -->
<g id="edge13" class="edge">
<title>E1_1722570594&#45;&#45;T_834466358</title>
<path fill="none" stroke="black" d="M287.35,-432.76C293.17,-421.46 300.89,-406.44 306.7,-395.15"/>
</g>
<!-- E1_1901238627 -->
<g id="node31" class="node">
<title>E1_1901238627</title>
<ellipse fill="none" stroke="black" cx="387" cy="-378" rx="27" ry="18"/>
<text text-anchor="middle" x="387" y="-374.3" font-family="Times,serif" font-size="14.00">E1</text>
</g>
<!-- E1_1722570594&#45;&#45;E1_1901238627 -->
<g id="edge30" class="edge">
<title>E1_1722570594&#45;&#45;E1_1901238627</title>
<path fill="none" stroke="black" d="M297.81,-436.81C317.63,-423.96 348.66,-403.85 368.4,-391.05"/>
</g>
<!-- F_1262408432 -->
<g id="node15" class="node">
<title>F_1262408432</title>
<ellipse fill="none" stroke="black" cx="243" cy="-306" rx="27" ry="18"/>
<text text-anchor="middle" x="243" y="-302.3" font-family="Times,serif" font-size="14.00">F</text>
</g>
<!-- T_834466358&#45;&#45;F_1262408432 -->
<g id="edge14" class="edge">
<title>T_834466358&#45;&#45;F_1262408432</title>
<path fill="none" stroke="black" d="M300.43,-362.83C288.02,-350.77 270.27,-333.51 257.8,-321.38"/>
</g>
<!-- T1_584561912 -->
<g id="node21" class="node">
<title>T1_584561912</title>
<ellipse fill="none" stroke="black" cx="315" cy="-306" rx="27" ry="18"/>
<text text-anchor="middle" x="315" y="-302.3" font-family="Times,serif" font-size="14.00">T1</text>
</g>
<!-- T_834466358&#45;&#45;T1_584561912 -->
<g id="edge20" class="edge">
<title>T_834466358&#45;&#45;T1_584561912</title>
<path fill="none" stroke="black" d="M315,-359.7C315,-348.85 315,-334.92 315,-324.1"/>
</g>
<!-- G_1336777650 -->
<g id="node16" class="node">
<title>G_1336777650</title>
<ellipse fill="none" stroke="black" cx="171" cy="-234" rx="27" ry="18"/>
<text text-anchor="middle" x="171" y="-230.3" font-family="Times,serif" font-size="14.00">G</text>
</g>
<!-- F_1262408432&#45;&#45;G_1336777650 -->
<g id="edge15" class="edge">
<title>F_1262408432&#45;&#45;G_1336777650</title>
<path fill="none" stroke="black" d="M228.43,-290.83C216.02,-278.77 198.27,-261.51 185.8,-249.38"/>
</g>
<!-- F1_974308356 -->
<g id="node19" class="node">
<title>F1_974308356</title>
<ellipse fill="none" stroke="black" cx="243" cy="-234" rx="27" ry="18"/>
<text text-anchor="middle" x="243" y="-230.3" font-family="Times,serif" font-size="14.00">F1</text>
</g>
<!-- F_1262408432&#45;&#45;F1_974308356 -->
<g id="edge18" class="edge">
<title>F_1262408432&#45;&#45;F1_974308356</title>
<path fill="none" stroke="black" d="M243,-287.7C243,-276.85 243,-262.92 243,-252.1"/>
</g>
<!-- H_1367165453 -->
<g id="node17" class="node">
<title>H_1367165453</title>
<ellipse fill="none" stroke="black" cx="171" cy="-162" rx="27" ry="18"/>
<text text-anchor="middle" x="171" y="-158.3" font-family="Times,serif" font-size="14.00">H</text>
</g>
<!-- G_1336777650&#45;&#45;H_1367165453 -->
<g id="edge16" class="edge">
<title>G_1336777650&#45;&#45;H_1367165453</title>
<path fill="none" stroke="black" d="M171,-215.7C171,-204.85 171,-190.92 171,-180.1"/>
</g>
<!-- var_126234454 -->
<g id="node18" class="node">
<title>var_126234454</title>
<ellipse fill="none" stroke="black" cx="171" cy="-90" rx="27" ry="18"/>
<text text-anchor="middle" x="171" y="-86.3" font-family="Times,serif" font-size="14.00">B</text>
</g>
<!-- H_1367165453&#45;&#45;var_126234454 -->
<g id="edge17" class="edge">
<title>H_1367165453&#45;&#45;var_126234454</title>
<path fill="none" stroke="black" d="M171,-143.7C171,-132.85 171,-118.92 171,-108.1"/>
</g>
<!-- \\eps_423733503 -->
<g id="node20" class="node">
<title>\\eps_423733503</title>
<ellipse fill="none" stroke="black" cx="243" cy="-162" rx="27" ry="18"/>
<text text-anchor="middle" x="243" y="-158.3" font-family="Times,serif" font-size="14.00">\eps</text>
</g>
<!-- F1_974308356&#45;&#45;\\eps_423733503 -->
<g id="edge19" class="edge">
<title>F1_974308356&#45;&#45;\\eps_423733503</title>
<path fill="none" stroke="black" d="M243,-215.7C243,-204.85 243,-190.92 243,-180.1"/>
</g>
<!-- xor_345887595 -->
<g id="node22" class="node">
<title>xor_345887595</title>
<ellipse fill="none" stroke="black" cx="315" cy="-234" rx="27" ry="18"/>
<text text-anchor="middle" x="315" y="-230.3" font-family="Times,serif" font-size="14.00">^</text>
</g>
<!-- T1_584561912&#45;&#45;xor_345887595 -->
<g id="edge21" class="edge">
<title>T1_584561912&#45;&#45;xor_345887595</title>
<path fill="none" stroke="black" d="M315,-287.7C315,-276.85 315,-262.92 315,-252.1"/>
</g>
<!-- F_948115224 -->
<g id="node23" class="node">
<title>F_948115224</title>
<ellipse fill="none" stroke="black" cx="387" cy="-234" rx="27" ry="18"/>
<text text-anchor="middle" x="387" y="-230.3" font-family="Times,serif" font-size="14.00">F</text>
</g>
<!-- T1_584561912&#45;&#45;F_948115224 -->
<g id="edge22" class="edge">
<title>T1_584561912&#45;&#45;F_948115224</title>
<path fill="none" stroke="black" d="M329.57,-290.83C341.98,-278.77 359.73,-261.51 372.2,-249.38"/>
</g>
<!-- T1_236567414 -->
<g id="node29" class="node">
<title>T1_236567414</title>
<ellipse fill="none" stroke="black" cx="459" cy="-234" rx="27" ry="18"/>
<text text-anchor="middle" x="459" y="-230.3" font-family="Times,serif" font-size="14.00">T1</text>
</g>
<!-- T1_584561912&#45;&#45;T1_236567414 -->
<g id="edge28" class="edge">
<title>T1_584561912&#45;&#45;T1_236567414</title>
<path fill="none" stroke="black" d="M336.25,-294.67C363.47,-281.44 410.4,-258.63 437.67,-245.37"/>
</g>
<!-- G_739333799 -->
<g id="node24" class="node">
<title>G_739333799</title>
<ellipse fill="none" stroke="black" cx="315" cy="-162" rx="27" ry="18"/>
<text text-anchor="middle" x="315" y="-158.3" font-family="Times,serif" font-size="14.00">G</text>
</g>
<!-- F_948115224&#45;&#45;G_739333799 -->
<g id="edge23" class="edge">
<title>F_948115224&#45;&#45;G_739333799</title>
<path fill="none" stroke="black" d="M372.43,-218.83C360.02,-206.77 342.27,-189.51 329.8,-177.38"/>
</g>
<!-- F1_1763260873 -->
<g id="node27" class="node">
<title>F1_1763260873</title>
<ellipse fill="none" stroke="black" cx="387" cy="-162" rx="27" ry="18"/>
<text text-anchor="middle" x="387" y="-158.3" font-family="Times,serif" font-size="14.00">F1</text>
</g>
<!-- F_948115224&#45;&#45;F1_1763260873 -->
<g id="edge26" class="edge">
<title>F_948115224&#45;&#45;F1_1763260873</title>
<path fill="none" stroke="black" d="M387,-215.7C387,-204.85 387,-190.92 387,-180.1"/>
</g>
<!-- H_872306601 -->
<g id="node25" class="node">
<title>H_872306601</title>
<ellipse fill="none" stroke="black" cx="315" cy="-90" rx="27" ry="18"/>
<text text-anchor="middle" x="315" y="-86.3" font-family="Times,serif" font-size="14.00">H</text>
</g>
<!-- G_739333799&#45;&#45;H_872306601 -->
<g id="edge24" class="edge">
<title>G_739333799&#45;&#45;H_872306601</title>
<path fill="none" stroke="black" d="M315,-143.7C315,-132.85 315,-118.92 315,-108.1"/>
</g>
<!-- var_1233308726 -->
<g id="node26" class="node">
<title>var_1233308726</title>
<ellipse fill="none" stroke="black" cx="315" cy="-18" rx="27" ry="18"/>
<text text-anchor="middle" x="315" y="-14.3" font-family="Times,serif" font-size="14.00">C</text>
</g>
<!-- H_872306601&#45;&#45;var_1233308726 -->
<g id="edge25" class="edge">
<title>H_872306601&#45;&#45;var_1233308726</title>
<path fill="none" stroke="black" d="M315,-71.7C315,-60.85 315,-46.92 315,-36.1"/>
</g>
<!-- \\eps_1327234595 -->
<g id="node28" class="node">
<title>\\eps_1327234595</title>
<ellipse fill="none" stroke="black" cx="387" cy="-90" rx="27" ry="18"/>
<text text-anchor="middle" x="387" y="-86.3" font-family="Times,serif" font-size="14.00">\eps</text>
</g>
<!-- F1_1763260873&#45;&#45;\\eps_1327234595 -->
<g id="edge27" class="edge">
<title>F1_1763260873&#45;&#45;\\eps_1327234595</title>
<path fill="none" stroke="black" d="M387,-143.7C387,-132.85 387,-118.92 387,-108.1"/>
</g>
<!-- \\eps_1361393151 -->
<g id="node30" class="node">
<title>\\eps_1361393151</title>
<ellipse fill="none" stroke="black" cx="459" cy="-162" rx="27" ry="18"/>
<text text-anchor="middle" x="459" y="-158.3" font-family="Times,serif" font-size="14.00">\eps</text>
</g>
<!-- T1_236567414&#45;&#45;\\eps_1361393151 -->
<g id="edge29" class="edge">
<title>T1_236567414&#45;&#45;\\eps_1361393151</title>
<path fill="none" stroke="black" d="M459,-215.7C459,-204.85 459,-190.92 459,-180.1"/>
</g>
<!-- \\eps_1638435724 -->
<g id="node32" class="node">
<title>\\eps_1638435724</title>
<ellipse fill="none" stroke="black" cx="387" cy="-306" rx="27" ry="18"/>
<text text-anchor="middle" x="387" y="-302.3" font-family="Times,serif" font-size="14.00">\eps</text>
</g>
<!-- E1_1901238627&#45;&#45;\\eps_1638435724 -->
<g id="edge31" class="edge">
<title>E1_1901238627&#45;&#45;\\eps_1638435724</title>
<path fill="none" stroke="black" d="M387,-359.7C387,-348.85 387,-334.92 387,-324.1"/>
</g>
</g>
</svg>
