<?xml version="1.0" encoding="UTF-8" standalone="no"?>
<!DOCTYPE svg PUBLIC "-//W3C//DTD SVG 1.1//EN"
 "http://www.w3.org/Graphics/SVG/1.1/DTD/svg11.dtd">
<!-- Generated by graphviz version 2.49.1 (20210923.0004)
 -->
<!-- Pages: 1 -->
<svg width="638pt" height="1268pt"
 viewBox="0.00 0.00 638.00 1268.00" xmlns="http://www.w3.org/2000/svg" xmlns:xlink="http://www.w3.org/1999/xlink">
<g id="graph0" class="graph" transform="scale(1 1) rotate(0) translate(4 1264)">
<polygon fill="white" stroke="transparent" points="-4,4 -4,-1264 634,-1264 634,4 -4,4"/>
<!-- E0_564272228 -->
<g id="node1" class="node">
<title>E0_564272228</title>
<ellipse fill="none" stroke="black" cx="567" cy="-1242" rx="27" ry="18"/>
<text text-anchor="middle" x="567" y="-1238.3" font-family="Times,serif" font-size="14.00">E0</text>
</g>
<!-- E_125844477 -->
<g id="node2" class="node">
<title>E_125844477</title>
<ellipse fill="none" stroke="black" cx="567" cy="-1170" rx="27" ry="18"/>
<text text-anchor="middle" x="567" y="-1166.3" font-family="Times,serif" font-size="14.00">E</text>
</g>
<!-- E0_564272228&#45;&#45;E_125844477 -->
<g id="edge1" class="edge">
<title>E0_564272228&#45;&#45;E_125844477</title>
<path fill="none" stroke="black" d="M567,-1223.7C567,-1212.85 567,-1198.92 567,-1188.1"/>
</g>
<!-- T_1119622337 -->
<g id="node3" class="node">
<title>T_1119622337</title>
<ellipse fill="none" stroke="black" cx="531" cy="-1098" rx="27" ry="18"/>
<text text-anchor="middle" x="531" y="-1094.3" font-family="Times,serif" font-size="14.00">T</text>
</g>
<!-- E_125844477&#45;&#45;T_1119622337 -->
<g id="edge2" class="edge">
<title>E_125844477&#45;&#45;T_1119622337</title>
<path fill="none" stroke="black" d="M558.65,-1152.76C552.83,-1141.46 545.11,-1126.44 539.3,-1115.15"/>
</g>
<!-- E1_883455411 -->
<g id="node53" class="node">
<title>E1_883455411</title>
<ellipse fill="none" stroke="black" cx="603" cy="-1098" rx="27" ry="18"/>
<text text-anchor="middle" x="603" y="-1094.3" font-family="Times,serif" font-size="14.00">E1</text>
</g>
<!-- E_125844477&#45;&#45;E1_883455411 -->
<g id="edge52" class="edge">
<title>E_125844477&#45;&#45;E1_883455411</title>
<path fill="none" stroke="black" d="M575.35,-1152.76C581.17,-1141.46 588.89,-1126.44 594.7,-1115.15"/>
</g>
<!-- F_1394557075 -->
<g id="node4" class="node">
<title>F_1394557075</title>
<ellipse fill="none" stroke="black" cx="459" cy="-1026" rx="27" ry="18"/>
<text text-anchor="middle" x="459" y="-1022.3" font-family="Times,serif" font-size="14.00">F</text>
</g>
<!-- T_1119622337&#45;&#45;F_1394557075 -->
<g id="edge3" class="edge">
<title>T_1119622337&#45;&#45;F_1394557075</title>
<path fill="none" stroke="black" d="M516.43,-1082.83C504.02,-1070.77 486.27,-1053.51 473.8,-1041.38"/>
</g>
<!-- T1_1406919011 -->
<g id="node51" class="node">
<title>T1_1406919011</title>
<ellipse fill="none" stroke="black" cx="531" cy="-1026" rx="27" ry="18"/>
<text text-anchor="middle" x="531" y="-1022.3" font-family="Times,serif" font-size="14.00">T1</text>
</g>
<!-- T_1119622337&#45;&#45;T1_1406919011 -->
<g id="edge50" class="edge">
<title>T_1119622337&#45;&#45;T1_1406919011</title>
<path fill="none" stroke="black" d="M531,-1079.7C531,-1068.85 531,-1054.92 531,-1044.1"/>
</g>
<!-- G_1659840424 -->
<g id="node5" class="node">
<title>G_1659840424</title>
<ellipse fill="none" stroke="black" cx="351" cy="-954" rx="27" ry="18"/>
<text text-anchor="middle" x="351" y="-950.3" font-family="Times,serif" font-size="14.00">G</text>
</g>
<!-- F_1394557075&#45;&#45;G_1659840424 -->
<g id="edge4" class="edge">
<title>F_1394557075&#45;&#45;G_1659840424</title>
<path fill="none" stroke="black" d="M440.19,-1012.81C420.37,-999.96 389.34,-979.85 369.6,-967.05"/>
</g>
<!-- F1_1866229258 -->
<g id="node8" class="node">
<title>F1_1866229258</title>
<ellipse fill="none" stroke="black" cx="459" cy="-954" rx="27" ry="18"/>
<text text-anchor="middle" x="459" y="-950.3" font-family="Times,serif" font-size="14.00">F1</text>
</g>
<!-- F_1394557075&#45;&#45;F1_1866229258 -->
<g id="edge7" class="edge">
<title>F_1394557075&#45;&#45;F1_1866229258</title>
<path fill="none" stroke="black" d="M459,-1007.7C459,-996.85 459,-982.92 459,-972.1"/>
</g>
<!-- H_1681303515 -->
<g id="node6" class="node">
<title>H_1681303515</title>
<ellipse fill="none" stroke="black" cx="351" cy="-882" rx="27" ry="18"/>
<text text-anchor="middle" x="351" y="-878.3" font-family="Times,serif" font-size="14.00">H</text>
</g>
<!-- G_1659840424&#45;&#45;H_1681303515 -->
<g id="edge5" class="edge">
<title>G_1659840424&#45;&#45;H_1681303515</title>
<path fill="none" stroke="black" d="M351,-935.7C351,-924.85 351,-910.92 351,-900.1"/>
</g>
<!-- var_1175371136 -->
<g id="node7" class="node">
<title>var_1175371136</title>
<ellipse fill="none" stroke="black" cx="351" cy="-810" rx="27" ry="18"/>
<text text-anchor="middle" x="351" y="-806.3" font-family="Times,serif" font-size="14.00">b</text>
</g>
<!-- H_1681303515&#45;&#45;var_1175371136 -->
<g id="edge6" class="edge">
<title>H_1681303515&#45;&#45;var_1175371136</title>
<path fill="none" stroke="black" d="M351,-863.7C351,-852.85 351,-838.92 351,-828.1"/>
</g>
<!-- and_1962266146 -->
<g id="node9" class="node">
<title>and_1962266146</title>
<ellipse fill="none" stroke="black" cx="423" cy="-882" rx="27" ry="18"/>
<text text-anchor="middle" x="423" y="-878.3" font-family="Times,serif" font-size="14.00">&amp;</text>
</g>
<!-- F1_1866229258&#45;&#45;and_1962266146 -->
<g id="edge8" class="edge">
<title>F1_1866229258&#45;&#45;and_1962266146</title>
<path fill="none" stroke="black" d="M450.65,-936.76C444.83,-925.46 437.11,-910.44 431.3,-899.15"/>
</g>
<!-- G_632071960 -->
<g id="node10" class="node">
<title>G_632071960</title>
<ellipse fill="none" stroke="black" cx="495" cy="-882" rx="27" ry="18"/>
<text text-anchor="middle" x="495" y="-878.3" font-family="Times,serif" font-size="14.00">G</text>
</g>
<!-- F1_1866229258&#45;&#45;G_632071960 -->
<g id="edge9" class="edge">
<title>F1_1866229258&#45;&#45;G_632071960</title>
<path fill="none" stroke="black" d="M467.35,-936.76C473.17,-925.46 480.89,-910.44 486.7,-899.15"/>
</g>
<!-- F1_2016949136 -->
<g id="node49" class="node">
<title>F1_2016949136</title>
<ellipse fill="none" stroke="black" cx="567" cy="-882" rx="27" ry="18"/>
<text text-anchor="middle" x="567" y="-878.3" font-family="Times,serif" font-size="14.00">F1</text>
</g>
<!-- F1_1866229258&#45;&#45;F1_2016949136 -->
<g id="edge48" class="edge">
<title>F1_1866229258&#45;&#45;F1_2016949136</title>
<path fill="none" stroke="black" d="M477.81,-940.81C497.63,-927.96 528.66,-907.85 548.4,-895.05"/>
</g>
<!-- H_385739920 -->
<g id="node11" class="node">
<title>H_385739920</title>
<ellipse fill="none" stroke="black" cx="495" cy="-810" rx="27" ry="18"/>
<text text-anchor="middle" x="495" y="-806.3" font-family="Times,serif" font-size="14.00">H</text>
</g>
<!-- G_632071960&#45;&#45;H_385739920 -->
<g id="edge10" class="edge">
<title>G_632071960&#45;&#45;H_385739920</title>
<path fill="none" stroke="black" d="M495,-863.7C495,-852.85 495,-838.92 495,-828.1"/>
</g>
<!-- lparen_452842611 -->
<g id="node12" class="node">
<title>lparen_452842611</title>
<ellipse fill="none" stroke="black" cx="423" cy="-738" rx="27" ry="18"/>
<text text-anchor="middle" x="423" y="-734.3" font-family="Times,serif" font-size="14.00">(</text>
</g>
<!-- H_385739920&#45;&#45;lparen_452842611 -->
<g id="edge11" class="edge">
<title>H_385739920&#45;&#45;lparen_452842611</title>
<path fill="none" stroke="black" d="M480.43,-794.83C468.02,-782.77 450.27,-765.51 437.8,-753.38"/>
</g>
<!-- E_1076071888 -->
<g id="node13" class="node">
<title>E_1076071888</title>
<ellipse fill="none" stroke="black" cx="495" cy="-738" rx="27" ry="18"/>
<text text-anchor="middle" x="495" y="-734.3" font-family="Times,serif" font-size="14.00">E</text>
</g>
<!-- H_385739920&#45;&#45;E_1076071888 -->
<g id="edge12" class="edge">
<title>H_385739920&#45;&#45;E_1076071888</title>
<path fill="none" stroke="black" d="M495,-791.7C495,-780.85 495,-766.92 495,-756.1"/>
</g>
<!-- rparen_1517328406 -->
<g id="node48" class="node">
<title>rparen_1517328406</title>
<ellipse fill="none" stroke="black" cx="567" cy="-738" rx="27" ry="18"/>
<text text-anchor="middle" x="567" y="-734.3" font-family="Times,serif" font-size="14.00">)</text>
</g>
<!-- H_385739920&#45;&#45;rparen_1517328406 -->
<g id="edge47" class="edge">
<title>H_385739920&#45;&#45;rparen_1517328406</title>
<path fill="none" stroke="black" d="M509.57,-794.83C521.98,-782.77 539.73,-765.51 552.2,-753.38"/>
</g>
<!-- T_7829163 -->
<g id="node14" class="node">
<title>T_7829163</title>
<ellipse fill="none" stroke="black" cx="459" cy="-666" rx="27" ry="18"/>
<text text-anchor="middle" x="459" y="-662.3" font-family="Times,serif" font-size="14.00">T</text>
</g>
<!-- E_1076071888&#45;&#45;T_7829163 -->
<g id="edge13" class="edge">
<title>E_1076071888&#45;&#45;T_7829163</title>
<path fill="none" stroke="black" d="M486.65,-720.76C480.83,-709.46 473.11,-694.44 467.3,-683.15"/>
</g>
<!-- E1_5395829 -->
<g id="node46" class="node">
<title>E1_5395829</title>
<ellipse fill="none" stroke="black" cx="531" cy="-666" rx="27" ry="18"/>
<text text-anchor="middle" x="531" y="-662.3" font-family="Times,serif" font-size="14.00">E1</text>
</g>
<!-- E_1076071888&#45;&#45;E1_5395829 -->
<g id="edge45" class="edge">
<title>E_1076071888&#45;&#45;E1_5395829</title>
<path fill="none" stroke="black" d="M503.35,-720.76C509.17,-709.46 516.89,-694.44 522.7,-683.15"/>
</g>
<!-- F_2031588185 -->
<g id="node15" class="node">
<title>F_2031588185</title>
<ellipse fill="none" stroke="black" cx="351" cy="-594" rx="27" ry="18"/>
<text text-anchor="middle" x="351" y="-590.3" font-family="Times,serif" font-size="14.00">F</text>
</g>
<!-- T_7829163&#45;&#45;F_2031588185 -->
<g id="edge14" class="edge">
<title>T_7829163&#45;&#45;F_2031588185</title>
<path fill="none" stroke="black" d="M440.19,-652.81C420.37,-639.96 389.34,-619.85 369.6,-607.05"/>
</g>
<!-- T1_1528741718 -->
<g id="node36" class="node">
<title>T1_1528741718</title>
<ellipse fill="none" stroke="black" cx="459" cy="-594" rx="27" ry="18"/>
<text text-anchor="middle" x="459" y="-590.3" font-family="Times,serif" font-size="14.00">T1</text>
</g>
<!-- T_7829163&#45;&#45;T1_1528741718 -->
<g id="edge35" class="edge">
<title>T_7829163&#45;&#45;T1_1528741718</title>
<path fill="none" stroke="black" d="M459,-647.7C459,-636.85 459,-622.92 459,-612.1"/>
</g>
<!-- G_230526532 -->
<g id="node16" class="node">
<title>G_230526532</title>
<ellipse fill="none" stroke="black" cx="279" cy="-522" rx="27" ry="18"/>
<text text-anchor="middle" x="279" y="-518.3" font-family="Times,serif" font-size="14.00">G</text>
</g>
<!-- F_2031588185&#45;&#45;G_230526532 -->
<g id="edge15" class="edge">
<title>F_2031588185&#45;&#45;G_230526532</title>
<path fill="none" stroke="black" d="M336.43,-578.83C324.02,-566.77 306.27,-549.51 293.8,-537.38"/>
</g>
<!-- F1_1908571880 -->
<g id="node34" class="node">
<title>F1_1908571880</title>
<ellipse fill="none" stroke="black" cx="351" cy="-522" rx="27" ry="18"/>
<text text-anchor="middle" x="351" y="-518.3" font-family="Times,serif" font-size="14.00">F1</text>
</g>
<!-- F_2031588185&#45;&#45;F1_1908571880 -->
<g id="edge33" class="edge">
<title>F_2031588185&#45;&#45;F1_1908571880</title>
<path fill="none" stroke="black" d="M351,-575.7C351,-564.85 351,-550.92 351,-540.1"/>
</g>
<!-- neg_1370283822 -->
<g id="node17" class="node">
<title>neg_1370283822</title>
<ellipse fill="none" stroke="black" cx="207" cy="-450" rx="27" ry="18"/>
<text text-anchor="middle" x="207" y="-446.3" font-family="Times,serif" font-size="14.00">!</text>
</g>
<!-- G_230526532&#45;&#45;neg_1370283822 -->
<g id="edge16" class="edge">
<title>G_230526532&#45;&#45;neg_1370283822</title>
<path fill="none" stroke="black" d="M264.43,-506.83C252.02,-494.77 234.27,-477.51 221.8,-465.38"/>
</g>
<!-- H_1783966110 -->
<g id="node18" class="node">
<title>H_1783966110</title>
<ellipse fill="none" stroke="black" cx="279" cy="-450" rx="27" ry="18"/>
<text text-anchor="middle" x="279" y="-446.3" font-family="Times,serif" font-size="14.00">H</text>
</g>
<!-- G_230526532&#45;&#45;H_1783966110 -->
<g id="edge17" class="edge">
<title>G_230526532&#45;&#45;H_1783966110</title>
<path fill="none" stroke="black" d="M279,-503.7C279,-492.85 279,-478.92 279,-468.1"/>
</g>
<!-- lparen_790487766 -->
<g id="node19" class="node">
<title>lparen_790487766</title>
<ellipse fill="none" stroke="black" cx="207" cy="-378" rx="27" ry="18"/>
<text text-anchor="middle" x="207" y="-374.3" font-family="Times,serif" font-size="14.00">(</text>
</g>
<!-- H_1783966110&#45;&#45;lparen_790487766 -->
<g id="edge18" class="edge">
<title>H_1783966110&#45;&#45;lparen_790487766</title>
<path fill="none" stroke="black" d="M264.43,-434.83C252.02,-422.77 234.27,-405.51 221.8,-393.38"/>
</g>
<!-- E_1320388319 -->
<g id="node20" class="node">
<title>E_1320388319</title>
<ellipse fill="none" stroke="black" cx="279" cy="-378" rx="27" ry="18"/>
<text text-anchor="middle" x="279" y="-374.3" font-family="Times,serif" font-size="14.00">E</text>
</g>
<!-- H_1783966110&#45;&#45;E_1320388319 -->
<g id="edge19" class="edge">
<title>H_1783966110&#45;&#45;E_1320388319</title>
<path fill="none" stroke="black" d="M279,-431.7C279,-420.85 279,-406.92 279,-396.1"/>
</g>
<!-- rparen_896072146 -->
<g id="node33" class="node">
<title>rparen_896072146</title>
<ellipse fill="none" stroke="black" cx="351" cy="-378" rx="27" ry="18"/>
<text text-anchor="middle" x="351" y="-374.3" font-family="Times,serif" font-size="14.00">)</text>
</g>
<!-- H_1783966110&#45;&#45;rparen_896072146 -->
<g id="edge32" class="edge">
<title>H_1783966110&#45;&#45;rparen_896072146</title>
<path fill="none" stroke="black" d="M293.57,-434.83C305.98,-422.77 323.73,-405.51 336.2,-393.38"/>
</g>
<!-- T_2035381640 -->
<g id="node21" class="node">
<title>T_2035381640</title>
<ellipse fill="none" stroke="black" cx="243" cy="-306" rx="27" ry="18"/>
<text text-anchor="middle" x="243" y="-302.3" font-family="Times,serif" font-size="14.00">T</text>
</g>
<!-- E_1320388319&#45;&#45;T_2035381640 -->
<g id="edge20" class="edge">
<title>E_1320388319&#45;&#45;T_2035381640</title>
<path fill="none" stroke="black" d="M270.65,-360.76C264.83,-349.46 257.11,-334.44 251.3,-323.15"/>
</g>
<!-- E1_1363396194 -->
<g id="node31" class="node">
<title>E1_1363396194</title>
<ellipse fill="none" stroke="black" cx="315" cy="-306" rx="27" ry="18"/>
<text text-anchor="middle" x="315" y="-302.3" font-family="Times,serif" font-size="14.00">E1</text>
</g>
<!-- E_1320388319&#45;&#45;E1_1363396194 -->
<g id="edge30" class="edge">
<title>E_1320388319&#45;&#45;E1_1363396194</title>
<path fill="none" stroke="black" d="M287.35,-360.76C293.17,-349.46 300.89,-334.44 306.7,-323.15"/>
</g>
<!-- F_973843173 -->
<g id="node22" class="node">
<title>F_973843173</title>
<ellipse fill="none" stroke="black" cx="171" cy="-234" rx="27" ry="18"/>
<text text-anchor="middle" x="171" y="-230.3" font-family="Times,serif" font-size="14.00">F</text>
</g>
<!-- T_2035381640&#45;&#45;F_973843173 -->
<g id="edge21" class="edge">
<title>T_2035381640&#45;&#45;F_973843173</title>
<path fill="none" stroke="black" d="M228.43,-290.83C216.02,-278.77 198.27,-261.51 185.8,-249.38"/>
</g>
<!-- T1_1280429864 -->
<g id="node29" class="node">
<title>T1_1280429864</title>
<ellipse fill="none" stroke="black" cx="243" cy="-234" rx="27" ry="18"/>
<text text-anchor="middle" x="243" y="-230.3" font-family="Times,serif" font-size="14.00">T1</text>
</g>
<!-- T_2035381640&#45;&#45;T1_1280429864 -->
<g id="edge28" class="edge">
<title>T_2035381640&#45;&#45;T1_1280429864</title>
<path fill="none" stroke="black" d="M243,-287.7C243,-276.85 243,-262.92 243,-252.1"/>
</g>
<!-- G_2059461664 -->
<g id="node23" class="node">
<title>G_2059461664</title>
<ellipse fill="none" stroke="black" cx="99" cy="-162" rx="27" ry="18"/>
<text text-anchor="middle" x="99" y="-158.3" font-family="Times,serif" font-size="14.00">G</text>
</g>
<!-- F_973843173&#45;&#45;G_2059461664 -->
<g id="edge22" class="edge">
<title>F_973843173&#45;&#45;G_2059461664</title>
<path fill="none" stroke="black" d="M156.43,-218.83C144.02,-206.77 126.27,-189.51 113.8,-177.38"/>
</g>
<!-- F1_1077873186 -->
<g id="node27" class="node">
<title>F1_1077873186</title>
<ellipse fill="none" stroke="black" cx="171" cy="-162" rx="27" ry="18"/>
<text text-anchor="middle" x="171" y="-158.3" font-family="Times,serif" font-size="14.00">F1</text>
</g>
<!-- F_973843173&#45;&#45;F1_1077873186 -->
<g id="edge26" class="edge">
<title>F_973843173&#45;&#45;F1_1077873186</title>
<path fill="none" stroke="black" d="M171,-215.7C171,-204.85 171,-190.92 171,-180.1"/>
</g>
<!-- neg_680988889 -->
<g id="node24" class="node">
<title>neg_680988889</title>
<ellipse fill="none" stroke="black" cx="27" cy="-90" rx="27" ry="18"/>
<text text-anchor="middle" x="27" y="-86.3" font-family="Times,serif" font-size="14.00">!</text>
</g>
<!-- G_2059461664&#45;&#45;neg_680988889 -->
<g id="edge23" class="edge">
<title>G_2059461664&#45;&#45;neg_680988889</title>
<path fill="none" stroke="black" d="M84.43,-146.83C72.02,-134.77 54.27,-117.51 41.8,-105.38"/>
</g>
<!-- H_1511574902 -->
<g id="node25" class="node">
<title>H_1511574902</title>
<ellipse fill="none" stroke="black" cx="99" cy="-90" rx="27" ry="18"/>
<text text-anchor="middle" x="99" y="-86.3" font-family="Times,serif" font-size="14.00">H</text>
</g>
<!-- G_2059461664&#45;&#45;H_1511574902 -->
<g id="edge24" class="edge">
<title>G_2059461664&#45;&#45;H_1511574902</title>
<path fill="none" stroke="black" d="M99,-143.7C99,-132.85 99,-118.92 99,-108.1"/>
</g>
<!-- var_1034094674 -->
<g id="node26" class="node">
<title>var_1034094674</title>
<ellipse fill="none" stroke="black" cx="99" cy="-18" rx="27" ry="18"/>
<text text-anchor="middle" x="99" y="-14.3" font-family="Times,serif" font-size="14.00">A</text>
</g>
<!-- H_1511574902&#45;&#45;var_1034094674 -->
<g id="edge25" class="edge">
<title>H_1511574902&#45;&#45;var_1034094674</title>
<path fill="none" stroke="black" d="M99,-71.7C99,-60.85 99,-46.92 99,-36.1"/>
</g>
<!-- \\eps_1346292516 -->
<g id="node28" class="node">
<title>\\eps_1346292516</title>
<ellipse fill="none" stroke="black" cx="171" cy="-90" rx="27" ry="18"/>
<text text-anchor="middle" x="171" y="-86.3" font-family="Times,serif" font-size="14.00">\eps</text>
</g>
<!-- F1_1077873186&#45;&#45;\\eps_1346292516 -->
<g id="edge27" class="edge">
<title>F1_1077873186&#45;&#45;\\eps_1346292516</title>
<path fill="none" stroke="black" d="M171,-143.7C171,-132.85 171,-118.92 171,-108.1"/>
</g>
<!-- \\eps_1771421544 -->
<g id="node30" class="node">
<title>\\eps_1771421544</title>
<ellipse fill="none" stroke="black" cx="243" cy="-162" rx="27" ry="18"/>
<text text-anchor="middle" x="243" y="-158.3" font-family="Times,serif" font-size="14.00">\eps</text>
</g>
<!-- T1_1280429864&#45;&#45;\\eps_1771421544 -->
<g id="edge29" class="edge">
<title>T1_1280429864&#45;&#45;\\eps_1771421544</title>
<path fill="none" stroke="black" d="M243,-215.7C243,-204.85 243,-190.92 243,-180.1"/>
</g>
<!-- \\eps_2005028997 -->
<g id="node32" class="node">
<title>\\eps_2005028997</title>
<ellipse fill="none" stroke="black" cx="315" cy="-234" rx="27" ry="18"/>
<text text-anchor="middle" x="315" y="-230.3" font-family="Times,serif" font-size="14.00">\eps</text>
</g>
<!-- E1_1363396194&#45;&#45;\\eps_2005028997 -->
<g id="edge31" class="edge">
<title>E1_1363396194&#45;&#45;\\eps_2005028997</title>
<path fill="none" stroke="black" d="M315,-287.7C315,-276.85 315,-262.92 315,-252.1"/>
</g>
<!-- \\eps_1048434276 -->
<g id="node35" class="node">
<title>\\eps_1048434276</title>
<ellipse fill="none" stroke="black" cx="351" cy="-450" rx="27" ry="18"/>
<text text-anchor="middle" x="351" y="-446.3" font-family="Times,serif" font-size="14.00">\eps</text>
</g>
<!-- F1_1908571880&#45;&#45;\\eps_1048434276 -->
<g id="edge34" class="edge">
<title>F1_1908571880&#45;&#45;\\eps_1048434276</title>
<path fill="none" stroke="black" d="M351,-503.7C351,-492.85 351,-478.92 351,-468.1"/>
</g>
<!-- xor_692743054 -->
<g id="node37" class="node">
<title>xor_692743054</title>
<ellipse fill="none" stroke="black" cx="423" cy="-522" rx="27" ry="18"/>
<text text-anchor="middle" x="423" y="-518.3" font-family="Times,serif" font-size="14.00">^</text>
</g>
<!-- T1_1528741718&#45;&#45;xor_692743054 -->
<g id="edge36" class="edge">
<title>T1_1528741718&#45;&#45;xor_692743054</title>
<path fill="none" stroke="black" d="M450.65,-576.76C444.83,-565.46 437.11,-550.44 431.3,-539.15"/>
</g>
<!-- F_1260217713 -->
<g id="node38" class="node">
<title>F_1260217713</title>
<ellipse fill="none" stroke="black" cx="495" cy="-522" rx="27" ry="18"/>
<text text-anchor="middle" x="495" y="-518.3" font-family="Times,serif" font-size="14.00">F</text>
</g>
<!-- T1_1528741718&#45;&#45;F_1260217713 -->
<g id="edge37" class="edge">
<title>T1_1528741718&#45;&#45;F_1260217713</title>
<path fill="none" stroke="black" d="M467.35,-576.76C473.17,-565.46 480.89,-550.44 486.7,-539.15"/>
</g>
<!-- T1_373378624 -->
<g id="node44" class="node">
<title>T1_373378624</title>
<ellipse fill="none" stroke="black" cx="567" cy="-522" rx="27" ry="18"/>
<text text-anchor="middle" x="567" y="-518.3" font-family="Times,serif" font-size="14.00">T1</text>
</g>
<!-- T1_1528741718&#45;&#45;T1_373378624 -->
<g id="edge43" class="edge">
<title>T1_1528741718&#45;&#45;T1_373378624</title>
<path fill="none" stroke="black" d="M477.81,-580.81C497.63,-567.96 528.66,-547.85 548.4,-535.05"/>
</g>
<!-- G_461591680 -->
<g id="node39" class="node">
<title>G_461591680</title>
<ellipse fill="none" stroke="black" cx="423" cy="-450" rx="27" ry="18"/>
<text text-anchor="middle" x="423" y="-446.3" font-family="Times,serif" font-size="14.00">G</text>
</g>
<!-- F_1260217713&#45;&#45;G_461591680 -->
<g id="edge38" class="edge">
<title>F_1260217713&#45;&#45;G_461591680</title>
<path fill="none" stroke="black" d="M480.43,-506.83C468.02,-494.77 450.27,-477.51 437.8,-465.38"/>
</g>
<!-- F1_1874028013 -->
<g id="node42" class="node">
<title>F1_1874028013</title>
<ellipse fill="none" stroke="black" cx="495" cy="-450" rx="27" ry="18"/>
<text text-anchor="middle" x="495" y="-446.3" font-family="Times,serif" font-size="14.00">F1</text>
</g>
<!-- F_1260217713&#45;&#45;F1_1874028013 -->
<g id="edge41" class="edge">
<title>F_1260217713&#45;&#45;F1_1874028013</title>
<path fill="none" stroke="black" d="M495,-503.7C495,-492.85 495,-478.92 495,-468.1"/>
</g>
<!-- H_894024873 -->
<g id="node40" class="node">
<title>H_894024873</title>
<ellipse fill="none" stroke="black" cx="423" cy="-378" rx="27" ry="18"/>
<text text-anchor="middle" x="423" y="-374.3" font-family="Times,serif" font-size="14.00">H</text>
</g>
<!-- G_461591680&#45;&#45;H_894024873 -->
<g id="edge39" class="edge">
<title>G_461591680&#45;&#45;H_894024873</title>
<path fill="none" stroke="black" d="M423,-431.7C423,-420.85 423,-406.92 423,-396.1"/>
</g>
<!-- var_1327871893 -->
<g id="node41" class="node">
<title>var_1327871893</title>
<ellipse fill="none" stroke="black" cx="423" cy="-306" rx="27" ry="18"/>
<text text-anchor="middle" x="423" y="-302.3" font-family="Times,serif" font-size="14.00">A</text>
</g>
<!-- H_894024873&#45;&#45;var_1327871893 -->
<g id="edge40" class="edge">
<title>H_894024873&#45;&#45;var_1327871893</title>
<path fill="none" stroke="black" d="M423,-359.7C423,-348.85 423,-334.92 423,-324.1"/>
</g>
<!-- \\eps_1855261647 -->
<g id="node43" class="node">
<title>\\eps_1855261647</title>
<ellipse fill="none" stroke="black" cx="495" cy="-378" rx="27" ry="18"/>
<text text-anchor="middle" x="495" y="-374.3" font-family="Times,serif" font-size="14.00">\eps</text>
</g>
<!-- F1_1874028013&#45;&#45;\\eps_1855261647 -->
<g id="edge42" class="edge">
<title>F1_1874028013&#45;&#45;\\eps_1855261647</title>
<path fill="none" stroke="black" d="M495,-431.7C495,-420.85 495,-406.92 495,-396.1"/>
</g>
<!-- \\eps_1958402562 -->
<g id="node45" class="node">
<title>\\eps_1958402562</title>
<ellipse fill="none" stroke="black" cx="567" cy="-450" rx="27" ry="18"/>
<text text-anchor="middle" x="567" y="-446.3" font-family="Times,serif" font-size="14.00">\eps</text>
</g>
<!-- T1_373378624&#45;&#45;\\eps_1958402562 -->
<g id="edge44" class="edge">
<title>T1_373378624&#45;&#45;\\eps_1958402562</title>
<path fill="none" stroke="black" d="M567,-503.7C567,-492.85 567,-478.92 567,-468.1"/>
</g>
<!-- \\eps_1189084611 -->
<g id="node47" class="node">
<title>\\eps_1189084611</title>
<ellipse fill="none" stroke="black" cx="531" cy="-594" rx="27" ry="18"/>
<text text-anchor="middle" x="531" y="-590.3" font-family="Times,serif" font-size="14.00">\eps</text>
</g>
<!-- E1_5395829&#45;&#45;\\eps_1189084611 -->
<g id="edge46" class="edge">
<title>E1_5395829&#45;&#45;\\eps_1189084611</title>
<path fill="none" stroke="black" d="M531,-647.7C531,-636.85 531,-622.92 531,-612.1"/>
</g>
<!-- \\eps_1792227359 -->
<g id="node50" class="node">
<title>\\eps_1792227359</title>
<ellipse fill="none" stroke="black" cx="567" cy="-810" rx="27" ry="18"/>
<text text-anchor="middle" x="567" y="-806.3" font-family="Times,serif" font-size="14.00">\eps</text>
</g>
<!-- F1_2016949136&#45;&#45;\\eps_1792227359 -->
<g id="edge49" class="edge">
<title>F1_2016949136&#45;&#45;\\eps_1792227359</title>
<path fill="none" stroke="black" d="M567,-863.7C567,-852.85 567,-838.92 567,-828.1"/>
</g>
<!-- \\eps_229995302 -->
<g id="node52" class="node">
<title>\\eps_229995302</title>
<ellipse fill="none" stroke="black" cx="531" cy="-954" rx="27" ry="18"/>
<text text-anchor="middle" x="531" y="-950.3" font-family="Times,serif" font-size="14.00">\eps</text>
</g>
<!-- T1_1406919011&#45;&#45;\\eps_229995302 -->
<g id="edge51" class="edge">
<title>T1_1406919011&#45;&#45;\\eps_229995302</title>
<path fill="none" stroke="black" d="M531,-1007.7C531,-996.85 531,-982.92 531,-972.1"/>
</g>
<!-- \\eps_1195942137 -->
<g id="node54" class="node">
<title>\\eps_1195942137</title>
<ellipse fill="none" stroke="black" cx="603" cy="-1026" rx="27" ry="18"/>
<text text-anchor="middle" x="603" y="-1022.3" font-family="Times,serif" font-size="14.00">\eps</text>
</g>
<!-- E1_883455411&#45;&#45;\\eps_1195942137 -->
<g id="edge53" class="edge">
<title>E1_883455411&#45;&#45;\\eps_1195942137</title>
<path fill="none" stroke="black" d="M603,-1079.7C603,-1068.85 603,-1054.92 603,-1044.1"/>
</g>
</g>
</svg>
