<?xml version="1.0" encoding="UTF-8" standalone="no"?>
<!DOCTYPE svg PUBLIC "-//W3C//DTD SVG 1.1//EN"
 "http://www.w3.org/Graphics/SVG/1.1/DTD/svg11.dtd">
<!-- Generated by graphviz version 2.49.1 (20210923.0004)
 -->
<!-- Pages: 1 -->
<svg width="710pt" height="692pt"
 viewBox="0.00 0.00 710.00 692.00" xmlns="http://www.w3.org/2000/svg" xmlns:xlink="http://www.w3.org/1999/xlink">
<g id="graph0" class="graph" transform="scale(1 1) rotate(0) translate(4 688)">
<polygon fill="white" stroke="transparent" points="-4,4 -4,-688 706,-688 706,4 -4,4"/>
<!-- E0_1989132530 -->
<g id="node1" class="node">
<title>E0_1989132530</title>
<ellipse fill="none" stroke="black" cx="207" cy="-666" rx="27" ry="18"/>
<text text-anchor="middle" x="207" y="-662.3" font-family="Times,serif" font-size="14.00">E0</text>
</g>
<!-- E_1414845278 -->
<g id="node2" class="node">
<title>E_1414845278</title>
<ellipse fill="none" stroke="black" cx="207" cy="-594" rx="27" ry="18"/>
<text text-anchor="middle" x="207" y="-590.3" font-family="Times,serif" font-size="14.00">E</text>
</g>
<!-- E0_1989132530&#45;&#45;E_1414845278 -->
<g id="edge1" class="edge">
<title>E0_1989132530&#45;&#45;E_1414845278</title>
<path fill="none" stroke="black" d="M207,-647.7C207,-636.85 207,-622.92 207,-612.1"/>
</g>
<!-- T_1163619825 -->
<g id="node3" class="node">
<title>T_1163619825</title>
<ellipse fill="none" stroke="black" cx="171" cy="-522" rx="27" ry="18"/>
<text text-anchor="middle" x="171" y="-518.3" font-family="Times,serif" font-size="14.00">T</text>
</g>
<!-- E_1414845278&#45;&#45;T_1163619825 -->
<g id="edge2" class="edge">
<title>E_1414845278&#45;&#45;T_1163619825</title>
<path fill="none" stroke="black" d="M198.65,-576.76C192.83,-565.46 185.11,-550.44 179.3,-539.15"/>
</g>
<!-- E1_988850650 -->
<g id="node12" class="node">
<title>E1_988850650</title>
<ellipse fill="none" stroke="black" cx="279" cy="-522" rx="27" ry="18"/>
<text text-anchor="middle" x="279" y="-518.3" font-family="Times,serif" font-size="14.00">E1</text>
</g>
<!-- E_1414845278&#45;&#45;E1_988850650 -->
<g id="edge11" class="edge">
<title>E_1414845278&#45;&#45;E1_988850650</title>
<path fill="none" stroke="black" d="M221.57,-578.83C233.98,-566.77 251.73,-549.51 264.2,-537.38"/>
</g>
<!-- F_1306246648 -->
<g id="node4" class="node">
<title>F_1306246648</title>
<ellipse fill="none" stroke="black" cx="99" cy="-450" rx="27" ry="18"/>
<text text-anchor="middle" x="99" y="-446.3" font-family="Times,serif" font-size="14.00">F</text>
</g>
<!-- T_1163619825&#45;&#45;F_1306246648 -->
<g id="edge3" class="edge">
<title>T_1163619825&#45;&#45;F_1306246648</title>
<path fill="none" stroke="black" d="M156.43,-506.83C144.02,-494.77 126.27,-477.51 113.8,-465.38"/>
</g>
<!-- T1_137275020 -->
<g id="node10" class="node">
<title>T1_137275020</title>
<ellipse fill="none" stroke="black" cx="171" cy="-450" rx="27" ry="18"/>
<text text-anchor="middle" x="171" y="-446.3" font-family="Times,serif" font-size="14.00">T1</text>
</g>
<!-- T_1163619825&#45;&#45;T1_137275020 -->
<g id="edge9" class="edge">
<title>T_1163619825&#45;&#45;T1_137275020</title>
<path fill="none" stroke="black" d="M171,-503.7C171,-492.85 171,-478.92 171,-468.1"/>
</g>
<!-- G_1063737662 -->
<g id="node5" class="node">
<title>G_1063737662</title>
<ellipse fill="none" stroke="black" cx="27" cy="-378" rx="27" ry="18"/>
<text text-anchor="middle" x="27" y="-374.3" font-family="Times,serif" font-size="14.00">G</text>
</g>
<!-- F_1306246648&#45;&#45;G_1063737662 -->
<g id="edge4" class="edge">
<title>F_1306246648&#45;&#45;G_1063737662</title>
<path fill="none" stroke="black" d="M84.43,-434.83C72.02,-422.77 54.27,-405.51 41.8,-393.38"/>
</g>
<!-- F1_348055829 -->
<g id="node8" class="node">
<title>F1_348055829</title>
<ellipse fill="none" stroke="black" cx="99" cy="-378" rx="27" ry="18"/>
<text text-anchor="middle" x="99" y="-374.3" font-family="Times,serif" font-size="14.00">F1</text>
</g>
<!-- F_1306246648&#45;&#45;F1_348055829 -->
<g id="edge7" class="edge">
<title>F_1306246648&#45;&#45;F1_348055829</title>
<path fill="none" stroke="black" d="M99,-431.7C99,-420.85 99,-406.92 99,-396.1"/>
</g>
<!-- H_447767121 -->
<g id="node6" class="node">
<title>H_447767121</title>
<ellipse fill="none" stroke="black" cx="27" cy="-306" rx="27" ry="18"/>
<text text-anchor="middle" x="27" y="-302.3" font-family="Times,serif" font-size="14.00">H</text>
</g>
<!-- G_1063737662&#45;&#45;H_447767121 -->
<g id="edge5" class="edge">
<title>G_1063737662&#45;&#45;H_447767121</title>
<path fill="none" stroke="black" d="M27,-359.7C27,-348.85 27,-334.92 27,-324.1"/>
</g>
<!-- var_68857875 -->
<g id="node7" class="node">
<title>var_68857875</title>
<ellipse fill="none" stroke="black" cx="27" cy="-234" rx="27" ry="18"/>
<text text-anchor="middle" x="27" y="-230.3" font-family="Times,serif" font-size="14.00">a</text>
</g>
<!-- H_447767121&#45;&#45;var_68857875 -->
<g id="edge6" class="edge">
<title>H_447767121&#45;&#45;var_68857875</title>
<path fill="none" stroke="black" d="M27,-287.7C27,-276.85 27,-262.92 27,-252.1"/>
</g>
<!-- \\eps_286649365 -->
<g id="node9" class="node">
<title>\\eps_286649365</title>
<ellipse fill="none" stroke="black" cx="99" cy="-306" rx="27" ry="18"/>
<text text-anchor="middle" x="99" y="-302.3" font-family="Times,serif" font-size="14.00">\eps</text>
</g>
<!-- F1_348055829&#45;&#45;\\eps_286649365 -->
<g id="edge8" class="edge">
<title>F1_348055829&#45;&#45;\\eps_286649365</title>
<path fill="none" stroke="black" d="M99,-359.7C99,-348.85 99,-334.92 99,-324.1"/>
</g>
<!-- \\eps_1508181426 -->
<g id="node11" class="node">
<title>\\eps_1508181426</title>
<ellipse fill="none" stroke="black" cx="171" cy="-378" rx="27" ry="18"/>
<text text-anchor="middle" x="171" y="-374.3" font-family="Times,serif" font-size="14.00">\eps</text>
</g>
<!-- T1_137275020&#45;&#45;\\eps_1508181426 -->
<g id="edge10" class="edge">
<title>T1_137275020&#45;&#45;\\eps_1508181426</title>
<path fill="none" stroke="black" d="M171,-431.7C171,-420.85 171,-406.92 171,-396.1"/>
</g>
<!-- or_71016405 -->
<g id="node13" class="node">
<title>or_71016405</title>
<ellipse fill="none" stroke="black" cx="243" cy="-450" rx="27" ry="18"/>
<text text-anchor="middle" x="243" y="-446.3" font-family="Times,serif" font-size="14.00">|</text>
</g>
<!-- E1_988850650&#45;&#45;or_71016405 -->
<g id="edge12" class="edge">
<title>E1_988850650&#45;&#45;or_71016405</title>
<path fill="none" stroke="black" d="M270.65,-504.76C264.83,-493.46 257.11,-478.44 251.3,-467.15"/>
</g>
<!-- T_2044482328 -->
<g id="node14" class="node">
<title>T_2044482328</title>
<ellipse fill="none" stroke="black" cx="315" cy="-450" rx="27" ry="18"/>
<text text-anchor="middle" x="315" y="-446.3" font-family="Times,serif" font-size="14.00">T</text>
</g>
<!-- E1_988850650&#45;&#45;T_2044482328 -->
<g id="edge13" class="edge">
<title>E1_988850650&#45;&#45;T_2044482328</title>
<path fill="none" stroke="black" d="M287.35,-504.76C293.17,-493.46 300.89,-478.44 306.7,-467.15"/>
</g>
<!-- E1_1165791284 -->
<g id="node46" class="node">
<title>E1_1165791284</title>
<ellipse fill="none" stroke="black" cx="387" cy="-450" rx="27" ry="18"/>
<text text-anchor="middle" x="387" y="-446.3" font-family="Times,serif" font-size="14.00">E1</text>
</g>
<!-- E1_988850650&#45;&#45;E1_1165791284 -->
<g id="edge45" class="edge">
<title>E1_988850650&#45;&#45;E1_1165791284</title>
<path fill="none" stroke="black" d="M297.81,-508.81C317.63,-495.96 348.66,-475.85 368.4,-463.05"/>
</g>
<!-- F_149225732 -->
<g id="node15" class="node">
<title>F_149225732</title>
<ellipse fill="none" stroke="black" cx="243" cy="-378" rx="27" ry="18"/>
<text text-anchor="middle" x="243" y="-374.3" font-family="Times,serif" font-size="14.00">F</text>
</g>
<!-- T_2044482328&#45;&#45;F_149225732 -->
<g id="edge14" class="edge">
<title>T_2044482328&#45;&#45;F_149225732</title>
<path fill="none" stroke="black" d="M300.43,-434.83C288.02,-422.77 270.27,-405.51 257.8,-393.38"/>
</g>
<!-- T1_2107543287 -->
<g id="node27" class="node">
<title>T1_2107543287</title>
<ellipse fill="none" stroke="black" cx="315" cy="-378" rx="27" ry="18"/>
<text text-anchor="middle" x="315" y="-374.3" font-family="Times,serif" font-size="14.00">T1</text>
</g>
<!-- T_2044482328&#45;&#45;T1_2107543287 -->
<g id="edge26" class="edge">
<title>T_2044482328&#45;&#45;T1_2107543287</title>
<path fill="none" stroke="black" d="M315,-431.7C315,-420.85 315,-406.92 315,-396.1"/>
</g>
<!-- G_937744315 -->
<g id="node16" class="node">
<title>G_937744315</title>
<ellipse fill="none" stroke="black" cx="171" cy="-306" rx="27" ry="18"/>
<text text-anchor="middle" x="171" y="-302.3" font-family="Times,serif" font-size="14.00">G</text>
</g>
<!-- F_149225732&#45;&#45;G_937744315 -->
<g id="edge15" class="edge">
<title>F_149225732&#45;&#45;G_937744315</title>
<path fill="none" stroke="black" d="M228.43,-362.83C216.02,-350.77 198.27,-333.51 185.8,-321.38"/>
</g>
<!-- F1_1424698224 -->
<g id="node19" class="node">
<title>F1_1424698224</title>
<ellipse fill="none" stroke="black" cx="243" cy="-306" rx="27" ry="18"/>
<text text-anchor="middle" x="243" y="-302.3" font-family="Times,serif" font-size="14.00">F1</text>
</g>
<!-- F_149225732&#45;&#45;F1_1424698224 -->
<g id="edge18" class="edge">
<title>F_149225732&#45;&#45;F1_1424698224</title>
<path fill="none" stroke="black" d="M243,-359.7C243,-348.85 243,-334.92 243,-324.1"/>
</g>
<!-- H_1870209957 -->
<g id="node17" class="node">
<title>H_1870209957</title>
<ellipse fill="none" stroke="black" cx="99" cy="-234" rx="27" ry="18"/>
<text text-anchor="middle" x="99" y="-230.3" font-family="Times,serif" font-size="14.00">H</text>
</g>
<!-- G_937744315&#45;&#45;H_1870209957 -->
<g id="edge16" class="edge">
<title>G_937744315&#45;&#45;H_1870209957</title>
<path fill="none" stroke="black" d="M156.43,-290.83C144.02,-278.77 126.27,-261.51 113.8,-249.38"/>
</g>
<!-- var_1957099969 -->
<g id="node18" class="node">
<title>var_1957099969</title>
<ellipse fill="none" stroke="black" cx="99" cy="-162" rx="27" ry="18"/>
<text text-anchor="middle" x="99" y="-158.3" font-family="Times,serif" font-size="14.00">b</text>
</g>
<!-- H_1870209957&#45;&#45;var_1957099969 -->
<g id="edge17" class="edge">
<title>H_1870209957&#45;&#45;var_1957099969</title>
<path fill="none" stroke="black" d="M99,-215.7C99,-204.85 99,-190.92 99,-180.1"/>
</g>
<!-- and_1168340825 -->
<g id="node20" class="node">
<title>and_1168340825</title>
<ellipse fill="none" stroke="black" cx="171" cy="-234" rx="27" ry="18"/>
<text text-anchor="middle" x="171" y="-230.3" font-family="Times,serif" font-size="14.00">&amp;</text>
</g>
<!-- F1_1424698224&#45;&#45;and_1168340825 -->
<g id="edge19" class="edge">
<title>F1_1424698224&#45;&#45;and_1168340825</title>
<path fill="none" stroke="black" d="M228.43,-290.83C216.02,-278.77 198.27,-261.51 185.8,-249.38"/>
</g>
<!-- G_1667305539 -->
<g id="node21" class="node">
<title>G_1667305539</title>
<ellipse fill="none" stroke="black" cx="243" cy="-234" rx="27" ry="18"/>
<text text-anchor="middle" x="243" y="-230.3" font-family="Times,serif" font-size="14.00">G</text>
</g>
<!-- F1_1424698224&#45;&#45;G_1667305539 -->
<g id="edge20" class="edge">
<title>F1_1424698224&#45;&#45;G_1667305539</title>
<path fill="none" stroke="black" d="M243,-287.7C243,-276.85 243,-262.92 243,-252.1"/>
</g>
<!-- F1_406375608 -->
<g id="node25" class="node">
<title>F1_406375608</title>
<ellipse fill="none" stroke="black" cx="315" cy="-234" rx="27" ry="18"/>
<text text-anchor="middle" x="315" y="-230.3" font-family="Times,serif" font-size="14.00">F1</text>
</g>
<!-- F1_1424698224&#45;&#45;F1_406375608 -->
<g id="edge24" class="edge">
<title>F1_1424698224&#45;&#45;F1_406375608</title>
<path fill="none" stroke="black" d="M257.57,-290.83C269.98,-278.77 287.73,-261.51 300.2,-249.38"/>
</g>
<!-- neg_550147359 -->
<g id="node22" class="node">
<title>neg_550147359</title>
<ellipse fill="none" stroke="black" cx="171" cy="-162" rx="27" ry="18"/>
<text text-anchor="middle" x="171" y="-158.3" font-family="Times,serif" font-size="14.00">!</text>
</g>
<!-- G_1667305539&#45;&#45;neg_550147359 -->
<g id="edge21" class="edge">
<title>G_1667305539&#45;&#45;neg_550147359</title>
<path fill="none" stroke="black" d="M228.43,-218.83C216.02,-206.77 198.27,-189.51 185.8,-177.38"/>
</g>
<!-- H_762809053 -->
<g id="node23" class="node">
<title>H_762809053</title>
<ellipse fill="none" stroke="black" cx="243" cy="-162" rx="27" ry="18"/>
<text text-anchor="middle" x="243" y="-158.3" font-family="Times,serif" font-size="14.00">H</text>
</g>
<!-- G_1667305539&#45;&#45;H_762809053 -->
<g id="edge22" class="edge">
<title>G_1667305539&#45;&#45;H_762809053</title>
<path fill="none" stroke="black" d="M243,-215.7C243,-204.85 243,-190.92 243,-180.1"/>
</g>
<!-- var_1932536213 -->
<g id="node24" class="node">
<title>var_1932536213</title>
<ellipse fill="none" stroke="black" cx="243" cy="-90" rx="27" ry="18"/>
<text text-anchor="middle" x="243" y="-86.3" font-family="Times,serif" font-size="14.00">c</text>
</g>
<!-- H_762809053&#45;&#45;var_1932536213 -->
<g id="edge23" class="edge">
<title>H_762809053&#45;&#45;var_1932536213</title>
<path fill="none" stroke="black" d="M243,-143.7C243,-132.85 243,-118.92 243,-108.1"/>
</g>
<!-- \\eps_1815007437 -->
<g id="node26" class="node">
<title>\\eps_1815007437</title>
<ellipse fill="none" stroke="black" cx="315" cy="-162" rx="27" ry="18"/>
<text text-anchor="middle" x="315" y="-158.3" font-family="Times,serif" font-size="14.00">\eps</text>
</g>
<!-- F1_406375608&#45;&#45;\\eps_1815007437 -->
<g id="edge25" class="edge">
<title>F1_406375608&#45;&#45;\\eps_1815007437</title>
<path fill="none" stroke="black" d="M315,-215.7C315,-204.85 315,-190.92 315,-180.1"/>
</g>
<!-- xor_252738640 -->
<g id="node28" class="node">
<title>xor_252738640</title>
<ellipse fill="none" stroke="black" cx="315" cy="-306" rx="27" ry="18"/>
<text text-anchor="middle" x="315" y="-302.3" font-family="Times,serif" font-size="14.00">^</text>
</g>
<!-- T1_2107543287&#45;&#45;xor_252738640 -->
<g id="edge27" class="edge">
<title>T1_2107543287&#45;&#45;xor_252738640</title>
<path fill="none" stroke="black" d="M315,-359.7C315,-348.85 315,-334.92 315,-324.1"/>
</g>
<!-- F_1360215046 -->
<g id="node29" class="node">
<title>F_1360215046</title>
<ellipse fill="none" stroke="black" cx="387" cy="-306" rx="27" ry="18"/>
<text text-anchor="middle" x="387" y="-302.3" font-family="Times,serif" font-size="14.00">F</text>
</g>
<!-- T1_2107543287&#45;&#45;F_1360215046 -->
<g id="edge28" class="edge">
<title>T1_2107543287&#45;&#45;F_1360215046</title>
<path fill="none" stroke="black" d="M329.57,-362.83C341.98,-350.77 359.73,-333.51 372.2,-321.38"/>
</g>
<!-- T1_157168588 -->
<g id="node35" class="node">
<title>T1_157168588</title>
<ellipse fill="none" stroke="black" cx="567" cy="-306" rx="27" ry="18"/>
<text text-anchor="middle" x="567" y="-302.3" font-family="Times,serif" font-size="14.00">T1</text>
</g>
<!-- T1_2107543287&#45;&#45;T1_157168588 -->
<g id="edge34" class="edge">
<title>T1_2107543287&#45;&#45;T1_157168588</title>
<path fill="none" stroke="black" d="M335.64,-366.39C340.59,-364.08 345.92,-361.8 351,-360 417.96,-336.25 500.25,-319.26 541.24,-311.58"/>
</g>
<!-- G_1260467793 -->
<g id="node30" class="node">
<title>G_1260467793</title>
<ellipse fill="none" stroke="black" cx="387" cy="-234" rx="27" ry="18"/>
<text text-anchor="middle" x="387" y="-230.3" font-family="Times,serif" font-size="14.00">G</text>
</g>
<!-- F_1360215046&#45;&#45;G_1260467793 -->
<g id="edge29" class="edge">
<title>F_1360215046&#45;&#45;G_1260467793</title>
<path fill="none" stroke="black" d="M387,-287.7C387,-276.85 387,-262.92 387,-252.1"/>
</g>
<!-- F1_100929741 -->
<g id="node33" class="node">
<title>F1_100929741</title>
<ellipse fill="none" stroke="black" cx="459" cy="-234" rx="27" ry="18"/>
<text text-anchor="middle" x="459" y="-230.3" font-family="Times,serif" font-size="14.00">F1</text>
</g>
<!-- F_1360215046&#45;&#45;F1_100929741 -->
<g id="edge32" class="edge">
<title>F_1360215046&#45;&#45;F1_100929741</title>
<path fill="none" stroke="black" d="M401.57,-290.83C413.98,-278.77 431.73,-261.51 444.2,-249.38"/>
</g>
<!-- H_1111613684 -->
<g id="node31" class="node">
<title>H_1111613684</title>
<ellipse fill="none" stroke="black" cx="387" cy="-162" rx="27" ry="18"/>
<text text-anchor="middle" x="387" y="-158.3" font-family="Times,serif" font-size="14.00">H</text>
</g>
<!-- G_1260467793&#45;&#45;H_1111613684 -->
<g id="edge30" class="edge">
<title>G_1260467793&#45;&#45;H_1111613684</title>
<path fill="none" stroke="black" d="M387,-215.7C387,-204.85 387,-190.92 387,-180.1"/>
</g>
<!-- var_1321203216 -->
<g id="node32" class="node">
<title>var_1321203216</title>
<ellipse fill="none" stroke="black" cx="387" cy="-90" rx="27" ry="18"/>
<text text-anchor="middle" x="387" y="-86.3" font-family="Times,serif" font-size="14.00">c</text>
</g>
<!-- H_1111613684&#45;&#45;var_1321203216 -->
<g id="edge31" class="edge">
<title>H_1111613684&#45;&#45;var_1321203216</title>
<path fill="none" stroke="black" d="M387,-143.7C387,-132.85 387,-118.92 387,-108.1"/>
</g>
<!-- \\eps_1154821602 -->
<g id="node34" class="node">
<title>\\eps_1154821602</title>
<ellipse fill="none" stroke="black" cx="459" cy="-162" rx="27" ry="18"/>
<text text-anchor="middle" x="459" y="-158.3" font-family="Times,serif" font-size="14.00">\eps</text>
</g>
<!-- F1_100929741&#45;&#45;\\eps_1154821602 -->
<g id="edge33" class="edge">
<title>F1_100929741&#45;&#45;\\eps_1154821602</title>
<path fill="none" stroke="black" d="M459,-215.7C459,-204.85 459,-190.92 459,-180.1"/>
</g>
<!-- xor_945834881 -->
<g id="node36" class="node">
<title>xor_945834881</title>
<ellipse fill="none" stroke="black" cx="531" cy="-234" rx="27" ry="18"/>
<text text-anchor="middle" x="531" y="-230.3" font-family="Times,serif" font-size="14.00">^</text>
</g>
<!-- T1_157168588&#45;&#45;xor_945834881 -->
<g id="edge35" class="edge">
<title>T1_157168588&#45;&#45;xor_945834881</title>
<path fill="none" stroke="black" d="M558.65,-288.76C552.83,-277.46 545.11,-262.44 539.3,-251.15"/>
</g>
<!-- F_507819576 -->
<g id="node37" class="node">
<title>F_507819576</title>
<ellipse fill="none" stroke="black" cx="603" cy="-234" rx="27" ry="18"/>
<text text-anchor="middle" x="603" y="-230.3" font-family="Times,serif" font-size="14.00">F</text>
</g>
<!-- T1_157168588&#45;&#45;F_507819576 -->
<g id="edge36" class="edge">
<title>T1_157168588&#45;&#45;F_507819576</title>
<path fill="none" stroke="black" d="M575.35,-288.76C581.17,-277.46 588.89,-262.44 594.7,-251.15"/>
</g>
<!-- T1_1777443462 -->
<g id="node44" class="node">
<title>T1_1777443462</title>
<ellipse fill="none" stroke="black" cx="675" cy="-234" rx="27" ry="18"/>
<text text-anchor="middle" x="675" y="-230.3" font-family="Times,serif" font-size="14.00">T1</text>
</g>
<!-- T1_157168588&#45;&#45;T1_1777443462 -->
<g id="edge43" class="edge">
<title>T1_157168588&#45;&#45;T1_1777443462</title>
<path fill="none" stroke="black" d="M585.81,-292.81C605.63,-279.96 636.66,-259.85 656.4,-247.05"/>
</g>
<!-- G_1939022383 -->
<g id="node38" class="node">
<title>G_1939022383</title>
<ellipse fill="none" stroke="black" cx="531" cy="-162" rx="27" ry="18"/>
<text text-anchor="middle" x="531" y="-158.3" font-family="Times,serif" font-size="14.00">G</text>
</g>
<!-- F_507819576&#45;&#45;G_1939022383 -->
<g id="edge37" class="edge">
<title>F_507819576&#45;&#45;G_1939022383</title>
<path fill="none" stroke="black" d="M588.43,-218.83C576.02,-206.77 558.27,-189.51 545.8,-177.38"/>
</g>
<!-- F1_1611373863 -->
<g id="node42" class="node">
<title>F1_1611373863</title>
<ellipse fill="none" stroke="black" cx="603" cy="-162" rx="27" ry="18"/>
<text text-anchor="middle" x="603" y="-158.3" font-family="Times,serif" font-size="14.00">F1</text>
</g>
<!-- F_507819576&#45;&#45;F1_1611373863 -->
<g id="edge41" class="edge">
<title>F_507819576&#45;&#45;F1_1611373863</title>
<path fill="none" stroke="black" d="M603,-215.7C603,-204.85 603,-190.92 603,-180.1"/>
</g>
<!-- neg_195801026 -->
<g id="node39" class="node">
<title>neg_195801026</title>
<ellipse fill="none" stroke="black" cx="459" cy="-90" rx="27" ry="18"/>
<text text-anchor="middle" x="459" y="-86.3" font-family="Times,serif" font-size="14.00">!</text>
</g>
<!-- G_1939022383&#45;&#45;neg_195801026 -->
<g id="edge38" class="edge">
<title>G_1939022383&#45;&#45;neg_195801026</title>
<path fill="none" stroke="black" d="M516.43,-146.83C504.02,-134.77 486.27,-117.51 473.8,-105.38"/>
</g>
<!-- H_833474933 -->
<g id="node40" class="node">
<title>H_833474933</title>
<ellipse fill="none" stroke="black" cx="531" cy="-90" rx="27" ry="18"/>
<text text-anchor="middle" x="531" y="-86.3" font-family="Times,serif" font-size="14.00">H</text>
</g>
<!-- G_1939022383&#45;&#45;H_833474933 -->
<g id="edge39" class="edge">
<title>G_1939022383&#45;&#45;H_833474933</title>
<path fill="none" stroke="black" d="M531,-143.7C531,-132.85 531,-118.92 531,-108.1"/>
</g>
<!-- var_182670350 -->
<g id="node41" class="node">
<title>var_182670350</title>
<ellipse fill="none" stroke="black" cx="531" cy="-18" rx="27" ry="18"/>
<text text-anchor="middle" x="531" y="-14.3" font-family="Times,serif" font-size="14.00">a</text>
</g>
<!-- H_833474933&#45;&#45;var_182670350 -->
<g id="edge40" class="edge">
<title>H_833474933&#45;&#45;var_182670350</title>
<path fill="none" stroke="black" d="M531,-71.7C531,-60.85 531,-46.92 531,-36.1"/>
</g>
<!-- \\eps_914942811 -->
<g id="node43" class="node">
<title>\\eps_914942811</title>
<ellipse fill="none" stroke="black" cx="603" cy="-90" rx="27" ry="18"/>
<text text-anchor="middle" x="603" y="-86.3" font-family="Times,serif" font-size="14.00">\eps</text>
</g>
<!-- F1_1611373863&#45;&#45;\\eps_914942811 -->
<g id="edge42" class="edge">
<title>F1_1611373863&#45;&#45;\\eps_914942811</title>
<path fill="none" stroke="black" d="M603,-143.7C603,-132.85 603,-118.92 603,-108.1"/>
</g>
<!-- \\eps_2032326802 -->
<g id="node45" class="node">
<title>\\eps_2032326802</title>
<ellipse fill="none" stroke="black" cx="675" cy="-162" rx="27" ry="18"/>
<text text-anchor="middle" x="675" y="-158.3" font-family="Times,serif" font-size="14.00">\eps</text>
</g>
<!-- T1_1777443462&#45;&#45;\\eps_2032326802 -->
<g id="edge44" class="edge">
<title>T1_1777443462&#45;&#45;\\eps_2032326802</title>
<path fill="none" stroke="black" d="M675,-215.7C675,-204.85 675,-190.92 675,-180.1"/>
</g>
<!-- \\eps_878668275 -->
<g id="node47" class="node">
<title>\\eps_878668275</title>
<ellipse fill="none" stroke="black" cx="387" cy="-378" rx="27" ry="18"/>
<text text-anchor="middle" x="387" y="-374.3" font-family="Times,serif" font-size="14.00">\eps</text>
</g>
<!-- E1_1165791284&#45;&#45;\\eps_878668275 -->
<g id="edge46" class="edge">
<title>E1_1165791284&#45;&#45;\\eps_878668275</title>
<path fill="none" stroke="black" d="M387,-431.7C387,-420.85 387,-406.92 387,-396.1"/>
</g>
</g>
</svg>
