<?xml version="1.0" encoding="UTF-8" standalone="no"?>
<!DOCTYPE svg PUBLIC "-//W3C//DTD SVG 1.1//EN"
 "http://www.w3.org/Graphics/SVG/1.1/DTD/svg11.dtd">
<!-- Generated by graphviz version 2.49.1 (20210923.0004)
 -->
<!-- Pages: 1 -->
<svg width="566pt" height="620pt"
 viewBox="0.00 0.00 566.00 620.00" xmlns="http://www.w3.org/2000/svg" xmlns:xlink="http://www.w3.org/1999/xlink">
<g id="graph0" class="graph" transform="scale(1 1) rotate(0) translate(4 616)">
<polygon fill="white" stroke="transparent" points="-4,4 -4,-616 562,-616 562,4 -4,4"/>
<!-- E0_836427078 -->
<g id="node1" class="node">
<title>E0_836427078</title>
<ellipse fill="none" stroke="black" cx="207" cy="-594" rx="27" ry="18"/>
<text text-anchor="middle" x="207" y="-590.3" font-family="Times,serif" font-size="14.00">E0</text>
</g>
<!-- E_1322642290 -->
<g id="node2" class="node">
<title>E_1322642290</title>
<ellipse fill="none" stroke="black" cx="207" cy="-522" rx="27" ry="18"/>
<text text-anchor="middle" x="207" y="-518.3" font-family="Times,serif" font-size="14.00">E</text>
</g>
<!-- E0_836427078&#45;&#45;E_1322642290 -->
<g id="edge1" class="edge">
<title>E0_836427078&#45;&#45;E_1322642290</title>
<path fill="none" stroke="black" d="M207,-575.7C207,-564.85 207,-550.92 207,-540.1"/>
</g>
<!-- T_318353283 -->
<g id="node3" class="node">
<title>T_318353283</title>
<ellipse fill="none" stroke="black" cx="171" cy="-450" rx="27" ry="18"/>
<text text-anchor="middle" x="171" y="-446.3" font-family="Times,serif" font-size="14.00">T</text>
</g>
<!-- E_1322642290&#45;&#45;T_318353283 -->
<g id="edge2" class="edge">
<title>E_1322642290&#45;&#45;T_318353283</title>
<path fill="none" stroke="black" d="M198.65,-504.76C192.83,-493.46 185.11,-478.44 179.3,-467.15"/>
</g>
<!-- E1_2131960182 -->
<g id="node12" class="node">
<title>E1_2131960182</title>
<ellipse fill="none" stroke="black" cx="279" cy="-450" rx="27" ry="18"/>
<text text-anchor="middle" x="279" y="-446.3" font-family="Times,serif" font-size="14.00">E1</text>
</g>
<!-- E_1322642290&#45;&#45;E1_2131960182 -->
<g id="edge11" class="edge">
<title>E_1322642290&#45;&#45;E1_2131960182</title>
<path fill="none" stroke="black" d="M221.57,-506.83C233.98,-494.77 251.73,-477.51 264.2,-465.38"/>
</g>
<!-- F_431570856 -->
<g id="node4" class="node">
<title>F_431570856</title>
<ellipse fill="none" stroke="black" cx="99" cy="-378" rx="27" ry="18"/>
<text text-anchor="middle" x="99" y="-374.3" font-family="Times,serif" font-size="14.00">F</text>
</g>
<!-- T_318353283&#45;&#45;F_431570856 -->
<g id="edge3" class="edge">
<title>T_318353283&#45;&#45;F_431570856</title>
<path fill="none" stroke="black" d="M156.43,-434.83C144.02,-422.77 126.27,-405.51 113.8,-393.38"/>
</g>
<!-- T1_250112971 -->
<g id="node10" class="node">
<title>T1_250112971</title>
<ellipse fill="none" stroke="black" cx="171" cy="-378" rx="27" ry="18"/>
<text text-anchor="middle" x="171" y="-374.3" font-family="Times,serif" font-size="14.00">T1</text>
</g>
<!-- T_318353283&#45;&#45;T1_250112971 -->
<g id="edge9" class="edge">
<title>T_318353283&#45;&#45;T1_250112971</title>
<path fill="none" stroke="black" d="M171,-431.7C171,-420.85 171,-406.92 171,-396.1"/>
</g>
<!-- G_2121199924 -->
<g id="node5" class="node">
<title>G_2121199924</title>
<ellipse fill="none" stroke="black" cx="27" cy="-306" rx="27" ry="18"/>
<text text-anchor="middle" x="27" y="-302.3" font-family="Times,serif" font-size="14.00">G</text>
</g>
<!-- F_431570856&#45;&#45;G_2121199924 -->
<g id="edge4" class="edge">
<title>F_431570856&#45;&#45;G_2121199924</title>
<path fill="none" stroke="black" d="M84.43,-362.83C72.02,-350.77 54.27,-333.51 41.8,-321.38"/>
</g>
<!-- F1_282003944 -->
<g id="node8" class="node">
<title>F1_282003944</title>
<ellipse fill="none" stroke="black" cx="99" cy="-306" rx="27" ry="18"/>
<text text-anchor="middle" x="99" y="-302.3" font-family="Times,serif" font-size="14.00">F1</text>
</g>
<!-- F_431570856&#45;&#45;F1_282003944 -->
<g id="edge7" class="edge">
<title>F_431570856&#45;&#45;F1_282003944</title>
<path fill="none" stroke="black" d="M99,-359.7C99,-348.85 99,-334.92 99,-324.1"/>
</g>
<!-- H_520162288 -->
<g id="node6" class="node">
<title>H_520162288</title>
<ellipse fill="none" stroke="black" cx="27" cy="-234" rx="27" ry="18"/>
<text text-anchor="middle" x="27" y="-230.3" font-family="Times,serif" font-size="14.00">H</text>
</g>
<!-- G_2121199924&#45;&#45;H_520162288 -->
<g id="edge5" class="edge">
<title>G_2121199924&#45;&#45;H_520162288</title>
<path fill="none" stroke="black" d="M27,-287.7C27,-276.85 27,-262.92 27,-252.1"/>
</g>
<!-- var_1088104996 -->
<g id="node7" class="node">
<title>var_1088104996</title>
<ellipse fill="none" stroke="black" cx="27" cy="-162" rx="27" ry="18"/>
<text text-anchor="middle" x="27" y="-158.3" font-family="Times,serif" font-size="14.00">a</text>
</g>
<!-- H_520162288&#45;&#45;var_1088104996 -->
<g id="edge6" class="edge">
<title>H_520162288&#45;&#45;var_1088104996</title>
<path fill="none" stroke="black" d="M27,-215.7C27,-204.85 27,-190.92 27,-180.1"/>
</g>
<!-- \\eps_421637524 -->
<g id="node9" class="node">
<title>\\eps_421637524</title>
<ellipse fill="none" stroke="black" cx="99" cy="-234" rx="27" ry="18"/>
<text text-anchor="middle" x="99" y="-230.3" font-family="Times,serif" font-size="14.00">\eps</text>
</g>
<!-- F1_282003944&#45;&#45;\\eps_421637524 -->
<g id="edge8" class="edge">
<title>F1_282003944&#45;&#45;\\eps_421637524</title>
<path fill="none" stroke="black" d="M99,-287.7C99,-276.85 99,-262.92 99,-252.1"/>
</g>
<!-- \\eps_393996856 -->
<g id="node11" class="node">
<title>\\eps_393996856</title>
<ellipse fill="none" stroke="black" cx="171" cy="-306" rx="27" ry="18"/>
<text text-anchor="middle" x="171" y="-302.3" font-family="Times,serif" font-size="14.00">\eps</text>
</g>
<!-- T1_250112971&#45;&#45;\\eps_393996856 -->
<g id="edge10" class="edge">
<title>T1_250112971&#45;&#45;\\eps_393996856</title>
<path fill="none" stroke="black" d="M171,-359.7C171,-348.85 171,-334.92 171,-324.1"/>
</g>
<!-- or_1808432653 -->
<g id="node13" class="node">
<title>or_1808432653</title>
<ellipse fill="none" stroke="black" cx="243" cy="-378" rx="27" ry="18"/>
<text text-anchor="middle" x="243" y="-374.3" font-family="Times,serif" font-size="14.00">|</text>
</g>
<!-- E1_2131960182&#45;&#45;or_1808432653 -->
<g id="edge12" class="edge">
<title>E1_2131960182&#45;&#45;or_1808432653</title>
<path fill="none" stroke="black" d="M270.65,-432.76C264.83,-421.46 257.11,-406.44 251.3,-395.15"/>
</g>
<!-- T_640808588 -->
<g id="node14" class="node">
<title>T_640808588</title>
<ellipse fill="none" stroke="black" cx="315" cy="-378" rx="27" ry="18"/>
<text text-anchor="middle" x="315" y="-374.3" font-family="Times,serif" font-size="14.00">T</text>
</g>
<!-- E1_2131960182&#45;&#45;T_640808588 -->
<g id="edge13" class="edge">
<title>E1_2131960182&#45;&#45;T_640808588</title>
<path fill="none" stroke="black" d="M287.35,-432.76C293.17,-421.46 300.89,-406.44 306.7,-395.15"/>
</g>
<!-- E1_858818438 -->
<g id="node23" class="node">
<title>E1_858818438</title>
<ellipse fill="none" stroke="black" cx="423" cy="-378" rx="27" ry="18"/>
<text text-anchor="middle" x="423" y="-374.3" font-family="Times,serif" font-size="14.00">E1</text>
</g>
<!-- E1_2131960182&#45;&#45;E1_858818438 -->
<g id="edge22" class="edge">
<title>E1_2131960182&#45;&#45;E1_858818438</title>
<path fill="none" stroke="black" d="M300.25,-438.67C327.47,-425.44 374.4,-402.63 401.67,-389.37"/>
</g>
<!-- F_1859383896 -->
<g id="node15" class="node">
<title>F_1859383896</title>
<ellipse fill="none" stroke="black" cx="243" cy="-306" rx="27" ry="18"/>
<text text-anchor="middle" x="243" y="-302.3" font-family="Times,serif" font-size="14.00">F</text>
</g>
<!-- T_640808588&#45;&#45;F_1859383896 -->
<g id="edge14" class="edge">
<title>T_640808588&#45;&#45;F_1859383896</title>
<path fill="none" stroke="black" d="M300.43,-362.83C288.02,-350.77 270.27,-333.51 257.8,-321.38"/>
</g>
<!-- T1_1097897234 -->
<g id="node21" class="node">
<title>T1_1097897234</title>
<ellipse fill="none" stroke="black" cx="315" cy="-306" rx="27" ry="18"/>
<text text-anchor="middle" x="315" y="-302.3" font-family="Times,serif" font-size="14.00">T1</text>
</g>
<!-- T_640808588&#45;&#45;T1_1097897234 -->
<g id="edge20" class="edge">
<title>T_640808588&#45;&#45;T1_1097897234</title>
<path fill="none" stroke="black" d="M315,-359.7C315,-348.85 315,-334.92 315,-324.1"/>
</g>
<!-- G_145581669 -->
<g id="node16" class="node">
<title>G_145581669</title>
<ellipse fill="none" stroke="black" cx="171" cy="-234" rx="27" ry="18"/>
<text text-anchor="middle" x="171" y="-230.3" font-family="Times,serif" font-size="14.00">G</text>
</g>
<!-- F_1859383896&#45;&#45;G_145581669 -->
<g id="edge15" class="edge">
<title>F_1859383896&#45;&#45;G_145581669</title>
<path fill="none" stroke="black" d="M228.43,-290.83C216.02,-278.77 198.27,-261.51 185.8,-249.38"/>
</g>
<!-- F1_1756573246 -->
<g id="node19" class="node">
<title>F1_1756573246</title>
<ellipse fill="none" stroke="black" cx="243" cy="-234" rx="27" ry="18"/>
<text text-anchor="middle" x="243" y="-230.3" font-family="Times,serif" font-size="14.00">F1</text>
</g>
<!-- F_1859383896&#45;&#45;F1_1756573246 -->
<g id="edge18" class="edge">
<title>F_1859383896&#45;&#45;F1_1756573246</title>
<path fill="none" stroke="black" d="M243,-287.7C243,-276.85 243,-262.92 243,-252.1"/>
</g>
<!-- H_816798571 -->
<g id="node17" class="node">
<title>H_816798571</title>
<ellipse fill="none" stroke="black" cx="171" cy="-162" rx="27" ry="18"/>
<text text-anchor="middle" x="171" y="-158.3" font-family="Times,serif" font-size="14.00">H</text>
</g>
<!-- G_145581669&#45;&#45;H_816798571 -->
<g id="edge16" class="edge">
<title>G_145581669&#45;&#45;H_816798571</title>
<path fill="none" stroke="black" d="M171,-215.7C171,-204.85 171,-190.92 171,-180.1"/>
</g>
<!-- var_428039780 -->
<g id="node18" class="node">
<title>var_428039780</title>
<ellipse fill="none" stroke="black" cx="171" cy="-90" rx="27" ry="18"/>
<text text-anchor="middle" x="171" y="-86.3" font-family="Times,serif" font-size="14.00">b</text>
</g>
<!-- H_816798571&#45;&#45;var_428039780 -->
<g id="edge17" class="edge">
<title>H_816798571&#45;&#45;var_428039780</title>
<path fill="none" stroke="black" d="M171,-143.7C171,-132.85 171,-118.92 171,-108.1"/>
</g>
<!-- \\eps_198112003 -->
<g id="node20" class="node">
<title>\\eps_198112003</title>
<ellipse fill="none" stroke="black" cx="243" cy="-162" rx="27" ry="18"/>
<text text-anchor="middle" x="243" y="-158.3" font-family="Times,serif" font-size="14.00">\eps</text>
</g>
<!-- F1_1756573246&#45;&#45;\\eps_198112003 -->
<g id="edge19" class="edge">
<title>F1_1756573246&#45;&#45;\\eps_198112003</title>
<path fill="none" stroke="black" d="M243,-215.7C243,-204.85 243,-190.92 243,-180.1"/>
</g>
<!-- \\eps_1107530534 -->
<g id="node22" class="node">
<title>\\eps_1107530534</title>
<ellipse fill="none" stroke="black" cx="315" cy="-234" rx="27" ry="18"/>
<text text-anchor="middle" x="315" y="-230.3" font-family="Times,serif" font-size="14.00">\eps</text>
</g>
<!-- T1_1097897234&#45;&#45;\\eps_1107530534 -->
<g id="edge21" class="edge">
<title>T1_1097897234&#45;&#45;\\eps_1107530534</title>
<path fill="none" stroke="black" d="M315,-287.7C315,-276.85 315,-262.92 315,-252.1"/>
</g>
<!-- or_1335503880 -->
<g id="node24" class="node">
<title>or_1335503880</title>
<ellipse fill="none" stroke="black" cx="387" cy="-306" rx="27" ry="18"/>
<text text-anchor="middle" x="387" y="-302.3" font-family="Times,serif" font-size="14.00">|</text>
</g>
<!-- E1_858818438&#45;&#45;or_1335503880 -->
<g id="edge23" class="edge">
<title>E1_858818438&#45;&#45;or_1335503880</title>
<path fill="none" stroke="black" d="M414.65,-360.76C408.83,-349.46 401.11,-334.44 395.3,-323.15"/>
</g>
<!-- T_176683244 -->
<g id="node25" class="node">
<title>T_176683244</title>
<ellipse fill="none" stroke="black" cx="459" cy="-306" rx="27" ry="18"/>
<text text-anchor="middle" x="459" y="-302.3" font-family="Times,serif" font-size="14.00">T</text>
</g>
<!-- E1_858818438&#45;&#45;T_176683244 -->
<g id="edge24" class="edge">
<title>E1_858818438&#45;&#45;T_176683244</title>
<path fill="none" stroke="black" d="M431.35,-360.76C437.17,-349.46 444.89,-334.44 450.7,-323.15"/>
</g>
<!-- E1_888287133 -->
<g id="node34" class="node">
<title>E1_888287133</title>
<ellipse fill="none" stroke="black" cx="531" cy="-306" rx="27" ry="18"/>
<text text-anchor="middle" x="531" y="-302.3" font-family="Times,serif" font-size="14.00">E1</text>
</g>
<!-- E1_858818438&#45;&#45;E1_888287133 -->
<g id="edge33" class="edge">
<title>E1_858818438&#45;&#45;E1_888287133</title>
<path fill="none" stroke="black" d="M441.81,-364.81C461.63,-351.96 492.66,-331.85 512.4,-319.05"/>
</g>
<!-- F_1413730361 -->
<g id="node26" class="node">
<title>F_1413730361</title>
<ellipse fill="none" stroke="black" cx="387" cy="-234" rx="27" ry="18"/>
<text text-anchor="middle" x="387" y="-230.3" font-family="Times,serif" font-size="14.00">F</text>
</g>
<!-- T_176683244&#45;&#45;F_1413730361 -->
<g id="edge25" class="edge">
<title>T_176683244&#45;&#45;F_1413730361</title>
<path fill="none" stroke="black" d="M444.43,-290.83C432.02,-278.77 414.27,-261.51 401.8,-249.38"/>
</g>
<!-- T1_946802083 -->
<g id="node32" class="node">
<title>T1_946802083</title>
<ellipse fill="none" stroke="black" cx="459" cy="-234" rx="27" ry="18"/>
<text text-anchor="middle" x="459" y="-230.3" font-family="Times,serif" font-size="14.00">T1</text>
</g>
<!-- T_176683244&#45;&#45;T1_946802083 -->
<g id="edge31" class="edge">
<title>T_176683244&#45;&#45;T1_946802083</title>
<path fill="none" stroke="black" d="M459,-287.7C459,-276.85 459,-262.92 459,-252.1"/>
</g>
<!-- G_1668837760 -->
<g id="node27" class="node">
<title>G_1668837760</title>
<ellipse fill="none" stroke="black" cx="315" cy="-162" rx="27" ry="18"/>
<text text-anchor="middle" x="315" y="-158.3" font-family="Times,serif" font-size="14.00">G</text>
</g>
<!-- F_1413730361&#45;&#45;G_1668837760 -->
<g id="edge26" class="edge">
<title>F_1413730361&#45;&#45;G_1668837760</title>
<path fill="none" stroke="black" d="M372.43,-218.83C360.02,-206.77 342.27,-189.51 329.8,-177.38"/>
</g>
<!-- F1_48361312 -->
<g id="node30" class="node">
<title>F1_48361312</title>
<ellipse fill="none" stroke="black" cx="387" cy="-162" rx="27" ry="18"/>
<text text-anchor="middle" x="387" y="-158.3" font-family="Times,serif" font-size="14.00">F1</text>
</g>
<!-- F_1413730361&#45;&#45;F1_48361312 -->
<g id="edge29" class="edge">
<title>F_1413730361&#45;&#45;F1_48361312</title>
<path fill="none" stroke="black" d="M387,-215.7C387,-204.85 387,-190.92 387,-180.1"/>
</g>
<!-- H_2099051403 -->
<g id="node28" class="node">
<title>H_2099051403</title>
<ellipse fill="none" stroke="black" cx="315" cy="-90" rx="27" ry="18"/>
<text text-anchor="middle" x="315" y="-86.3" font-family="Times,serif" font-size="14.00">H</text>
</g>
<!-- G_1668837760&#45;&#45;H_2099051403 -->
<g id="edge27" class="edge">
<title>G_1668837760&#45;&#45;H_2099051403</title>
<path fill="none" stroke="black" d="M315,-143.7C315,-132.85 315,-118.92 315,-108.1"/>
</g>
<!-- var_1223240796 -->
<g id="node29" class="node">
<title>var_1223240796</title>
<ellipse fill="none" stroke="black" cx="315" cy="-18" rx="27" ry="18"/>
<text text-anchor="middle" x="315" y="-14.3" font-family="Times,serif" font-size="14.00">c</text>
</g>
<!-- H_2099051403&#45;&#45;var_1223240796 -->
<g id="edge28" class="edge">
<title>H_2099051403&#45;&#45;var_1223240796</title>
<path fill="none" stroke="black" d="M315,-71.7C315,-60.85 315,-46.92 315,-36.1"/>
</g>
<!-- \\eps_573926093 -->
<g id="node31" class="node">
<title>\\eps_573926093</title>
<ellipse fill="none" stroke="black" cx="387" cy="-90" rx="27" ry="18"/>
<text text-anchor="middle" x="387" y="-86.3" font-family="Times,serif" font-size="14.00">\eps</text>
</g>
<!-- F1_48361312&#45;&#45;\\eps_573926093 -->
<g id="edge30" class="edge">
<title>F1_48361312&#45;&#45;\\eps_573926093</title>
<path fill="none" stroke="black" d="M387,-143.7C387,-132.85 387,-118.92 387,-108.1"/>
</g>
<!-- \\eps_962944318 -->
<g id="node33" class="node">
<title>\\eps_962944318</title>
<ellipse fill="none" stroke="black" cx="459" cy="-162" rx="27" ry="18"/>
<text text-anchor="middle" x="459" y="-158.3" font-family="Times,serif" font-size="14.00">\eps</text>
</g>
<!-- T1_946802083&#45;&#45;\\eps_962944318 -->
<g id="edge32" class="edge">
<title>T1_946802083&#45;&#45;\\eps_962944318</title>
<path fill="none" stroke="black" d="M459,-215.7C459,-204.85 459,-190.92 459,-180.1"/>
</g>
<!-- \\eps_1025001676 -->
<g id="node35" class="node">
<title>\\eps_1025001676</title>
<ellipse fill="none" stroke="black" cx="531" cy="-234" rx="27" ry="18"/>
<text text-anchor="middle" x="531" y="-230.3" font-family="Times,serif" font-size="14.00">\eps</text>
</g>
<!-- E1_888287133&#45;&#45;\\eps_1025001676 -->
<g id="edge34" class="edge">
<title>E1_888287133&#45;&#45;\\eps_1025001676</title>
<path fill="none" stroke="black" d="M531,-287.7C531,-276.85 531,-262.92 531,-252.1"/>
</g>
</g>
</svg>
